<?xml version="1.0" encoding="UTF-8" standalone="no"?><!DOCTYPE svg PUBLIC "-//W3C//DTD SVG 1.1//EN" "http://www.w3.org/Graphics/SVG/1.1/DTD/svg11.dtd"><svg width="100%" height="100%" viewBox="0 0 27 439" version="1.1" xmlns="http://www.w3.org/2000/svg" xmlns:xlink="http://www.w3.org/1999/xlink" xml:space="preserve" xmlns:serif="http://www.serif.com/" style="fill-rule:evenodd;clip-rule:evenodd;stroke-linejoin:round;stroke-miterlimit:2;"><g><path d="M3.037,423.787c0.25,0 0.375,0.125 0.375,0.376l0,10.837c0,0.1 0.05,0.15 0.15,0.15l8.1,-0c0.1,-0 0.15,-0.05 0.15,-0.15l0,-7.125c0,-0.25 0.125,-0.375 0.375,-0.375l2.363,0c0.25,0 0.375,0.125 0.375,0.375l-0,7.125c-0,0.1 0.05,0.15 0.15,0.15l11.1,-0c0.25,-0 0.375,0.125 0.375,0.375l-0,2.85c-0,0.25 -0.125,0.375 -0.375,0.375l-25.5,0c-0.25,0 -0.375,-0.125 -0.375,-0.375l-0,-14.212c-0,-0.251 0.125,-0.376 0.375,-0.376l2.362,0Z" style="fill:#fff;fill-rule:nonzero;"/><path d="M26.55,418.238c-0,0.249 -0.125,0.375 -0.375,0.375l-25.5,-0c-0.25,-0 -0.375,-0.126 -0.375,-0.375l-0,-2.85c-0,-0.251 0.125,-0.375 0.375,-0.375l25.5,-0c0.25,-0 0.375,0.124 0.375,0.375l-0,2.85Z" style="fill:#fff;fill-rule:nonzero;"/><path d="M0.675,394.725c-0.25,0 -0.375,-0.125 -0.375,-0.375l-0,-2.85c-0,-0.25 0.125,-0.375 0.375,-0.375l25.5,0c0.25,0 0.375,0.125 0.375,0.375l-0,3c-0,0.225 -0.088,0.375 -0.263,0.45l-18.187,9.037c-0.05,0.05 -0.075,0.094 -0.075,0.132c-0,0.037 0.037,0.056 0.112,0.056l18.038,-0.037c0.25,-0 0.375,0.124 0.375,0.375l-0,2.85c-0,0.249 -0.125,0.375 -0.375,0.375l-25.5,-0c-0.25,-0 -0.375,-0.126 -0.375,-0.375l-0,-3c-0,-0.225 0.087,-0.376 0.262,-0.45l18.188,-9c0.05,-0.051 0.075,-0.094 0.075,-0.132c-0,-0.037 -0.038,-0.056 -0.113,-0.056l-18.037,0Z" style="fill:#fff;fill-rule:nonzero;"/><path d="M3.037,369.075c0.25,0 0.375,0.125 0.375,0.375l0,10.875c0,0.1 0.05,0.15 0.15,0.15l8.1,0c0.1,0 0.15,-0.05 0.15,-0.15l0,-7.162c0,-0.251 0.125,-0.375 0.375,-0.375l2.363,-0c0.25,-0 0.375,0.124 0.375,0.375l-0,7.162c-0,0.1 0.05,0.15 0.15,0.15l8.212,0c0.1,0 0.15,-0.05 0.15,-0.15l0,-10.875c0,-0.25 0.125,-0.375 0.375,-0.375l2.363,0c0.25,0 0.375,0.125 0.375,0.375l-0,14.25c-0,0.25 -0.125,0.375 -0.375,0.375l-25.5,0c-0.25,0 -0.375,-0.125 -0.375,-0.375l-0,-14.25c-0,-0.25 0.125,-0.375 0.375,-0.375l2.362,0Z" style="fill:#fff;fill-rule:nonzero;"/><path d="M26.85,355.988c-0,1.599 -0.294,3.006 -0.881,4.218c-0.588,1.213 -1.407,2.15 -2.457,2.813c-1.05,0.662 -2.275,0.994 -3.675,0.994l-1.012,-0c-0.25,-0 -0.375,-0.126 -0.375,-0.375l-0,-2.775c-0,-0.251 0.125,-0.376 0.375,-0.376l0.825,0c1.225,0 2.212,-0.418 2.962,-1.256c0.75,-0.837 1.125,-1.969 1.125,-3.394c0,-1.275 -0.343,-2.281 -1.031,-3.018c-0.687,-0.738 -1.594,-1.106 -2.719,-1.106c-0.75,-0 -1.4,0.187 -1.95,0.562c-0.55,0.375 -1.062,0.919 -1.537,1.631c-0.475,0.713 -1.075,1.744 -1.8,3.094c-0.8,1.525 -1.513,2.744 -2.138,3.656c-0.625,0.913 -1.412,1.669 -2.362,2.269c-0.95,0.6 -2.1,0.9 -3.45,0.9c-2.1,0 -3.75,-0.688 -4.95,-2.063c-1.2,-1.375 -1.8,-3.2 -1.8,-5.474c-0,-1.576 0.3,-2.963 0.9,-4.163c0.6,-1.2 1.444,-2.131 2.531,-2.794c1.088,-0.662 2.344,-0.993 3.769,-0.993l0.862,-0c0.25,-0 0.375,0.124 0.375,0.374l0,2.813c0,0.25 -0.125,0.375 -0.375,0.375l-0.787,0c-1.225,0 -2.225,0.4 -3,1.2c-0.775,0.8 -1.163,1.887 -1.163,3.263c0,1.224 0.313,2.181 0.938,2.868c0.625,0.688 1.512,1.032 2.662,1.032c0.75,-0 1.388,-0.169 1.913,-0.507c0.525,-0.337 1.019,-0.856 1.481,-1.556c0.463,-0.7 1.044,-1.738 1.744,-3.113c0.975,-1.725 1.775,-3.031 2.4,-3.918c0.625,-0.888 1.387,-1.613 2.287,-2.175c0.9,-0.563 1.988,-0.844 3.263,-0.844c2.15,0 3.862,0.706 5.137,2.119c1.275,1.412 1.913,3.318 1.913,5.719Z" style="fill:#fff;fill-rule:nonzero;"/><path d="M0.3,327.863c-0,-0.251 0.125,-0.376 0.375,-0.376l2.4,0c0.25,0 0.375,0.125 0.375,0.376l-0,6.037c-0,0.1 0.05,0.15 0.15,0.15l22.575,0c0.25,0 0.375,0.125 0.375,0.375l-0,2.85c-0,0.25 -0.125,0.375 -0.375,0.375l-22.575,-0c-0.1,-0 -0.15,0.05 -0.15,0.15l-0,5.775c-0,0.25 -0.125,0.375 -0.375,0.375l-2.4,0c-0.25,0 -0.375,-0.125 -0.375,-0.375l-0,-15.712Z" style="fill:#fff;fill-rule:nonzero;"/><path d="M26.85,304.95c-0,2.375 -0.694,4.287 -2.081,5.738c-1.388,1.449 -3.219,2.175 -5.494,2.175l-11.7,-0c-2.275,-0 -4.106,-0.726 -5.494,-2.175c-1.387,-1.451 -2.081,-3.363 -2.081,-5.738c-0,-1.575 0.306,-2.962 0.919,-4.162c0.612,-1.2 1.481,-2.132 2.606,-2.794c1.125,-0.663 2.4,-0.994 3.825,-0.994l1.012,0c0.25,0 0.375,0.125 0.375,0.375l0,2.85c0,0.25 -0.125,0.375 -0.375,0.375l-1.012,0c-1.25,0 -2.269,0.394 -3.056,1.181c-0.788,0.788 -1.182,1.844 -1.182,3.169c0,1.3 0.407,2.35 1.219,3.15c0.813,0.8 1.869,1.2 3.169,1.2l11.85,0c1.3,0 2.356,-0.406 3.169,-1.219c0.812,-0.812 1.218,-1.881 1.218,-3.206c0,-1.3 -0.375,-2.338 -1.125,-3.112c-0.75,-0.776 -1.762,-1.163 -3.037,-1.163l-3.488,0c-0.1,0 -0.15,0.05 -0.15,0.15l0,3.938c0,0.249 -0.125,0.375 -0.375,0.375l-2.325,-0c-0.25,-0 -0.375,-0.126 -0.375,-0.375l0,-7.313c0,-0.25 0.125,-0.375 0.375,-0.375l5.85,0c2.425,0 4.325,0.719 5.7,2.156c1.375,1.438 2.063,3.369 2.063,5.794Z" style="fill:#fff;fill-rule:nonzero;"/><path d="M26.55,289.95c-0,0.25 -0.125,0.375 -0.375,0.375l-25.5,-0c-0.25,-0 -0.375,-0.125 -0.375,-0.375l-0,-2.85c-0,-0.25 0.125,-0.375 0.375,-0.375l22.612,-0c0.1,-0 0.15,-0.05 0.15,-0.15l0,-10.65c0,-0.25 0.125,-0.375 0.375,-0.375l2.363,-0c0.25,-0 0.375,0.125 0.375,0.375l-0,14.025Z" style="fill:#fff;fill-rule:nonzero;"/><path d="M26.887,262.875c0,1.6 -0.331,3.006 -0.993,4.219c-0.663,1.212 -1.594,2.156 -2.794,2.831c-1.2,0.675 -2.588,1.013 -4.163,1.013l-11.025,-0c-1.55,-0 -2.925,-0.338 -4.125,-1.013c-1.2,-0.675 -2.131,-1.619 -2.793,-2.831c-0.663,-1.213 -0.994,-2.619 -0.994,-4.219c-0,-1.6 0.331,-3.013 0.994,-4.237c0.662,-1.226 1.593,-2.175 2.793,-2.85c1.2,-0.675 2.575,-1.013 4.125,-1.013l11.025,0c1.575,0 2.963,0.338 4.163,1.013c1.2,0.675 2.131,1.624 2.794,2.85c0.662,1.224 0.993,2.637 0.993,4.237Zm-3.15,0c0,-1.35 -0.425,-2.437 -1.275,-3.262c-0.85,-0.825 -1.975,-1.238 -3.375,-1.238l-11.25,0c-1.4,0 -2.537,0.413 -3.412,1.238c-0.875,0.825 -1.313,1.912 -1.313,3.262c0,1.325 0.438,2.4 1.313,3.225c0.875,0.825 2.012,1.238 3.412,1.238l11.25,-0c1.375,-0 2.494,-0.413 3.357,-1.238c0.862,-0.825 1.293,-1.9 1.293,-3.225Z" style="fill:#fff;fill-rule:nonzero;"/><path d="M19.35,232.313c2.3,-0.026 4.075,0.662 5.325,2.062c1.25,1.4 1.875,3.25 1.875,5.55l-0,7.8c-0,0.25 -0.125,0.375 -0.375,0.375l-25.5,0c-0.25,0 -0.375,-0.125 -0.375,-0.375l-0,-7.387c-0,-2.426 0.594,-4.326 1.781,-5.7c1.188,-1.376 2.919,-2.063 5.194,-2.063c2.675,0 4.537,1.1 5.587,3.3c0.075,0.125 0.138,0.125 0.188,0c0.6,-1.15 1.425,-2.031 2.475,-2.644c1.05,-0.612 2.325,-0.918 3.825,-0.918Zm-15.938,12.037c0,0.1 0.05,0.15 0.15,0.15l7.913,-0c0.1,-0 0.15,-0.05 0.15,-0.15l-0,-4.05c-0,-1.3 -0.356,-2.319 -1.069,-3.056c-0.712,-0.738 -1.694,-1.106 -2.944,-1.106c-1.325,-0 -2.356,0.368 -3.093,1.106c-0.738,0.737 -1.107,1.756 -1.107,3.056l0,4.05Zm19.988,-4.275c-0,-1.3 -0.394,-2.319 -1.181,-3.056c-0.788,-0.738 -1.869,-1.106 -3.244,-1.106c-1.375,-0 -2.469,0.375 -3.281,1.125c-0.813,0.75 -1.219,1.774 -1.219,3.075l-0,4.237c-0,0.1 0.05,0.15 0.15,0.15l8.625,-0c0.1,-0 0.15,-0.05 0.15,-0.15l-0,-4.275Z" style="fill:#fff;fill-rule:nonzero;"/><path d="M26.55,213.787c-0,0.226 -0.113,0.363 -0.338,0.413l-4.35,1.125c-0.075,0.025 -0.112,0.087 -0.112,0.188l-0,8.287c-0,0.125 0.037,0.188 0.112,0.188l4.35,1.087c0.225,0.025 0.338,0.162 0.338,0.413l-0,2.925c-0,0.124 -0.038,0.218 -0.113,0.281c-0.075,0.062 -0.175,0.081 -0.3,0.056l-25.5,-6.937c-0.225,-0.051 -0.337,-0.188 -0.337,-0.413l-0,-3.525c-0,-0.225 0.112,-0.363 0.337,-0.412l25.5,-6.975l0.113,-0.038c0.2,0 0.3,0.125 0.3,0.375l-0,2.962Zm-7.8,9.413c0.025,0.025 0.056,0.019 0.094,-0.019c0.037,-0.037 0.056,-0.081 0.056,-0.131l-0,-6.787c-0,-0.051 -0.019,-0.094 -0.056,-0.132c-0.038,-0.037 -0.069,-0.044 -0.094,-0.018l-13.575,3.487c-0.05,0.025 -0.075,0.05 -0.075,0.075c-0,0.025 0.025,0.05 0.075,0.075l13.575,3.45Z" style="fill:#fff;fill-rule:nonzero;"/><path d="M26.55,204.675c-0,0.25 -0.125,0.375 -0.375,0.375l-25.5,0c-0.25,0 -0.375,-0.125 -0.375,-0.375l-0,-2.85c-0,-0.25 0.125,-0.375 0.375,-0.375l22.612,-0c0.1,-0 0.15,-0.05 0.15,-0.15l0,-10.65c0,-0.25 0.125,-0.375 0.375,-0.375l2.363,0c0.25,0 0.375,0.125 0.375,0.375l-0,14.025Z" style="fill:#fff;fill-rule:nonzero;"/><path d="M26.85,168.6c-0,1.6 -0.294,3.006 -0.881,4.219c-0.588,1.212 -1.407,2.15 -2.457,2.812c-1.05,0.663 -2.275,0.994 -3.675,0.994l-1.012,0c-0.25,0 -0.375,-0.125 -0.375,-0.375l-0,-2.775c-0,-0.25 0.125,-0.375 0.375,-0.375l0.825,-0c1.225,-0 2.212,-0.419 2.962,-1.256c0.75,-0.838 1.125,-1.969 1.125,-3.394c0,-1.275 -0.343,-2.281 -1.031,-3.019c-0.687,-0.737 -1.594,-1.106 -2.719,-1.106c-0.75,0 -1.4,0.188 -1.95,0.562c-0.55,0.375 -1.062,0.919 -1.537,1.632c-0.475,0.712 -1.075,1.743 -1.8,3.093c-0.8,1.525 -1.513,2.744 -2.138,3.657c-0.625,0.912 -1.412,1.668 -2.362,2.268c-0.95,0.601 -2.1,0.9 -3.45,0.9c-2.1,0 -3.75,-0.687 -4.95,-2.062c-1.2,-1.375 -1.8,-3.2 -1.8,-5.475c-0,-1.575 0.3,-2.963 0.9,-4.163c0.6,-1.2 1.444,-2.131 2.531,-2.793c1.088,-0.663 2.344,-0.994 3.769,-0.994l0.862,0c0.25,0 0.375,0.125 0.375,0.375l0,2.812c0,0.25 -0.125,0.376 -0.375,0.376l-0.787,-0c-1.225,-0 -2.225,0.399 -3,1.2c-0.775,0.799 -1.163,1.887 -1.163,3.262c0,1.225 0.313,2.181 0.938,2.869c0.625,0.687 1.512,1.031 2.662,1.031c0.75,0 1.388,-0.169 1.913,-0.506c0.525,-0.338 1.019,-0.857 1.481,-1.556c0.463,-0.701 1.044,-1.738 1.744,-3.113c0.975,-1.725 1.775,-3.031 2.4,-3.919c0.625,-0.887 1.387,-1.612 2.287,-2.175c0.9,-0.562 1.988,-0.843 3.263,-0.843c2.15,-0 3.862,0.706 5.137,2.118c1.275,1.413 1.913,3.319 1.913,5.719Z" style="fill:#fff;fill-rule:nonzero;"/><path d="M3.037,139.725c0.25,-0 0.375,0.125 0.375,0.375l0,10.875c0,0.1 0.05,0.15 0.15,0.15l8.1,0c0.1,0 0.15,-0.05 0.15,-0.15l0,-7.162c0,-0.251 0.125,-0.375 0.375,-0.375l2.363,-0c0.25,-0 0.375,0.124 0.375,0.375l-0,7.162c-0,0.1 0.05,0.15 0.15,0.15l8.212,0c0.1,0 0.15,-0.05 0.15,-0.15l0,-10.875c0,-0.25 0.125,-0.375 0.375,-0.375l2.363,-0c0.25,-0 0.375,0.125 0.375,0.375l-0,14.25c-0,0.25 -0.125,0.375 -0.375,0.375l-25.5,-0c-0.25,-0 -0.375,-0.125 -0.375,-0.375l-0,-14.25c-0,-0.25 0.125,-0.375 0.375,-0.375l2.362,-0Z" style="fill:#fff;fill-rule:nonzero;"/><path d="M26.55,133.163c-0,0.249 -0.125,0.374 -0.375,0.374l-25.5,0c-0.25,0 -0.375,-0.125 -0.375,-0.374l-0,-2.851c-0,-0.25 0.125,-0.375 0.375,-0.375l22.612,0c0.1,0 0.15,-0.05 0.15,-0.15l0,-10.649c0,-0.251 0.125,-0.375 0.375,-0.375l2.363,-0c0.25,-0 0.375,0.124 0.375,0.375l-0,14.025Z" style="fill:#fff;fill-rule:nonzero;"/><path d="M3.037,98.363c0.25,-0 0.375,0.124 0.375,0.375l0,10.874c0,0.1 0.05,0.15 0.15,0.15l8.1,0c0.1,0 0.15,-0.05 0.15,-0.15l0,-7.162c0,-0.25 0.125,-0.375 0.375,-0.375l2.363,0c0.25,0 0.375,0.125 0.375,0.375l-0,7.162c-0,0.1 0.05,0.15 0.15,0.15l8.212,0c0.1,0 0.15,-0.05 0.15,-0.15l0,-10.874c0,-0.251 0.125,-0.375 0.375,-0.375l2.363,-0c0.25,-0 0.375,0.124 0.375,0.375l-0,14.25c-0,0.249 -0.125,0.375 -0.375,0.375l-25.5,-0c-0.25,-0 -0.375,-0.126 -0.375,-0.375l-0,-14.25c-0,-0.251 0.125,-0.375 0.375,-0.375l2.362,-0Z" style="fill:#fff;fill-rule:nonzero;"/><path d="M26.85,84.825c-0,1.575 -0.319,2.969 -0.956,4.181c-0.638,1.213 -1.538,2.15 -2.7,2.813c-1.163,0.662 -2.507,0.993 -4.032,0.993l-11.512,0.001c-2.325,-0.001 -4.181,-0.732 -5.569,-2.194c-1.387,-1.463 -2.081,-3.394 -2.081,-5.794c-0,-2.4 0.687,-4.325 2.062,-5.775c1.375,-1.45 3.2,-2.175 5.475,-2.175l0.3,0c0.125,0 0.225,0.037 0.3,0.113c0.075,0.075 0.113,0.162 0.113,0.262l0.15,2.85c-0,0.25 -0.125,0.375 -0.375,0.375l-0.563,-0c-1.3,-0 -2.35,0.4 -3.15,1.2c-0.8,0.8 -1.2,1.85 -1.2,3.15c0,1.3 0.4,2.356 1.2,3.169c0.8,0.812 1.85,1.219 3.15,1.219l11.925,-0c1.3,-0 2.35,-0.407 3.15,-1.219c0.8,-0.813 1.2,-1.869 1.2,-3.169c0,-1.3 -0.4,-2.35 -1.2,-3.15c-0.8,-0.8 -1.85,-1.2 -3.15,-1.2l-0.525,-0c-0.25,-0 -0.375,-0.125 -0.375,-0.375l0.15,-2.85c0,-0.25 0.125,-0.375 0.375,-0.375l0.263,0c1.5,0 2.825,0.331 3.975,0.994c1.15,0.662 2.037,1.594 2.662,2.793c0.625,1.201 0.938,2.588 0.938,4.163Z" style="fill:#fff;fill-rule:nonzero;"/><path d="M0.3,55.912c-0,-0.25 0.125,-0.375 0.375,-0.375l2.4,0c0.25,0 0.375,0.125 0.375,0.375l-0,6.038c-0,0.1 0.05,0.15 0.15,0.15l22.575,-0c0.25,-0 0.375,0.125 0.375,0.375l-0,2.85c-0,0.25 -0.125,0.375 -0.375,0.375l-22.575,-0c-0.1,-0 -0.15,0.05 -0.15,0.15l-0,5.775c-0,0.25 -0.125,0.375 -0.375,0.375l-2.4,-0c-0.25,-0 -0.375,-0.125 -0.375,-0.375l-0,-15.713Z" style="fill:#fff;fill-rule:nonzero;"/><path d="M26.55,49.313c-0,0.249 -0.125,0.374 -0.375,0.374l-25.5,0c-0.25,0 -0.375,-0.125 -0.375,-0.375l-0,-2.849c-0,-0.251 0.125,-0.375 0.375,-0.375l25.5,-0c0.25,-0 0.375,0.124 0.375,0.375l-0,2.849Z" style="fill:#fff;fill-rule:nonzero;"/><path d="M26.887,31.388c0,1.599 -0.331,3.006 -0.993,4.218c-0.663,1.213 -1.594,2.157 -2.794,2.832c-1.2,0.675 -2.588,1.012 -4.163,1.012l-11.025,0c-1.55,0 -2.925,-0.337 -4.125,-1.012c-1.2,-0.675 -2.131,-1.619 -2.793,-2.832c-0.663,-1.212 -0.994,-2.619 -0.994,-4.218c-0,-1.601 0.331,-3.013 0.994,-4.238c0.662,-1.225 1.593,-2.175 2.793,-2.85c1.2,-0.675 2.575,-1.012 4.125,-1.012l11.025,-0c1.575,-0 2.963,0.337 4.163,1.012c1.2,0.675 2.131,1.625 2.794,2.85c0.662,1.225 0.993,2.637 0.993,4.238Zm-3.15,-0c0,-1.35 -0.425,-2.438 -1.275,-3.263c-0.85,-0.825 -1.975,-1.237 -3.375,-1.237l-11.25,-0c-1.4,-0 -2.537,0.412 -3.412,1.237c-0.875,0.825 -1.313,1.913 -1.313,3.263c0,1.324 0.438,2.4 1.313,3.225c0.875,0.825 2.012,1.237 3.412,1.237l11.25,0c1.375,0 2.494,-0.413 3.357,-1.237c0.862,-0.825 1.293,-1.901 1.293,-3.225Z" style="fill:#fff;fill-rule:nonzero;"/><path d="M0.675,3.6c-0.25,0 -0.375,-0.125 -0.375,-0.375l-0,-2.85c-0,-0.25 0.125,-0.375 0.375,-0.375l25.5,0c0.25,0 0.375,0.125 0.375,0.375l-0,3c-0,0.225 -0.088,0.375 -0.263,0.45l-18.187,9.038c-0.05,0.049 -0.075,0.093 -0.075,0.131c-0,0.037 0.037,0.056 0.112,0.056l18.038,-0.037c0.25,-0 0.375,0.124 0.375,0.375l-0,2.85c-0,0.249 -0.125,0.375 -0.375,0.375l-25.5,-0c-0.25,-0 -0.375,-0.126 -0.375,-0.375l-0,-3c-0,-0.225 0.087,-0.375 0.262,-0.45l18.188,-9c0.05,-0.051 0.075,-0.094 0.075,-0.132c-0,-0.037 -0.038,-0.056 -0.113,-0.056l-18.037,0Z" style="fill:#fff;fill-rule:nonzero;"/></g></svg>