<?xml version="1.0" encoding="UTF-8" standalone="no"?><!DOCTYPE svg PUBLIC "-//W3C//DTD SVG 1.1//EN" "http://www.w3.org/Graphics/SVG/1.1/DTD/svg11.dtd"><svg width="100%" height="100%" viewBox="0 0 112 1761" version="1.1" xmlns="http://www.w3.org/2000/svg" xmlns:xlink="http://www.w3.org/1999/xlink" xml:space="preserve" xmlns:serif="http://www.serif.com/" style="fill-rule:evenodd;clip-rule:evenodd;stroke-linejoin:round;stroke-miterlimit:2;"><g><path d="M12.656,1697.66c1.042,0 1.563,0.521 1.563,1.563l-0,45.312c-0,0.417 0.208,0.625 0.625,0.625l33.75,0c0.416,0 0.625,-0.208 0.625,-0.625l-0,-29.843c-0,-1.042 0.521,-1.563 1.562,-1.563l9.844,0c1.042,0 1.562,0.521 1.562,1.563l0,29.843c0,0.417 0.209,0.625 0.625,0.625l34.219,0c0.417,0 0.625,-0.208 0.625,-0.625l0,-45.312c0,-1.042 0.521,-1.563 1.563,-1.563l9.843,0c1.042,0 1.563,0.521 1.563,1.563l-0,59.375c-0,1.041 -0.521,1.562 -1.563,1.562l-106.25,0c-1.041,0 -1.562,-0.521 -1.562,-1.562l-0,-59.375c-0,-1.042 0.521,-1.563 1.562,-1.563l9.844,0Z" style="fill:#fff;fill-rule:nonzero;"/><path d="M2.812,1617.66c-1.041,0 -1.562,-0.521 -1.562,-1.562l-0,-11.875c-0,-1.042 0.521,-1.563 1.562,-1.563l106.25,0c1.042,0 1.563,0.521 1.563,1.563l-0,12.5c-0,0.937 -0.365,1.562 -1.094,1.875l-75.781,37.656c-0.208,0.208 -0.313,0.391 -0.313,0.547c0,0.156 0.157,0.234 0.469,0.234l75.156,-0.156c1.042,0 1.563,0.521 1.563,1.563l-0,11.875c-0,1.041 -0.521,1.562 -1.563,1.562l-106.25,0c-1.041,0 -1.562,-0.521 -1.562,-1.562l-0,-12.5c-0,-0.938 0.365,-1.563 1.094,-1.875l75.781,-37.501c0.208,-0.208 0.312,-0.39 0.312,-0.546c0,-0.157 -0.156,-0.235 -0.468,-0.235l-75.157,0Z" style="fill:#fff;fill-rule:nonzero;"/><path d="M2.812,1522.03c-1.041,0 -1.562,-0.521 -1.562,-1.562l-0,-11.875c-0,-1.042 0.521,-1.563 1.562,-1.563l106.25,0c1.042,0 1.563,0.521 1.563,1.563l-0,11.875c-0,1.041 -0.521,1.562 -1.563,1.562l-46.25,0c-0.416,0 -0.625,0.209 -0.625,0.625l0,34.063c0,0.416 0.209,0.625 0.625,0.625l46.25,-0c1.042,-0 1.563,0.521 1.563,1.562l-0,11.875c-0,1.042 -0.521,1.563 -1.563,1.563l-106.25,-0c-1.041,-0 -1.562,-0.521 -1.562,-1.563l-0,-11.875c-0,-1.041 0.521,-1.562 1.562,-1.562l45.782,-0c0.416,-0 0.625,-0.209 0.625,-0.625l-0,-34.063c-0,-0.416 -0.209,-0.625 -0.625,-0.625l-45.782,0Z" style="fill:#fff;fill-rule:nonzero;"/><path d="M110.625,1421.88c-0,0.938 -0.469,1.51 -1.406,1.719l-18.125,4.687c-0.313,0.104 -0.469,0.365 -0.469,0.782l-0,34.531c-0,0.521 0.156,0.781 0.469,0.781l18.125,4.531c0.937,0.104 1.406,0.677 1.406,1.719l-0,12.188c-0,0.52 -0.156,0.911 -0.469,1.171c-0.312,0.261 -0.729,0.339 -1.25,0.235l-106.25,-28.906c-0.937,-0.209 -1.406,-0.782 -1.406,-1.719l-0,-14.688c-0,-0.937 0.469,-1.51 1.406,-1.718l106.25,-29.063l0.469,-0.156c0.833,-0 1.25,0.521 1.25,1.562l-0,12.344Zm-32.5,39.219c0.104,0.104 0.234,0.078 0.391,-0.078c0.156,-0.157 0.234,-0.339 0.234,-0.547l-0,-28.281c-0,-0.209 -0.078,-0.391 -0.234,-0.547c-0.157,-0.157 -0.287,-0.183 -0.391,-0.078l-56.563,14.531c-0.208,0.104 -0.312,0.208 -0.312,0.312c-0,0.104 0.104,0.209 0.312,0.313l56.563,14.375Z" style="fill:#fff;fill-rule:nonzero;"/><path d="M2.812,1331.25c-1.041,0 -1.562,-0.521 -1.562,-1.563l-0,-11.874c-0,-1.042 0.521,-1.563 1.562,-1.563l106.25,0c1.042,0 1.563,0.521 1.563,1.563l-0,12.5c-0,0.937 -0.365,1.562 -1.094,1.875l-75.781,37.656c-0.208,0.208 -0.313,0.39 -0.313,0.547c0,0.156 0.157,0.234 0.469,0.234l75.156,-0.156c1.042,-0 1.563,0.521 1.563,1.562l-0,11.875c-0,1.042 -0.521,1.563 -1.563,1.563l-106.25,-0c-1.041,-0 -1.562,-0.521 -1.562,-1.563l-0,-12.5c-0,-0.937 0.365,-1.562 1.094,-1.875l75.781,-37.5c0.208,-0.208 0.312,-0.39 0.312,-0.547c0,-0.156 -0.156,-0.234 -0.468,-0.234l-75.157,0Z" style="fill:#fff;fill-rule:nonzero;"/><path d="M111.875,1255.31c-0,6.562 -1.328,12.369 -3.984,17.421c-2.657,5.052 -6.407,8.959 -11.25,11.719c-4.844,2.761 -10.443,4.141 -16.797,4.141l-47.969,-0c-9.688,-0 -17.422,-3.047 -23.203,-9.141c-5.781,-6.094 -8.672,-14.14 -8.672,-24.14c-0,-10 2.865,-18.021 8.594,-24.063c5.729,-6.042 13.333,-9.063 22.812,-9.063l1.25,0.001c0.521,-0 0.938,0.156 1.25,0.468c0.313,0.313 0.469,0.677 0.469,1.094l0.625,11.875c-0,1.042 -0.521,1.563 -1.563,1.563l-2.343,-0.001c-5.417,0 -9.792,1.667 -13.125,5c-3.334,3.334 -5,7.709 -5,13.126c-0,5.416 1.666,9.817 5,13.203c3.333,3.385 7.708,5.078 13.125,5.078l49.687,-0c5.417,-0 9.792,-1.693 13.125,-5.078c3.334,-3.386 5,-7.787 5,-13.203c0,-5.417 -1.666,-9.792 -5,-13.126c-3.333,-3.333 -7.708,-5 -13.125,-5l-2.187,0c-1.042,0 -1.563,-0.52 -1.563,-1.562l0.625,-11.875c0,-1.042 0.521,-1.563 1.563,-1.563l1.093,0c6.25,0 11.771,1.381 16.563,4.141c4.792,2.761 8.49,6.641 11.094,11.641c2.604,5 3.906,10.781 3.906,17.344Z" style="fill:#fff;fill-rule:nonzero;"/><path d="M110.625,1193.75c-0,1.042 -0.521,1.563 -1.563,1.563l-106.25,-0.001c-1.041,0 -1.562,-0.52 -1.562,-1.562l-0,-11.875c-0,-1.042 0.521,-1.563 1.562,-1.563l106.25,0c1.042,0 1.563,0.521 1.563,1.563l-0,11.875Z" style="fill:#fff;fill-rule:nonzero;"/><path d="M2.812,1095.78c-1.041,0 -1.562,-0.521 -1.562,-1.562l-0,-11.875c-0,-1.042 0.521,-1.563 1.562,-1.563l106.25,0c1.042,0 1.563,0.521 1.563,1.563l-0,12.5c-0,0.937 -0.365,1.562 -1.094,1.875l-75.781,37.656c-0.208,0.208 -0.313,0.391 -0.313,0.547c0,0.156 0.157,0.234 0.469,0.234l75.156,-0.156c1.042,0 1.563,0.521 1.563,1.563l-0,11.874c-0,1.042 -0.521,1.563 -1.563,1.563l-106.25,-0c-1.041,-0 -1.562,-0.521 -1.562,-1.563l-0,-12.5c-0,-0.937 0.365,-1.562 1.094,-1.875l75.781,-37.5c0.208,-0.208 0.312,-0.39 0.312,-0.546c0,-0.157 -0.156,-0.235 -0.468,-0.235l-75.157,0Z" style="fill:#fff;fill-rule:nonzero;"/><path d="M111.875,1020c-0,9.896 -2.891,17.865 -8.672,23.906c-5.781,6.042 -13.411,9.063 -22.891,9.063l-48.75,-0c-9.479,-0 -17.109,-3.021 -22.89,-9.063c-5.781,-6.041 -8.672,-14.01 -8.672,-23.906c-0,-6.562 1.276,-12.344 3.828,-17.344c2.552,-5 6.172,-8.88 10.859,-11.64c4.688,-2.761 10,-4.141 15.938,-4.141l4.219,0c1.041,0 1.562,0.521 1.562,1.563l0,11.875c0,1.041 -0.521,1.562 -1.562,1.562l-4.219,0c-5.208,0 -9.453,1.641 -12.734,4.922c-3.282,3.281 -4.922,7.682 -4.922,13.203c-0,5.417 1.692,9.792 5.078,13.125c3.385,3.333 7.786,5 13.203,5l49.375,0c5.417,0 9.818,-1.693 13.203,-5.078c3.386,-3.386 5.078,-7.839 5.078,-13.359c0,-5.417 -1.562,-9.74 -4.687,-12.969c-3.125,-3.229 -7.344,-4.844 -12.657,-4.844l-14.531,0c-0.416,0 -0.625,0.208 -0.625,0.625l0,16.406c0,1.042 -0.521,1.563 -1.562,1.563l-9.688,-0c-1.041,-0 -1.562,-0.521 -1.562,-1.563l-0,-30.468c-0,-1.042 0.521,-1.563 1.562,-1.563l24.375,0c10.104,0 18.021,2.995 23.75,8.984c5.729,5.99 8.594,14.037 8.594,24.141Z" style="fill:#fff;fill-rule:nonzero;"/><path d="M12.656,857.5c1.042,0 1.563,0.521 1.563,1.563l-0,45.312c-0,0.417 0.208,0.625 0.625,0.625l33.75,0c0.416,0 0.625,-0.208 0.625,-0.625l-0,-29.844c-0,-1.041 0.521,-1.562 1.562,-1.562l9.844,-0c1.042,-0 1.562,0.521 1.562,1.562l0,29.844c0,0.417 0.209,0.625 0.625,0.625l34.219,0c0.417,0 0.625,-0.208 0.625,-0.625l0,-45.312c0,-1.042 0.521,-1.563 1.563,-1.563l9.843,0c1.042,0 1.563,0.521 1.563,1.563l-0,59.375c-0,1.041 -0.521,1.562 -1.563,1.562l-106.25,0c-1.041,0 -1.562,-0.521 -1.562,-1.562l-0,-59.375c-0,-1.042 0.521,-1.563 1.562,-1.563l9.844,0Z" style="fill:#fff;fill-rule:nonzero;"/><path d="M110.625,836.406c-0,0.521 -0.182,0.886 -0.547,1.094c-0.364,0.208 -0.807,0.208 -1.328,0l-52.344,-27.031c-0.312,-0.209 -0.625,-0.209 -0.937,-0l-52.344,27.031c-0.208,0.104 -0.469,0.156 -0.781,0.156c-0.729,0 -1.094,-0.416 -1.094,-1.25l-0,-12.656c-0,-0.937 0.365,-1.562 1.094,-1.875l39.531,-19.688c0.208,-0.104 0.312,-0.26 0.312,-0.468c0,-0.209 -0.104,-0.365 -0.312,-0.469l-39.531,-19.375c-0.729,-0.312 -1.094,-0.937 -1.094,-1.875l-0,-12.656c-0,-0.521 0.182,-0.886 0.547,-1.094c0.364,-0.208 0.807,-0.208 1.328,0l52.5,27.031c0.312,0.104 0.625,0.104 0.937,0l52.188,-27.031c0.208,-0.104 0.469,-0.156 0.781,-0.156c0.729,-0 1.094,0.416 1.094,1.25l-0,12.5c-0,0.937 -0.365,1.562 -1.094,1.875l-39.531,19.531c-0.208,0.104 -0.313,0.26 -0.313,0.469c0,0.208 0.105,0.364 0.313,0.468l39.531,19.688c0.729,0.313 1.094,0.938 1.094,1.875l-0,12.656Z" style="fill:#fff;fill-rule:nonzero;"/><path d="M1.094,706.094c-0,-8.854 2.89,-15.964 8.672,-21.328c5.781,-5.365 13.411,-8.047 22.89,-8.047c9.271,-0 16.745,2.682 22.422,8.047c5.677,5.364 8.516,12.474 8.516,21.328l-0,20.937c-0,0.417 0.208,0.625 0.625,0.625l44.843,0c1.042,0 1.563,0.521 1.563,1.563l-0,11.875c-0,1.041 -0.521,1.562 -1.563,1.562l-106.406,0c-1.041,0 -1.562,-0.521 -1.562,-1.562l-0,-35Zm50.468,2.187c0,-5 -1.692,-9.036 -5.078,-12.109c-3.385,-3.073 -7.89,-4.609 -13.515,-4.609c-5.729,-0 -10.313,1.536 -13.75,4.609c-3.438,3.073 -5.157,7.109 -5.157,12.109l0,18.75c0,0.417 0.209,0.625 0.625,0.625l36.25,0c0.417,0 0.625,-0.208 0.625,-0.625l0,-18.75Z" style="fill:#fff;fill-rule:nonzero;"/><path d="M12.656,590.313c1.042,-0 1.563,0.52 1.563,1.562l-0,45.313c-0,0.416 0.208,0.625 0.625,0.625l33.75,-0c0.416,-0 0.625,-0.209 0.625,-0.625l-0,-29.844c-0,-1.042 0.521,-1.563 1.562,-1.563l9.844,0c1.042,0 1.562,0.521 1.562,1.563l0,29.844c0,0.416 0.209,0.625 0.625,0.625l34.219,-0c0.417,-0 0.625,-0.209 0.625,-0.625l0,-45.313c0,-1.042 0.521,-1.563 1.563,-1.563l9.843,0c1.042,0 1.563,0.521 1.563,1.563l-0,59.375c-0,1.042 -0.521,1.563 -1.563,1.563l-106.25,-0c-1.041,-0 -1.562,-0.521 -1.562,-1.563l-0,-59.375c-0,-1.042 0.521,-1.563 1.562,-1.563l9.844,0Z" style="fill:#fff;fill-rule:nonzero;"/><path d="M110.625,511.719c-0,0.833 -0.417,1.406 -1.25,1.719l-46.563,18.125c-0.312,0.104 -0.468,0.312 -0.468,0.625l-0,16.718c-0,0.417 0.208,0.625 0.625,0.625l46.093,0c1.042,0 1.563,0.521 1.563,1.563l-0,11.875c-0,1.041 -0.521,1.562 -1.563,1.562l-106.25,0c-1.041,0 -1.562,-0.521 -1.562,-1.562l-0,-35c-0,-8.75 2.865,-15.781 8.594,-21.094c5.729,-5.312 13.229,-7.969 22.5,-7.969c6.979,0 12.968,1.615 17.968,4.844c5,3.229 8.438,7.656 10.313,13.281c0.104,0.313 0.365,0.417 0.781,0.313l47.344,-19.063l0.625,-0.156c0.833,0 1.25,0.469 1.25,1.406l-0,12.188Zm-96.406,37.187c-0,0.417 0.208,0.625 0.625,0.625l35,0c0.416,0 0.625,-0.208 0.625,-0.625l-0,-18.906c-0,-4.792 -1.641,-8.672 -4.922,-11.641c-3.281,-2.968 -7.63,-4.453 -13.047,-4.453c-5.521,0 -9.948,1.459 -13.281,4.375c-3.334,2.917 -5,6.823 -5,11.719l-0,18.906Z" style="fill:#fff;fill-rule:nonzero;"/><path d="M110.625,471.875c-0,1.042 -0.521,1.563 -1.563,1.563l-106.25,-0c-1.041,-0 -1.562,-0.521 -1.562,-1.563l-0,-11.875c-0,-1.042 0.521,-1.563 1.562,-1.563l106.25,0c1.042,0 1.563,0.521 1.563,1.563l-0,11.875Z" style="fill:#fff;fill-rule:nonzero;"/><path d="M12.656,365.625c1.042,0 1.563,0.521 1.563,1.563l-0,45.312c-0,0.417 0.208,0.625 0.625,0.625l33.75,0c0.416,0 0.625,-0.208 0.625,-0.625l-0,-29.844c-0,-1.041 0.521,-1.562 1.562,-1.562l9.844,-0c1.042,-0 1.562,0.521 1.562,1.562l0,29.844c0,0.417 0.209,0.625 0.625,0.625l34.219,0c0.417,0 0.625,-0.208 0.625,-0.625l0,-45.312c0,-1.042 0.521,-1.563 1.563,-1.563l9.843,0c1.042,0 1.563,0.521 1.563,1.563l-0,59.375c-0,1.041 -0.521,1.562 -1.563,1.562l-106.25,0c-1.041,0 -1.562,-0.521 -1.562,-1.562l-0,-59.375c-0,-1.042 0.521,-1.563 1.562,-1.563l9.844,0Z" style="fill:#fff;fill-rule:nonzero;"/><path d="M2.812,285.625c-1.041,0 -1.562,-0.521 -1.562,-1.562l-0,-11.875c-0,-1.042 0.521,-1.563 1.562,-1.563l106.25,0c1.042,0 1.563,0.521 1.563,1.563l-0,12.5c-0,0.937 -0.365,1.562 -1.094,1.875l-75.781,37.656c-0.208,0.208 -0.313,0.39 -0.313,0.547c0,0.156 0.157,0.234 0.469,0.234l75.156,-0.156c1.042,-0 1.563,0.521 1.563,1.562l-0,11.875c-0,1.042 -0.521,1.563 -1.563,1.563l-106.25,-0c-1.041,-0 -1.562,-0.521 -1.562,-1.563l-0,-12.5c-0,-0.937 0.365,-1.562 1.094,-1.875l75.781,-37.5c0.208,-0.208 0.312,-0.39 0.312,-0.547c0,-0.156 -0.156,-0.234 -0.468,-0.234l-75.157,0Z" style="fill:#fff;fill-rule:nonzero;"/><path d="M111.875,209.688c-0,6.562 -1.328,12.369 -3.984,17.421c-2.657,5.052 -6.407,8.959 -11.25,11.719c-4.844,2.761 -10.443,4.141 -16.797,4.141l-47.969,-0c-9.688,-0 -17.422,-3.047 -23.203,-9.141c-5.781,-6.094 -8.672,-14.141 -8.672,-24.141c-0,-10 2.865,-18.02 8.594,-24.062c5.729,-6.042 13.333,-9.063 22.812,-9.063l1.25,0c0.521,0 0.938,0.157 1.25,0.469c0.313,0.313 0.469,0.677 0.469,1.094l0.625,11.875c-0,1.042 -0.521,1.563 -1.563,1.563l-2.343,-0c-5.417,-0 -9.792,1.666 -13.125,5c-3.334,3.333 -5,7.708 -5,13.125c-0,5.416 1.666,9.817 5,13.203c3.333,3.385 7.708,5.078 13.125,5.078l49.687,-0c5.417,-0 9.792,-1.693 13.125,-5.078c3.334,-3.386 5,-7.787 5,-13.203c0,-5.417 -1.666,-9.792 -5,-13.125c-3.333,-3.334 -7.708,-5 -13.125,-5l-2.187,-0c-1.042,-0 -1.563,-0.521 -1.563,-1.563l0.625,-11.875c0,-1.042 0.521,-1.563 1.563,-1.563l1.093,0c6.25,0 11.771,1.381 16.563,4.141c4.792,2.761 8.49,6.641 11.094,11.641c2.604,5 3.906,10.781 3.906,17.344Z" style="fill:#fff;fill-rule:nonzero;"/><path d="M12.656,87.188c1.042,-0.001 1.563,0.52 1.563,1.562l-0,45.313c-0,0.416 0.208,0.625 0.625,0.625l33.75,-0c0.416,-0 0.625,-0.209 0.625,-0.625l-0,-29.844c-0,-1.042 0.521,-1.563 1.562,-1.563l9.844,0c1.042,0 1.562,0.521 1.562,1.563l0,29.844c0,0.416 0.209,0.625 0.625,0.625l34.219,-0c0.417,-0 0.625,-0.209 0.625,-0.625l0,-45.313c0,-1.042 0.521,-1.562 1.563,-1.562l9.843,-0c1.042,-0 1.563,0.52 1.563,1.562l-0,59.375c-0,1.042 -0.521,1.563 -1.563,1.563l-106.25,-0c-1.041,-0 -1.562,-0.521 -1.562,-1.563l-0,-59.375c-0,-1.042 0.521,-1.563 1.562,-1.563l9.844,0.001Z" style="fill:#fff;fill-rule:nonzero;"/><path d="M111.875,32.656c-0,6.667 -1.224,12.526 -3.672,17.578c-2.448,5.052 -5.859,8.959 -10.234,11.719c-4.375,2.761 -9.479,4.141 -15.313,4.141l-4.219,-0c-1.041,-0 -1.562,-0.521 -1.562,-1.563l-0,-11.562c-0,-1.042 0.521,-1.563 1.562,-1.563l3.438,0c5.104,0 9.219,-1.745 12.344,-5.234c3.125,-3.49 4.687,-8.203 4.687,-14.141c0,-5.312 -1.432,-9.505 -4.297,-12.578c-2.864,-3.073 -6.64,-4.609 -11.328,-4.609c-3.125,-0 -5.833,0.781 -8.125,2.344c-2.291,1.562 -4.427,3.828 -6.406,6.796c-1.979,2.969 -4.479,7.266 -7.5,12.891c-3.333,6.354 -6.302,11.432 -8.906,15.234c-2.604,3.802 -5.886,6.954 -9.844,9.454c-3.958,2.5 -8.75,3.75 -14.375,3.75c-8.75,-0 -15.625,-2.865 -20.625,-8.594c-5,-5.729 -7.5,-13.334 -7.5,-22.813c-0,-6.562 1.25,-12.343 3.75,-17.343c2.5,-5 6.016,-8.881 10.547,-11.641c4.531,-2.761 9.765,-4.141 15.703,-4.141l3.594,0c1.041,0 1.562,0.521 1.562,1.563l0,11.719c0,1.041 -0.521,1.562 -1.562,1.562l-3.282,0c-5.104,0 -9.27,1.667 -12.5,5c-3.229,3.333 -4.843,7.865 -4.843,13.594c-0,5.104 1.302,9.088 3.906,11.953c2.604,2.864 6.302,4.297 11.094,4.297c3.125,-0 5.781,-0.703 7.968,-2.11c2.188,-1.406 4.245,-3.567 6.172,-6.484c1.927,-2.917 4.349,-7.24 7.266,-12.969c4.062,-7.187 7.396,-12.63 10,-16.328c2.604,-3.698 5.781,-6.719 9.531,-9.062c3.75,-2.344 8.281,-3.516 13.594,-3.516c8.958,0 16.094,2.943 21.406,8.828c5.313,5.886 7.969,13.828 7.969,23.828Z" style="fill:#fff;fill-rule:nonzero;"/></g></svg>