<?xml version="1.0" encoding="UTF-8" standalone="no"?><!DOCTYPE svg PUBLIC "-//W3C//DTD SVG 1.1//EN" "http://www.w3.org/Graphics/SVG/1.1/DTD/svg11.dtd"><svg width="100%" height="100%" viewBox="0 0 26 26" version="1.1" xmlns="http://www.w3.org/2000/svg" xmlns:xlink="http://www.w3.org/1999/xlink" xml:space="preserve" xmlns:serif="http://www.serif.com/" style="fill-rule:evenodd;clip-rule:evenodd;stroke-linejoin:round;stroke-miterlimit:2;"><path d="M23.407,18.112c-0,2.924 -2.371,5.295 -5.295,5.295l-10.287,-0c-2.924,-0 -5.295,-2.371 -5.295,-5.295l0,-10.287c0,-2.924 2.371,-5.295 5.295,-5.295l10.287,0c2.924,0 5.295,2.371 5.295,5.295l-0,10.287Zm2.53,-10.403c0,-4.258 -3.451,-7.709 -7.709,-7.709l-10.519,0c-4.258,0 -7.709,3.451 -7.709,7.709l0,10.519c0,4.258 3.451,7.709 7.709,7.709l10.519,0c4.258,0 7.709,-3.451 7.709,-7.709l0,-10.519Zm-8.744,5.077c0,-2.232 -1.816,-4.048 -4.048,-4.048c-2.232,-0 -4.049,1.816 -4.049,4.048c0,2.232 1.817,4.049 4.049,4.049c2.232,-0 4.048,-1.817 4.048,-4.049m2.272,0c0,3.484 -2.835,6.32 -6.32,6.32c-3.485,-0 -6.32,-2.836 -6.32,-6.32c0,-3.485 2.835,-6.32 6.32,-6.32c3.485,-0 6.32,2.835 6.32,6.32m1.874,-6.745c-0,0.831 -0.674,1.505 -1.505,1.505c-0.831,-0 -1.504,-0.674 -1.504,-1.505c-0,-0.831 0.673,-1.504 1.504,-1.504c0.831,-0 1.505,0.673 1.505,1.504" style="fill:#283845;fill-rule:nonzero;"/></svg>