<?xml version="1.0" encoding="UTF-8" standalone="no"?><!DOCTYPE svg PUBLIC "-//W3C//DTD SVG 1.1//EN" "http://www.w3.org/Graphics/SVG/1.1/DTD/svg11.dtd"><svg width="100%" height="100%" viewBox="0 0 27 321" version="1.1" xmlns="http://www.w3.org/2000/svg" xmlns:xlink="http://www.w3.org/1999/xlink" xml:space="preserve" xmlns:serif="http://www.serif.com/" style="fill-rule:evenodd;clip-rule:evenodd;stroke-linejoin:round;stroke-miterlimit:2;"><g><path d="M26.85,312.712c-0,1.575 -0.319,2.969 -0.956,4.182c-0.638,1.212 -1.538,2.15 -2.7,2.812c-1.163,0.663 -2.507,0.994 -4.031,0.994l-11.513,-0c-2.325,-0 -4.181,-0.731 -5.569,-2.194c-1.387,-1.462 -2.081,-3.394 -2.081,-5.794c0,-2.4 0.687,-4.325 2.063,-5.775c1.374,-1.45 3.199,-2.175 5.475,-2.175l0.3,0c0.124,0 0.225,0.038 0.3,0.113c0.075,0.075 0.112,0.162 0.112,0.262l0.15,2.85c0,0.25 -0.125,0.375 -0.375,0.375l-0.562,0c-1.301,0 -2.351,0.4 -3.15,1.2c-0.801,0.8 -1.2,1.85 -1.2,3.15c-0,1.3 0.399,2.357 1.2,3.169c0.799,0.813 1.849,1.219 3.15,1.219l11.925,-0c1.299,-0 2.349,-0.406 3.15,-1.219c0.799,-0.812 1.2,-1.869 1.2,-3.169c-0,-1.3 -0.401,-2.35 -1.2,-3.15c-0.801,-0.8 -1.851,-1.2 -3.15,-1.2l-0.525,0c-0.251,0 -0.375,-0.125 -0.375,-0.375l0.15,-2.85c-0,-0.25 0.124,-0.375 0.375,-0.375l0.262,0c1.5,0 2.825,0.332 3.975,0.994c1.15,0.663 2.037,1.594 2.663,2.794c0.624,1.2 0.937,2.587 0.937,4.162Z" style="fill:#fff;fill-rule:nonzero;"/><path d="M26.85,290.55c-0,1.575 -0.331,2.969 -0.994,4.181c-0.662,1.213 -1.6,2.15 -2.812,2.813c-1.213,0.662 -2.619,0.993 -4.219,0.993l-18.15,0c-0.25,0 -0.375,-0.125 -0.375,-0.375l0,-2.85c0,-0.25 0.125,-0.374 0.375,-0.374l18.375,-0c1.4,-0 2.531,-0.407 3.394,-1.219c0.862,-0.813 1.294,-1.869 1.294,-3.169c-0,-1.325 -0.432,-2.394 -1.294,-3.206c-0.863,-0.813 -1.994,-1.219 -3.394,-1.219l-18.375,0c-0.25,0 -0.375,-0.125 -0.375,-0.375l0,-2.85c0,-0.25 0.125,-0.375 0.375,-0.375l18.15,-0c1.6,-0 3.006,0.331 4.219,0.994c1.212,0.662 2.15,1.6 2.812,2.812c0.663,1.213 0.994,2.619 0.994,4.219Z" style="fill:#fff;fill-rule:nonzero;"/><path d="M26.85,268.575c-0,1.6 -0.294,3.006 -0.881,4.219c-0.588,1.212 -1.406,2.15 -2.456,2.812c-1.05,0.663 -2.276,0.994 -3.675,0.994l-1.013,-0c-0.25,-0 -0.375,-0.125 -0.375,-0.375l0,-2.775c0,-0.25 0.125,-0.375 0.375,-0.375l0.825,-0c1.225,-0 2.213,-0.419 2.963,-1.256c0.75,-0.838 1.125,-1.969 1.125,-3.394c-0,-1.275 -0.344,-2.281 -1.032,-3.019c-0.687,-0.737 -1.593,-1.106 -2.718,-1.106c-0.75,-0 -1.401,0.187 -1.95,0.562c-0.551,0.375 -1.063,0.919 -1.538,1.632c-0.475,0.712 -1.075,1.743 -1.8,3.093c-0.8,1.525 -1.513,2.744 -2.137,3.657c-0.626,0.912 -1.413,1.668 -2.363,2.268c-0.95,0.6 -2.1,0.9 -3.45,0.9c-2.1,0 -3.75,-0.687 -4.95,-2.062c-1.2,-1.375 -1.8,-3.2 -1.8,-5.475c0,-1.575 0.3,-2.963 0.9,-4.163c0.6,-1.2 1.444,-2.131 2.531,-2.793c1.088,-0.663 2.344,-0.994 3.769,-0.994l0.863,-0c0.249,-0 0.375,0.125 0.375,0.375l-0,2.812c-0,0.25 -0.126,0.375 -0.375,0.375l-0.788,0c-1.225,0 -2.225,0.4 -3,1.201c-0.775,0.799 -1.162,1.887 -1.162,3.262c-0,1.225 0.312,2.181 0.937,2.869c0.625,0.687 1.512,1.031 2.663,1.031c0.75,-0 1.387,-0.169 1.912,-0.506c0.525,-0.338 1.019,-0.857 1.481,-1.557c0.463,-0.7 1.044,-1.737 1.744,-3.112c0.975,-1.725 1.775,-3.031 2.4,-3.919c0.625,-0.887 1.388,-1.612 2.288,-2.175c0.9,-0.562 1.987,-0.844 3.262,-0.844c2.15,0 3.863,0.707 5.138,2.119c1.275,1.413 1.912,3.319 1.912,5.719Z" style="fill:#fff;fill-rule:nonzero;"/><path d="M0.3,240.45c0,-0.25 0.125,-0.375 0.375,-0.375l2.4,-0c0.25,-0 0.375,0.125 0.375,0.375l0,6.037c0,0.1 0.05,0.15 0.15,0.15l22.575,0c0.25,0 0.375,0.125 0.375,0.375l0,2.85c0,0.25 -0.125,0.375 -0.375,0.375l-22.575,0c-0.1,0 -0.15,0.05 -0.15,0.15l0,5.775c0,0.25 -0.125,0.375 -0.375,0.375l-2.4,0c-0.25,0 -0.375,-0.125 -0.375,-0.375l0,-15.712Z" style="fill:#fff;fill-rule:nonzero;"/><path d="M26.888,228.075c-0.001,1.6 -0.332,3.006 -0.994,4.219c-0.663,1.212 -1.594,2.156 -2.794,2.831c-1.2,0.675 -2.587,1.012 -4.162,1.012l-11.025,0c-1.551,0 -2.925,-0.337 -4.125,-1.012c-1.2,-0.675 -2.132,-1.619 -2.794,-2.831c-0.663,-1.213 -0.994,-2.619 -0.994,-4.219c0,-1.6 0.331,-3.013 0.994,-4.238c0.662,-1.225 1.594,-2.175 2.794,-2.85c1.2,-0.675 2.574,-1.012 4.125,-1.012l11.025,-0c1.575,-0 2.962,0.337 4.162,1.012c1.2,0.675 2.131,1.625 2.794,2.85c0.662,1.225 0.993,2.638 0.994,4.238Zm-3.15,-0c-0,-1.35 -0.426,-2.438 -1.275,-3.263c-0.851,-0.825 -1.976,-1.237 -3.375,-1.237l-11.25,-0c-1.401,-0 -2.538,0.412 -3.413,1.237c-0.875,0.825 -1.312,1.913 -1.312,3.263c-0,1.325 0.437,2.4 1.312,3.225c0.875,0.825 2.012,1.237 3.413,1.237l11.25,0c1.374,0 2.493,-0.412 3.356,-1.237c0.862,-0.825 1.294,-1.9 1.294,-3.225Z" style="fill:#fff;fill-rule:nonzero;"/><path d="M0.563,198.975c-0.176,-0.125 -0.263,-0.275 -0.263,-0.45l0,-2.85c0,-0.25 0.125,-0.375 0.375,-0.375l25.5,-0c0.25,-0 0.375,0.125 0.375,0.375l0,2.85c0,0.25 -0.125,0.375 -0.375,0.375l-18.9,-0c-0.075,-0 -0.119,0.025 -0.131,0.075c-0.013,0.05 0.019,0.087 0.094,0.113l7.387,4.462c0.175,0.125 0.263,0.275 0.263,0.45l-0,0.6c-0,0.175 -0.088,0.325 -0.263,0.45l-7.312,4.5c-0.075,0.025 -0.107,0.062 -0.094,0.112c0.012,0.05 0.056,0.075 0.131,0.075l18.825,0c0.25,0 0.375,0.125 0.375,0.376l0,2.85c0,0.249 -0.125,0.374 -0.375,0.374l-25.5,0c-0.25,0 -0.375,-0.125 -0.375,-0.374l0,-2.85c0,-0.176 0.087,-0.326 0.263,-0.451l8.475,-5.25c0.024,-0.025 0.037,-0.062 0.037,-0.112c0,-0.05 -0.013,-0.088 -0.037,-0.112l-8.475,-5.213Z" style="fill:#fff;fill-rule:nonzero;"/><path d="M26.85,171.787c-0,1.6 -0.294,3.007 -0.881,4.219c-0.588,1.213 -1.406,2.15 -2.456,2.813c-1.05,0.662 -2.276,0.993 -3.675,0.993l-1.013,0c-0.25,0 -0.375,-0.125 -0.375,-0.375l0,-2.775c0,-0.25 0.125,-0.375 0.375,-0.375l0.825,0c1.225,0 2.213,-0.418 2.963,-1.256c0.75,-0.837 1.125,-1.969 1.125,-3.394c-0,-1.275 -0.344,-2.281 -1.032,-3.018c-0.687,-0.738 -1.593,-1.107 -2.718,-1.107c-0.75,0 -1.401,0.188 -1.95,0.563c-0.551,0.375 -1.063,0.919 -1.538,1.631c-0.475,0.713 -1.075,1.744 -1.8,3.094c-0.8,1.525 -1.513,2.744 -2.137,3.656c-0.626,0.913 -1.413,1.669 -2.363,2.269c-0.95,0.6 -2.1,0.9 -3.45,0.9c-2.1,-0 -3.75,-0.688 -4.95,-2.063c-1.2,-1.375 -1.8,-3.2 -1.8,-5.475c0,-1.575 0.3,-2.962 0.9,-4.162c0.6,-1.2 1.444,-2.131 2.531,-2.794c1.088,-0.662 2.344,-0.994 3.769,-0.994l0.863,0c0.249,0 0.375,0.125 0.375,0.375l-0,2.813c-0,0.25 -0.126,0.375 -0.375,0.375l-0.788,-0c-1.225,-0 -2.225,0.4 -3,1.2c-0.775,0.8 -1.162,1.887 -1.162,3.262c-0,1.225 0.312,2.182 0.937,2.869c0.625,0.688 1.512,1.031 2.663,1.031c0.75,0 1.387,-0.168 1.912,-0.506c0.525,-0.337 1.019,-0.856 1.481,-1.556c0.463,-0.7 1.044,-1.738 1.744,-3.113c0.975,-1.725 1.775,-3.031 2.4,-3.918c0.625,-0.888 1.388,-1.613 2.288,-2.175c0.9,-0.563 1.987,-0.844 3.262,-0.844c2.15,-0 3.863,0.706 5.138,2.119c1.275,1.412 1.912,3.318 1.912,5.718Z" style="fill:#fff;fill-rule:nonzero;"/><path d="M26.888,150.375c-0.001,1.6 -0.332,3.006 -0.994,4.219c-0.663,1.212 -1.594,2.156 -2.794,2.831c-1.2,0.675 -2.587,1.013 -4.162,1.013l-11.025,-0c-1.551,-0 -2.925,-0.338 -4.125,-1.013c-1.2,-0.675 -2.132,-1.619 -2.794,-2.831c-0.663,-1.213 -0.994,-2.619 -0.994,-4.219c0,-1.6 0.331,-3.013 0.994,-4.237c0.662,-1.226 1.594,-2.176 2.794,-2.851c1.2,-0.675 2.574,-1.012 4.125,-1.012l11.025,0c1.575,0 2.962,0.337 4.162,1.012c1.2,0.675 2.131,1.625 2.794,2.851c0.662,1.224 0.993,2.637 0.994,4.237Zm-3.15,0c-0,-1.35 -0.426,-2.438 -1.275,-3.262c-0.851,-0.826 -1.976,-1.238 -3.375,-1.238l-11.25,0c-1.401,0 -2.538,0.412 -3.413,1.238c-0.875,0.825 -1.312,1.912 -1.312,3.262c-0,1.325 0.437,2.4 1.312,3.225c0.875,0.825 2.012,1.238 3.413,1.238l11.25,-0c1.374,-0 2.493,-0.413 3.356,-1.238c0.862,-0.825 1.294,-1.9 1.294,-3.225Z" style="fill:#fff;fill-rule:nonzero;"/><path d="M26.55,135.225c0,0.25 -0.125,0.375 -0.375,0.375l-25.5,-0c-0.25,-0 -0.375,-0.125 -0.375,-0.375l0,-2.85c0,-0.25 0.125,-0.375 0.375,-0.375l22.613,0c0.099,0 0.15,-0.05 0.15,-0.15l-0,-10.65c-0,-0.25 0.124,-0.375 0.375,-0.375l2.362,-0c0.25,-0 0.375,0.125 0.375,0.375l0,14.025Z" style="fill:#fff;fill-rule:nonzero;"/><path d="M26.85,107.662c-0,1.575 -0.331,2.969 -0.994,4.182c-0.662,1.212 -1.6,2.15 -2.812,2.812c-1.213,0.663 -2.619,0.994 -4.219,0.994l-18.15,-0c-0.25,-0 -0.375,-0.125 -0.375,-0.375l0,-2.85c0,-0.25 0.125,-0.375 0.375,-0.375l18.375,-0c1.4,-0 2.531,-0.406 3.394,-1.219c0.862,-0.812 1.294,-1.869 1.294,-3.169c-0,-1.325 -0.432,-2.393 -1.294,-3.206c-0.863,-0.812 -1.994,-1.219 -3.394,-1.219l-18.375,0c-0.25,0 -0.375,-0.125 -0.375,-0.375l0,-2.85c0,-0.25 0.125,-0.375 0.375,-0.375l18.15,0c1.6,0 3.006,0.332 4.219,0.994c1.212,0.663 2.15,1.6 2.812,2.813c0.663,1.212 0.994,2.618 0.994,4.218Z" style="fill:#fff;fill-rule:nonzero;"/><path d="M0.3,77.925c0,-0.25 0.125,-0.375 0.375,-0.375l2.4,-0c0.25,-0 0.375,0.125 0.375,0.375l0,6.038c0,0.099 0.05,0.15 0.15,0.15l22.575,-0c0.25,-0 0.375,0.124 0.375,0.374l0,2.851c0,0.249 -0.125,0.375 -0.375,0.375l-22.575,-0c-0.1,-0 -0.15,0.049 -0.15,0.15l0,5.775c0,0.249 -0.125,0.374 -0.375,0.374l-2.4,0c-0.25,0 -0.375,-0.125 -0.375,-0.374l0,-15.713Z" style="fill:#fff;fill-rule:nonzero;"/><path d="M26.55,71.325c0,0.25 -0.125,0.375 -0.375,0.375l-25.5,-0c-0.25,-0 -0.375,-0.125 -0.375,-0.375l0,-2.85c0,-0.25 0.125,-0.375 0.375,-0.375l25.5,-0c0.25,-0 0.375,0.125 0.375,0.375l0,2.85Z" style="fill:#fff;fill-rule:nonzero;"/><path d="M26.888,53.4c-0.001,1.6 -0.332,3.006 -0.994,4.219c-0.663,1.212 -1.594,2.156 -2.794,2.831c-1.2,0.675 -2.587,1.013 -4.162,1.013l-11.025,-0c-1.551,-0 -2.925,-0.338 -4.125,-1.013c-1.2,-0.675 -2.132,-1.619 -2.794,-2.831c-0.663,-1.213 -0.994,-2.619 -0.994,-4.219c0,-1.6 0.331,-3.013 0.994,-4.237c0.662,-1.226 1.594,-2.176 2.794,-2.85c1.2,-0.675 2.574,-1.013 4.125,-1.013l11.025,0c1.575,0 2.962,0.338 4.162,1.013c1.2,0.674 2.131,1.624 2.794,2.85c0.662,1.224 0.993,2.637 0.994,4.237Zm-3.15,0c-0,-1.35 -0.426,-2.437 -1.275,-3.262c-0.851,-0.825 -1.976,-1.238 -3.375,-1.238l-11.25,0c-1.401,0 -2.538,0.413 -3.413,1.238c-0.875,0.825 -1.312,1.912 -1.312,3.262c-0,1.325 0.437,2.4 1.312,3.225c0.875,0.825 2.012,1.238 3.413,1.238l11.25,-0c1.374,-0 2.493,-0.413 3.356,-1.238c0.862,-0.825 1.294,-1.9 1.294,-3.225Z" style="fill:#fff;fill-rule:nonzero;"/><path d="M0.675,25.612c-0.25,0 -0.375,-0.125 -0.375,-0.374l0,-2.851c0,-0.25 0.125,-0.375 0.375,-0.375l25.5,0c0.25,0 0.375,0.125 0.375,0.375l0,3c0,0.225 -0.088,0.375 -0.262,0.451l-18.188,9.037c-0.05,0.05 -0.075,0.094 -0.075,0.131c0,0.038 0.038,0.056 0.113,0.056l18.037,-0.037c0.25,0 0.375,0.125 0.375,0.375l0,2.85c0,0.25 -0.125,0.375 -0.375,0.375l-25.5,-0c-0.25,-0 -0.375,-0.125 -0.375,-0.375l0,-3c0,-0.225 0.087,-0.375 0.263,-0.45l18.187,-9c0.05,-0.05 0.075,-0.094 0.075,-0.131c0,-0.038 -0.037,-0.057 -0.112,-0.057l-18.038,0Z" style="fill:#fff;fill-rule:nonzero;"/><path d="M26.85,7.838c-0,1.599 -0.294,3.006 -0.881,4.218c-0.588,1.213 -1.406,2.15 -2.456,2.813c-1.05,0.662 -2.276,0.993 -3.675,0.993l-1.013,0c-0.25,0 -0.375,-0.125 -0.375,-0.374l0,-2.775c0,-0.251 0.125,-0.375 0.375,-0.375l0.825,-0c1.225,-0 2.213,-0.419 2.963,-1.257c0.75,-0.837 1.125,-1.968 1.125,-3.394c-0,-1.275 -0.344,-2.281 -1.032,-3.018c-0.687,-0.738 -1.593,-1.107 -2.718,-1.107c-0.75,0 -1.401,0.188 -1.95,0.563c-0.551,0.375 -1.063,0.919 -1.538,1.631c-0.475,0.713 -1.075,1.744 -1.8,3.094c-0.8,1.525 -1.513,2.744 -2.137,3.656c-0.626,0.913 -1.413,1.669 -2.363,2.269c-0.95,0.6 -2.1,0.9 -3.45,0.9c-2.1,0 -3.75,-0.688 -4.95,-2.062c-1.2,-1.376 -1.8,-3.201 -1.8,-5.476c0,-1.575 0.3,-2.962 0.9,-4.162c0.6,-1.2 1.444,-2.131 2.531,-2.794c1.088,-0.662 2.344,-0.994 3.769,-0.994l0.863,0c0.249,0 0.375,0.125 0.375,0.375l-0,2.813c-0,0.25 -0.126,0.375 -0.375,0.375l-0.788,-0c-1.225,-0 -2.225,0.4 -3,1.2c-0.775,0.8 -1.162,1.887 -1.162,3.263c-0,1.224 0.312,2.181 0.937,2.868c0.625,0.688 1.512,1.032 2.663,1.032c0.75,-0 1.387,-0.169 1.912,-0.507c0.525,-0.337 1.019,-0.856 1.481,-1.556c0.463,-0.7 1.044,-1.738 1.744,-3.113c0.975,-1.724 1.775,-3.031 2.4,-3.918c0.625,-0.888 1.388,-1.613 2.288,-2.175c0.9,-0.563 1.987,-0.844 3.262,-0.844c2.15,-0 3.863,0.706 5.138,2.119c1.275,1.412 1.912,3.318 1.912,5.719Z" style="fill:#fff;fill-rule:nonzero;"/></g></svg>