<?xml version="1.0" encoding="UTF-8" standalone="no"?><!DOCTYPE svg PUBLIC "-//W3C//DTD SVG 1.1//EN" "http://www.w3.org/Graphics/SVG/1.1/DTD/svg11.dtd"><svg width="100%" height="100%" viewBox="0 0 25 431" version="1.1" xmlns="http://www.w3.org/2000/svg" xmlns:xlink="http://www.w3.org/1999/xlink" xml:space="preserve" xmlns:serif="http://www.serif.com/" style="fill-rule:evenodd;clip-rule:evenodd;stroke-linejoin:round;stroke-miterlimit:2;"><g><path d="M3.24,417.015c0.112,0 0.208,0.039 0.287,0.118c0.079,0.079 0.118,0.174 0.118,0.287l-0,9.383c-0,0.112 0.056,0.168 0.169,0.168l6.345,0c0.112,0 0.168,-0.056 0.168,-0.168l0,-6.008c0,-0.113 0.04,-0.208 0.119,-0.287c0.078,-0.079 0.174,-0.118 0.286,-0.118l2.565,0c0.113,0 0.209,0.039 0.287,0.118c0.079,0.079 0.118,0.174 0.118,0.287l0,6.008c0,0.112 0.057,0.168 0.169,0.168l6.48,0c0.113,0 0.169,-0.056 0.169,-0.168l-0,-9.383c-0,-0.113 0.039,-0.208 0.118,-0.287c0.079,-0.079 0.174,-0.118 0.287,-0.118l2.565,0c0.112,0 0.208,0.039 0.287,0.118c0.079,0.079 0.118,0.174 0.118,0.287l-0,13.061c-0,0.113 -0.039,0.208 -0.118,0.287c-0.079,0.079 -0.175,0.118 -0.287,0.118l-22.815,0c-0.113,0 -0.208,-0.039 -0.287,-0.118c-0.079,-0.079 -0.118,-0.174 -0.118,-0.287l-0,-13.061c-0,-0.113 0.039,-0.208 0.118,-0.287c0.079,-0.079 0.174,-0.118 0.287,-0.118l2.565,0Z" style="fill:#fff;fill-rule:nonzero;"/><path d="M0.675,397.879c-0.113,-0 -0.208,-0.04 -0.287,-0.118c-0.079,-0.079 -0.118,-0.175 -0.118,-0.287l-0,-3.105c-0,-0.113 0.039,-0.208 0.118,-0.287c0.079,-0.079 0.174,-0.118 0.287,-0.118l22.815,-0c0.112,-0 0.208,0.039 0.287,0.118c0.079,0.079 0.118,0.174 0.118,0.287l-0,3.274c-0,0.202 -0.101,0.359 -0.304,0.472l-15.12,7.358c-0.067,0.044 -0.095,0.089 -0.084,0.135c0.011,0.044 0.062,0.067 0.152,0.067l14.951,-0.034c0.112,0 0.208,0.04 0.287,0.118c0.079,0.079 0.118,0.175 0.118,0.287l-0,3.105c-0,0.113 -0.039,0.208 -0.118,0.287c-0.079,0.079 -0.175,0.118 -0.287,0.118l-22.815,0c-0.113,0 -0.208,-0.039 -0.287,-0.118c-0.079,-0.079 -0.118,-0.174 -0.118,-0.287l-0,-3.24c-0,-0.225 0.101,-0.382 0.304,-0.472l15.187,-7.391c0.068,-0.046 0.096,-0.091 0.085,-0.135c-0.012,-0.046 -0.062,-0.068 -0.152,-0.068l-15.019,0.034Z" style="fill:#fff;fill-rule:nonzero;"/><path d="M0.675,374.963c-0.113,-0 -0.208,-0.04 -0.287,-0.119c-0.079,-0.078 -0.118,-0.174 -0.118,-0.286l-0,-3.105c-0,-0.113 0.039,-0.209 0.118,-0.287c0.079,-0.079 0.174,-0.118 0.287,-0.118l22.815,-0c0.112,-0 0.208,0.039 0.287,0.118c0.079,0.078 0.118,0.174 0.118,0.287l-0,3.105c-0,0.112 -0.039,0.208 -0.118,0.286c-0.079,0.079 -0.175,0.119 -0.287,0.119l-9.585,-0c-0.113,-0 -0.169,0.056 -0.169,0.168l0,6.413c0,0.112 0.056,0.169 0.169,0.169l9.585,-0c0.112,-0 0.208,0.039 0.287,0.118c0.079,0.078 0.118,0.174 0.118,0.287l-0,3.105c-0,0.112 -0.039,0.208 -0.118,0.286c-0.079,0.079 -0.175,0.119 -0.287,0.119l-22.815,-0c-0.113,-0 -0.208,-0.04 -0.287,-0.119c-0.079,-0.078 -0.118,-0.174 -0.118,-0.286l-0,-3.105c-0,-0.113 0.039,-0.209 0.118,-0.287c0.079,-0.079 0.174,-0.118 0.287,-0.118l9.484,-0c0.112,-0 0.168,-0.057 0.168,-0.169l0,-6.413c0,-0.112 -0.056,-0.168 -0.168,-0.168l-9.484,-0Z" style="fill:#fff;fill-rule:nonzero;"/><path d="M23.895,350.595c-0,0.247 -0.113,0.405 -0.338,0.473l-3.611,0.877c-0.09,0.022 -0.135,0.079 -0.135,0.169l0,6.952c0,0.09 0.045,0.146 0.135,0.169l3.611,0.844c0.225,0.067 0.338,0.225 0.338,0.472l-0,3.207c-0,0.292 -0.146,0.405 -0.439,0.337l-22.849,-6.142c-0.225,-0.068 -0.337,-0.226 -0.337,-0.473l-0,-3.847c-0,-0.248 0.112,-0.405 0.337,-0.473l22.849,-6.142l0.135,-0.034c0.203,-0 0.304,0.123 0.304,0.371l-0,3.24Zm-7.358,7.83c0.068,0.022 0.119,0.011 0.152,-0.034c0.034,-0.045 0.051,-0.09 0.051,-0.135l-0,-5.332c-0,-0.045 -0.017,-0.09 -0.051,-0.135c-0.033,-0.045 -0.084,-0.057 -0.152,-0.034l-11.07,2.768c-0.067,0.022 -0.101,0.056 -0.101,0.101c0,0.045 0.034,0.078 0.101,0.101l11.07,2.7Z" style="fill:#fff;fill-rule:nonzero;"/><path d="M0.675,328.388c-0.113,-0 -0.208,-0.04 -0.287,-0.119c-0.079,-0.078 -0.118,-0.174 -0.118,-0.286l-0,-3.105c-0,-0.113 0.039,-0.209 0.118,-0.287c0.079,-0.079 0.174,-0.118 0.287,-0.118l22.815,-0c0.112,-0 0.208,0.039 0.287,0.118c0.079,0.078 0.118,0.174 0.118,0.287l-0,3.273c-0,0.203 -0.101,0.36 -0.304,0.473l-15.12,7.357c-0.067,0.045 -0.095,0.09 -0.084,0.135c0.011,0.045 0.062,0.068 0.152,0.068l14.951,-0.034c0.112,0 0.208,0.039 0.287,0.118c0.079,0.079 0.118,0.174 0.118,0.287l-0,3.105c-0,0.112 -0.039,0.208 -0.118,0.287c-0.079,0.079 -0.175,0.118 -0.287,0.118l-22.815,0c-0.113,0 -0.208,-0.039 -0.287,-0.118c-0.079,-0.079 -0.118,-0.175 -0.118,-0.287l-0,-3.24c-0,-0.225 0.101,-0.383 0.304,-0.472l15.187,-7.392c0.068,-0.045 0.096,-0.09 0.085,-0.135c-0.012,-0.045 -0.062,-0.067 -0.152,-0.067l-15.019,0.034Z" style="fill:#fff;fill-rule:nonzero;"/><path d="M24.165,309.218c-0,1.462 -0.298,2.756 -0.894,3.881c-0.597,1.125 -1.435,1.997 -2.515,2.615c-1.08,0.619 -2.329,0.929 -3.746,0.929l-9.923,-0c-1.417,-0 -2.66,-0.31 -3.729,-0.929c-1.069,-0.618 -1.896,-1.49 -2.481,-2.615c-0.585,-1.125 -0.877,-2.419 -0.877,-3.881c-0,-1.463 0.287,-2.757 0.861,-3.882c0.573,-1.125 1.383,-1.997 2.43,-2.615c1.046,-0.619 2.266,-0.928 3.661,-0.928l0.203,-0c0.112,-0 0.214,0.039 0.304,0.118c0.09,0.078 0.135,0.174 0.135,0.287l0.135,3.138c-0,0.27 -0.135,0.405 -0.405,0.405l-0.405,0c-1.058,0 -1.913,0.321 -2.565,0.962c-0.653,0.641 -0.979,1.479 -0.979,2.515c-0,1.057 0.326,1.906 0.979,2.548c0.652,0.641 1.507,0.962 2.565,0.962l10.361,-0c1.057,-0 1.907,-0.321 2.548,-0.962c0.641,-0.642 0.962,-1.491 0.962,-2.548c-0,-1.036 -0.321,-1.874 -0.962,-2.515c-0.641,-0.641 -1.491,-0.962 -2.548,-0.962l-0.439,0c-0.247,0 -0.371,-0.135 -0.371,-0.405l0.135,-3.138c-0,-0.113 0.039,-0.209 0.118,-0.287c0.079,-0.079 0.174,-0.118 0.287,-0.118l0.135,-0c1.395,-0 2.627,0.309 3.696,0.928c1.068,0.618 1.89,1.49 2.463,2.615c0.574,1.125 0.861,2.419 0.861,3.882Z" style="fill:#fff;fill-rule:nonzero;"/><path d="M23.895,293.693c-0,0.112 -0.039,0.208 -0.118,0.286c-0.079,0.079 -0.175,0.119 -0.287,0.119l-22.815,-0c-0.113,-0 -0.208,-0.04 -0.287,-0.119c-0.079,-0.078 -0.118,-0.174 -0.118,-0.286l-0,-3.105c-0,-0.113 0.039,-0.209 0.118,-0.287c0.079,-0.079 0.174,-0.118 0.287,-0.118l22.815,-0c0.112,-0 0.208,0.039 0.287,0.118c0.079,0.078 0.118,0.174 0.118,0.287l-0,3.105Z" style="fill:#fff;fill-rule:nonzero;"/><path d="M0.675,270.203c-0.113,-0 -0.208,-0.04 -0.287,-0.119c-0.079,-0.078 -0.118,-0.174 -0.118,-0.286l-0,-3.105c-0,-0.113 0.039,-0.209 0.118,-0.287c0.079,-0.079 0.174,-0.118 0.287,-0.118l22.815,-0c0.112,-0 0.208,0.039 0.287,0.118c0.079,0.078 0.118,0.174 0.118,0.287l-0,3.273c-0,0.203 -0.101,0.36 -0.304,0.473l-15.12,7.357c-0.067,0.045 -0.095,0.09 -0.084,0.135c0.011,0.045 0.062,0.068 0.152,0.068l14.951,-0.034c0.112,0 0.208,0.039 0.287,0.118c0.079,0.079 0.118,0.174 0.118,0.287l-0,3.105c-0,0.112 -0.039,0.208 -0.118,0.287c-0.079,0.079 -0.175,0.118 -0.287,0.118l-22.815,0c-0.113,0 -0.208,-0.039 -0.287,-0.118c-0.079,-0.079 -0.118,-0.175 -0.118,-0.287l-0,-3.24c-0,-0.225 0.101,-0.383 0.304,-0.472l15.187,-7.392c0.068,-0.045 0.096,-0.09 0.085,-0.135c-0.012,-0.045 -0.062,-0.067 -0.152,-0.067l-15.019,0.034Z" style="fill:#fff;fill-rule:nonzero;"/><path d="M24.165,251.066c-0,1.463 -0.293,2.751 -0.878,3.865c-0.585,1.113 -1.411,1.98 -2.48,2.598c-1.069,0.619 -2.301,0.929 -3.696,0.929l-10.057,-0c-1.395,-0 -2.627,-0.31 -3.696,-0.929c-1.069,-0.618 -1.896,-1.485 -2.481,-2.598c-0.585,-1.114 -0.877,-2.402 -0.877,-3.865c-0,-1.462 0.287,-2.756 0.861,-3.881c0.573,-1.125 1.378,-1.997 2.413,-2.616c1.035,-0.618 2.216,-0.928 3.543,-0.928l0.777,0c0.112,0 0.208,0.04 0.287,0.118c0.078,0.079 0.118,0.175 0.118,0.287l-0,3.105c-0,0.113 -0.04,0.208 -0.118,0.287c-0.079,0.079 -0.175,0.118 -0.287,0.118l-0.777,0c-1.012,0 -1.839,0.321 -2.48,0.962c-0.641,0.641 -0.962,1.491 -0.962,2.548c-0,1.035 0.332,1.873 0.996,2.515c0.663,0.641 1.535,0.962 2.615,0.962l10.193,-0c1.08,-0 1.952,-0.332 2.615,-0.996c0.664,-0.664 0.996,-1.525 0.996,-2.582c-0,-1.035 -0.298,-1.862 -0.894,-2.481c-0.597,-0.618 -1.412,-0.928 -2.447,-0.928l-2.667,0c-0.112,0 -0.168,0.056 -0.168,0.169l-0,3.071c-0,0.113 -0.04,0.208 -0.118,0.287c-0.079,0.079 -0.175,0.118 -0.287,0.118l-2.464,0c-0.113,0 -0.208,-0.039 -0.287,-0.118c-0.079,-0.079 -0.118,-0.174 -0.118,-0.287l-0,-6.75c-0,-0.112 0.039,-0.208 0.118,-0.287c0.079,-0.078 0.174,-0.118 0.287,-0.118l5.265,0c2.227,0 3.977,0.675 5.248,2.025c1.271,1.35 1.907,3.15 1.907,5.4Z" style="fill:#fff;fill-rule:nonzero;"/><path d="M3.24,211.106c0.112,0 0.208,0.04 0.287,0.118c0.079,0.079 0.118,0.175 0.118,0.287l-0,9.383c-0,0.112 0.056,0.169 0.169,0.169l6.345,-0c0.112,-0 0.168,-0.057 0.168,-0.169l0,-6.008c0,-0.112 0.04,-0.208 0.119,-0.287c0.078,-0.078 0.174,-0.118 0.286,-0.118l2.565,0c0.113,0 0.209,0.04 0.287,0.118c0.079,0.079 0.118,0.175 0.118,0.287l0,6.008c0,0.112 0.057,0.169 0.169,0.169l6.48,-0c0.113,-0 0.169,-0.057 0.169,-0.169l-0,-9.383c-0,-0.112 0.039,-0.208 0.118,-0.287c0.079,-0.078 0.174,-0.118 0.287,-0.118l2.565,0c0.112,0 0.208,0.04 0.287,0.118c0.079,0.079 0.118,0.175 0.118,0.287l-0,13.062c-0,0.112 -0.039,0.208 -0.118,0.286c-0.079,0.079 -0.175,0.119 -0.287,0.119l-22.815,-0c-0.113,-0 -0.208,-0.04 -0.287,-0.119c-0.079,-0.078 -0.118,-0.174 -0.118,-0.286l-0,-13.062c-0,-0.112 0.039,-0.208 0.118,-0.287c0.079,-0.078 0.174,-0.118 0.287,-0.118l2.565,0Z" style="fill:#fff;fill-rule:nonzero;"/><path d="M23.895,204.356c-0,0.158 -0.039,0.265 -0.118,0.321c-0.079,0.056 -0.197,0.051 -0.355,-0.017l-11.238,-5.67c-0.068,-0.023 -0.135,-0.023 -0.203,0l-11.239,5.67c-0.09,0.045 -0.157,0.068 -0.202,0.068c-0.18,-0 -0.27,-0.124 -0.27,-0.372l-0,-3.273c-0,-0.226 0.101,-0.383 0.304,-0.473l7.863,-3.847c0.09,-0.068 0.09,-0.135 0,-0.203l-7.863,-3.814c-0.203,-0.112 -0.304,-0.27 -0.304,-0.472l-0,-3.24c-0,-0.158 0.039,-0.265 0.118,-0.321c0.079,-0.056 0.197,-0.05 0.354,0.017l11.239,5.67c0.068,0.022 0.135,0.022 0.203,0l11.238,-5.67c0.09,-0.045 0.158,-0.067 0.203,-0.067c0.18,-0 0.27,0.123 0.27,0.371l-0,3.24c-0,0.202 -0.101,0.36 -0.304,0.472l-7.83,3.814c-0.112,0.068 -0.112,0.135 0,0.203l7.83,3.847c0.203,0.09 0.304,0.247 0.304,0.473l-0,3.273Z" style="fill:#fff;fill-rule:nonzero;"/><path d="M0.236,173.408c0,-1.306 0.293,-2.459 0.878,-3.46c0.585,-1.001 1.412,-1.777 2.48,-2.329c1.069,-0.551 2.29,-0.826 3.662,-0.826c1.35,-0 2.543,0.275 3.578,0.826c1.035,0.552 1.839,1.328 2.413,2.329c0.574,1.001 0.86,2.143 0.86,3.426l0,4.151c0,0.112 0.057,0.169 0.169,0.169l9.214,-0c0.112,-0 0.208,0.039 0.287,0.118c0.079,0.079 0.118,0.174 0.118,0.287l-0,3.105c-0,0.112 -0.039,0.208 -0.118,0.287c-0.079,0.078 -0.175,0.118 -0.287,0.118l-22.849,-0c-0.112,-0 -0.208,-0.04 -0.287,-0.118c-0.078,-0.079 -0.118,-0.175 -0.118,-0.287l0,-7.796Zm10.733,0.573c-0,-0.99 -0.332,-1.783 -0.996,-2.379c-0.664,-0.596 -1.547,-0.894 -2.649,-0.894c-1.125,-0 -2.025,0.298 -2.7,0.894c-0.675,0.596 -1.013,1.389 -1.013,2.379l0,3.544c0,0.112 0.056,0.169 0.169,0.169l7.02,-0c0.112,-0 0.169,-0.057 0.169,-0.169l-0,-3.544Z" style="fill:#fff;fill-rule:nonzero;"/><path d="M3.24,145.8c0.112,0 0.208,0.039 0.287,0.118c0.079,0.079 0.118,0.174 0.118,0.287l-0,9.383c-0,0.112 0.056,0.168 0.169,0.168l6.345,0c0.112,0 0.168,-0.056 0.168,-0.168l0,-6.008c0,-0.113 0.04,-0.208 0.119,-0.287c0.078,-0.079 0.174,-0.118 0.286,-0.118l2.565,0c0.113,0 0.209,0.039 0.287,0.118c0.079,0.079 0.118,0.174 0.118,0.287l0,6.008c0,0.112 0.057,0.168 0.169,0.168l6.48,0c0.113,0 0.169,-0.056 0.169,-0.168l-0,-9.383c-0,-0.113 0.039,-0.208 0.118,-0.287c0.079,-0.079 0.174,-0.118 0.287,-0.118l2.565,0c0.112,0 0.208,0.039 0.287,0.118c0.079,0.079 0.118,0.174 0.118,0.287l-0,13.061c-0,0.113 -0.039,0.208 -0.118,0.287c-0.079,0.079 -0.175,0.118 -0.287,0.118l-22.815,0c-0.113,0 -0.208,-0.039 -0.287,-0.118c-0.079,-0.079 -0.118,-0.174 -0.118,-0.287l-0,-13.061c-0,-0.113 0.039,-0.208 0.118,-0.287c0.079,-0.079 0.174,-0.118 0.287,-0.118l2.565,0Z" style="fill:#fff;fill-rule:nonzero;"/><path d="M23.895,127.035c-0,0.247 -0.113,0.405 -0.338,0.472l-9.686,3.646c-0.09,0.044 -0.135,0.101 -0.135,0.168l0,2.903c0,0.112 0.056,0.168 0.169,0.168l9.585,0c0.112,0 0.208,0.04 0.287,0.119c0.079,0.078 0.118,0.174 0.118,0.287l-0,3.105c-0,0.112 -0.039,0.208 -0.118,0.286c-0.079,0.079 -0.175,0.118 -0.287,0.118l-22.815,0c-0.113,0 -0.208,-0.039 -0.287,-0.118c-0.079,-0.078 -0.118,-0.174 -0.118,-0.286l-0,-7.797c-0,-1.282 0.287,-2.419 0.861,-3.408c0.573,-0.991 1.383,-1.755 2.43,-2.295c1.046,-0.54 2.244,-0.811 3.594,-0.811c1.462,0 2.734,0.338 3.814,1.013c1.08,0.675 1.845,1.597 2.295,2.767c0.045,0.113 0.123,0.147 0.236,0.102l9.922,-3.983c0.045,-0.022 0.113,-0.034 0.203,-0.034c0.18,0.001 0.27,0.113 0.27,0.338l-0,3.24Zm-20.25,7.189c-0,0.112 0.056,0.168 0.169,0.168l6.716,0c0.112,0 0.169,-0.056 0.169,-0.168l-0,-3.544c-0,-0.945 -0.321,-1.71 -0.962,-2.295c-0.641,-0.585 -1.491,-0.878 -2.548,-0.878c-1.08,0 -1.941,0.293 -2.582,0.878c-0.641,0.585 -0.962,1.35 -0.962,2.295l-0,3.544Z" style="fill:#fff;fill-rule:nonzero;"/><path d="M23.895,115.729c-0,0.112 -0.039,0.208 -0.118,0.287c-0.079,0.078 -0.175,0.118 -0.287,0.118l-22.815,-0c-0.113,-0 -0.208,-0.04 -0.287,-0.118c-0.079,-0.079 -0.118,-0.175 -0.118,-0.287l-0,-3.105c-0,-0.113 0.039,-0.208 0.118,-0.287c0.079,-0.079 0.174,-0.118 0.287,-0.118l22.815,-0c0.112,-0 0.208,0.039 0.287,0.118c0.079,0.079 0.118,0.174 0.118,0.287l-0,3.105Z" style="fill:#fff;fill-rule:nonzero;"/><path d="M23.895,91.766c-0,0.248 -0.113,0.405 -0.338,0.473l-3.611,0.877c-0.09,0.023 -0.135,0.079 -0.135,0.169l0,6.953c0,0.089 0.045,0.146 0.135,0.168l3.611,0.844c0.225,0.068 0.338,0.225 0.338,0.472l-0,3.207c-0,0.292 -0.146,0.405 -0.439,0.337l-22.849,-6.142c-0.225,-0.068 -0.337,-0.225 -0.337,-0.473l-0,-3.847c-0,-0.248 0.112,-0.405 0.337,-0.473l22.849,-6.142l0.135,-0.034c0.203,-0 0.304,0.124 0.304,0.371l-0,3.24Zm-7.358,7.83c0.068,0.023 0.119,0.011 0.152,-0.033c0.034,-0.046 0.051,-0.091 0.051,-0.136l-0,-5.332c-0,-0.045 -0.017,-0.09 -0.051,-0.135c-0.033,-0.045 -0.084,-0.056 -0.152,-0.034l-11.07,2.768c-0.067,0.022 -0.101,0.056 -0.101,0.101c0,0.045 0.034,0.079 0.101,0.101l11.07,2.7Z" style="fill:#fff;fill-rule:nonzero;"/><path d="M0.675,69.559c-0.113,-0 -0.208,-0.04 -0.287,-0.118c-0.079,-0.079 -0.118,-0.175 -0.118,-0.287l-0,-3.105c-0,-0.113 0.039,-0.208 0.118,-0.287c0.079,-0.079 0.174,-0.118 0.287,-0.118l22.815,-0c0.112,-0 0.208,0.039 0.287,0.118c0.079,0.079 0.118,0.174 0.118,0.287l-0,3.274c-0,0.202 -0.101,0.359 -0.304,0.472l-15.12,7.358c-0.067,0.044 -0.095,0.089 -0.084,0.135c0.011,0.044 0.062,0.067 0.152,0.067l14.951,-0.034c0.112,0 0.208,0.04 0.287,0.118c0.079,0.079 0.118,0.175 0.118,0.287l-0,3.105c-0,0.113 -0.039,0.208 -0.118,0.287c-0.079,0.079 -0.175,0.118 -0.287,0.118l-22.815,0c-0.113,0 -0.208,-0.039 -0.287,-0.118c-0.079,-0.079 -0.118,-0.174 -0.118,-0.287l-0,-3.24c-0,-0.225 0.101,-0.382 0.304,-0.472l15.187,-7.391c0.068,-0.046 0.096,-0.091 0.085,-0.135c-0.012,-0.046 -0.062,-0.068 -0.152,-0.068l-15.019,0.034Z" style="fill:#fff;fill-rule:nonzero;"/><path d="M24.165,50.389c-0,1.462 -0.298,2.756 -0.894,3.881c-0.597,1.125 -1.435,1.997 -2.515,2.616c-1.08,0.618 -2.329,0.928 -3.746,0.928l-9.923,-0c-1.417,-0 -2.66,-0.31 -3.729,-0.928c-1.069,-0.619 -1.896,-1.491 -2.481,-2.616c-0.585,-1.125 -0.877,-2.419 -0.877,-3.881c-0,-1.463 0.287,-2.757 0.861,-3.882c0.573,-1.125 1.383,-1.996 2.43,-2.615c1.046,-0.619 2.266,-0.928 3.661,-0.928l0.203,-0c0.112,-0 0.214,0.039 0.304,0.118c0.09,0.079 0.135,0.174 0.135,0.287l0.135,3.138c-0,0.271 -0.135,0.405 -0.405,0.405l-0.405,0c-1.058,0 -1.913,0.321 -2.565,0.962c-0.653,0.642 -0.979,1.48 -0.979,2.515c-0,1.057 0.326,1.907 0.979,2.548c0.652,0.641 1.507,0.962 2.565,0.962l10.361,-0c1.057,-0 1.907,-0.321 2.548,-0.962c0.641,-0.641 0.962,-1.491 0.962,-2.548c-0,-1.035 -0.321,-1.873 -0.962,-2.515c-0.641,-0.641 -1.491,-0.962 -2.548,-0.962l-0.439,0c-0.247,0 -0.371,-0.134 -0.371,-0.405l0.135,-3.138c-0,-0.113 0.039,-0.208 0.118,-0.287c0.079,-0.079 0.174,-0.118 0.287,-0.118l0.135,-0c1.395,-0 2.627,0.309 3.696,0.928c1.068,0.619 1.89,1.49 2.463,2.615c0.574,1.125 0.861,2.419 0.861,3.882Z" style="fill:#fff;fill-rule:nonzero;"/><path d="M3.24,21.398c0.112,-0 0.208,0.039 0.287,0.118c0.079,0.078 0.118,0.174 0.118,0.286l-0,9.383c-0,0.112 0.056,0.169 0.169,0.169l6.345,-0c0.112,-0 0.168,-0.057 0.168,-0.169l0,-6.007c0,-0.113 0.04,-0.209 0.119,-0.287c0.078,-0.079 0.174,-0.118 0.286,-0.118l2.565,-0c0.113,-0 0.209,0.039 0.287,0.118c0.079,0.078 0.118,0.174 0.118,0.287l0,6.007c0,0.112 0.057,0.169 0.169,0.169l6.48,-0c0.113,-0 0.169,-0.057 0.169,-0.169l-0,-9.383c-0,-0.112 0.039,-0.208 0.118,-0.286c0.079,-0.079 0.174,-0.118 0.287,-0.118l2.565,-0c0.112,-0 0.208,0.039 0.287,0.118c0.079,0.078 0.118,0.174 0.118,0.286l-0,13.062c-0,0.112 -0.039,0.208 -0.118,0.287c-0.079,0.078 -0.175,0.118 -0.287,0.118l-22.815,-0c-0.113,-0 -0.208,-0.04 -0.287,-0.118c-0.079,-0.079 -0.118,-0.175 -0.118,-0.287l-0,-13.062c-0,-0.112 0.039,-0.208 0.118,-0.286c0.079,-0.079 0.174,-0.118 0.287,-0.118l2.565,-0Z" style="fill:#fff;fill-rule:nonzero;"/><path d="M24.165,7.324c-0,1.485 -0.264,2.79 -0.793,3.915c-0.529,1.125 -1.283,1.997 -2.261,2.615c-0.979,0.619 -2.11,0.928 -3.392,0.928l-0.878,0c-0.112,0 -0.208,-0.039 -0.287,-0.118c-0.078,-0.078 -0.118,-0.174 -0.118,-0.287l0,-3.037c0,-0.113 0.04,-0.208 0.118,-0.287c0.079,-0.079 0.175,-0.118 0.287,-0.118l0.675,-0c0.968,-0 1.755,-0.338 2.363,-1.013c0.607,-0.675 0.911,-1.586 0.911,-2.733c-0,-1.058 -0.27,-1.868 -0.81,-2.43c-0.54,-0.563 -1.249,-0.844 -2.126,-0.844c-0.608,-0 -1.131,0.157 -1.57,0.472c-0.438,0.315 -0.843,0.76 -1.215,1.334c-0.371,0.573 -0.872,1.456 -1.502,2.649c-0.72,1.372 -1.361,2.475 -1.923,3.307c-0.563,0.833 -1.283,1.536 -2.16,2.11c-0.878,0.574 -1.947,0.86 -3.207,0.86c-1.935,0 -3.465,-0.646 -4.59,-1.94c-1.125,-1.294 -1.687,-2.998 -1.687,-5.113c-0,-1.463 0.276,-2.757 0.827,-3.882c0.551,-1.125 1.333,-1.991 2.345,-2.598c1.013,-0.608 2.172,-0.912 3.477,-0.912l0.708,0c0.113,0 0.209,0.04 0.287,0.119c0.079,0.078 0.118,0.174 0.118,0.286l0,3.038c0,0.112 -0.039,0.208 -0.118,0.287c-0.078,0.079 -0.174,0.118 -0.287,0.118l-0.641,-0c-0.967,-0 -1.766,0.326 -2.396,0.979c-0.63,0.652 -0.945,1.53 -0.945,2.632c-0,0.968 0.253,1.733 0.759,2.295c0.507,0.563 1.21,0.844 2.11,0.844c0.607,-0 1.125,-0.146 1.552,-0.439c0.428,-0.292 0.833,-0.737 1.215,-1.333c0.383,-0.596 0.878,-1.502 1.485,-2.717c0.923,-1.62 1.643,-2.812 2.16,-3.577c0.518,-0.765 1.187,-1.412 2.008,-1.941c0.822,-0.529 1.828,-0.793 3.021,-0.793c1.98,-0 3.555,0.664 4.725,1.991c1.17,1.328 1.755,3.105 1.755,5.333Z" style="fill:#fff;fill-rule:nonzero;"/></g></svg>