<?xml version="1.0" encoding="UTF-8" standalone="no"?><!DOCTYPE svg PUBLIC "-//W3C//DTD SVG 1.1//EN" "http://www.w3.org/Graphics/SVG/1.1/DTD/svg11.dtd"><svg width="100%" height="100%" viewBox="0 0 133 129" version="1.1" xmlns="http://www.w3.org/2000/svg" xmlns:xlink="http://www.w3.org/1999/xlink" xml:space="preserve" xmlns:serif="http://www.serif.com/" style="fill-rule:evenodd;clip-rule:evenodd;stroke-miterlimit:10;"><path d="M66.149,122.867c-33.246,-0 -60.292,-26.229 -60.292,-58.467c0,-32.238 27.046,-58.467 60.292,-58.467c33.245,0 60.292,26.229 60.292,58.467c0,32.238 -27.047,58.467 -60.292,58.467" style="fill:#fff;fill-rule:nonzero;"/><path d="M66.149,122.867c-33.246,-0 -60.292,-26.229 -60.292,-58.467c0,-32.238 27.046,-58.467 60.292,-58.467c33.245,0 60.292,26.229 60.292,58.467c0,32.238 -27.047,58.467 -60.292,58.467Z" style="fill:none;fill-rule:nonzero;stroke:#1a171b;stroke-width:0.42px;"/><path d="M66.149,8.404c-31.841,0 -57.745,25.119 -57.745,55.996c0,30.877 25.904,55.996 57.745,55.996c31.84,-0 57.744,-25.119 57.744,-55.996c-0,-30.877 -25.904,-55.996 -57.744,-55.996Z" style="fill:none;fill-rule:nonzero;"/><clipPath id="_clip1"><path d="M66.149,8.404c-31.841,0 -57.745,25.119 -57.745,55.996c0,30.877 25.904,55.996 57.745,55.996c31.84,-0 57.744,-25.119 57.744,-55.996c-0,-30.877 -25.904,-55.996 -57.744,-55.996Z" clip-rule="nonzero"/></clipPath><g clip-path="url(#_clip1)"><path d="M118.64,62.415c-6.43,-2.746 -11.562,-0.858 -17.493,-2.061c-6.935,-1.406 -12.787,-8.418 -22.14,-7.009c0.066,-0.191 -3.123,-0.21 -3.898,-0.428c-0.009,0.004 -0.031,-0.009 -0.059,-0.03c-1.552,-0.782 -0.586,-0.375 -0.132,-0.12c-0.312,-0.31 -0.944,-1.047 -1.444,-1.609c0.11,-0.179 0.218,-0.359 0.322,-0.539c-0.444,-4.689 0.455,-8.224 0.802,-12.234c4.484,-5.673 13.288,-8.485 20.882,-5.512c1.904,0.019 2.127,-1.405 3.79,-1.594c9.218,4.114 20.218,8.647 20.738,21.019c0.118,2.796 -0.771,6.49 -1.368,10.117m-36.079,23.183c6.593,1.967 14.304,8.283 22.872,3.465c0.151,8.611 -6.001,14.654 -14.572,14.832c-8.303,0.171 -9.498,-9.522 -8.3,-18.297m20.852,-0.036c-1.838,4.982 -16.454,2.884 -16.33,-3.354c1.611,-1.174 10.83,3.531 16.33,3.354m-56.912,9.387c-0.107,0.819 -0.357,1.571 -0.707,2.251c-1.678,3.268 -8.268,0.684 -12.985,-0c-4.091,-0 -2.974,3.655 -5.31,2.759c-2.335,-0.896 -4.406,-7.971 -4.406,-7.971c0,-0 0.005,0.001 0.009,0.002c-0.091,-0.165 -0.159,-0.345 -0.192,-0.54c-0.03,-0.186 -0.064,-0.371 -0.102,-0.555c0.062,-0.015 0.133,-0.023 0.221,-0.021c6.732,2.007 16.405,0.964 21.188,-1.883c1.252,0.228 1.27,1.692 2.252,2.192c-0.012,0.019 -0.023,0.039 -0.035,0.057c0.351,0.729 0.58,1.419 0.597,2.25c0.01,0.55 -0.193,1.059 -0.53,1.459m75.285,-56.026c0.27,-1.296 0.52,-0.769 1.55,-1.414c-0.915,-2.815 -2.616,0.006 -1.456,-5.376c0.436,-5.047 -8.072,-12.222 -12.135,-12.976c-0.002,-0 -0.43,1.895 -0.503,2.453c-0.205,-0.255 -0.849,-2.694 -0.956,-3.063c-2.164,0.075 -4.789,-1.044 -6.953,-1.143c-1.453,-0.067 -2.954,-0.165 -4.481,-0.26c-6.721,-1.312 -11.821,1.94 -16.163,4.254l1.347,-2.261c-0.58,0.274 -2.12,-0 -3.225,1.779c0.014,0.8 -0.066,1.533 -0.184,1.944c-1.848,-0.76 -3.964,-1.209 -6.481,-1.188c-0.627,0.52 -1.231,1.093 -1.805,1.725c0.056,0.669 0.208,1.421 0.281,2.105c-1.992,-1.322 -5.169,-3.089 -6.428,-3.749c-5.332,-2.797 -12.797,-4.482 -18.918,-2.994c0.088,-0.009 -8.884,-0.114 -8.165,0.544c-0.098,0.024 -15.583,4.317 -11.435,4.009c-1.018,1.785 -4.624,1.967 -3.351,3.959c-0.726,0.591 -2.204,2.176 -2.991,4.384c0.176,-0.645 -0.066,1.424 -0.867,2.347c-1.28,2.196 -3.231,8.454 -3.231,17.11c0.971,-10.198 3.678,-15.838 6.695,-17.866c0.536,-0.36 1.465,-2.596 1.984,-2.803c0.413,-3.056 1.697,-2.191 4.533,-3.35c1.387,-0.457 3.248,3.79 5.89,3.35c1.041,-0.448 5.951,1.119 7.066,0.883c3.563,-0.751 7.903,-1.43 8.303,-1.59c4.734,-2.473 7.931,-1.917 7.95,-1.59c1.083,0.589 3.954,0.41 3.857,1.652c-0.205,2.623 0.031,7.049 -2.455,9.61c-0.248,0.941 -0.693,1.806 -1.301,2.591c-0.014,0.053 -0.032,0.104 -0.049,0.156c-0.005,0.021 -0.01,0.043 -0.015,0.065l-0.006,-0.004c-0.14,0.406 -0.355,0.793 -0.661,1.159c1.572,-0.573 2.767,-1.017 3.73,-1.373c0.747,-1.187 1.464,-2.311 2.164,-3.387c-0.525,1.579 -2.399,4.845 -2.468,5.198c-0.248,0.014 -0.424,0.028 -0.458,0.042c-4.838,2.059 -2.768,8.17 -5.329,12.325c2.098,0.208 2.801,1.09 3.634,2.789c0.023,0.353 0.039,0.703 0.067,1.059c0.188,0.011 0.343,0.046 0.48,0.097c0.005,0.012 0.011,0.024 0.017,0.037c-2.987,0.475 -4.589,-0.264 -5.195,1.123c-0.019,0.178 -0.079,0.368 -0.169,0.561c-0.08,0.402 -0.119,0.914 -0.119,1.568c1.812,-0.35 4.335,0.182 6.219,-0.171c-0.004,0.117 -0.134,1.361 -0.11,1.482c-0.01,0.003 -0.018,0.005 -0.018,0.005c-0,-0 -2.01,11.198 -3.773,16.374c-1.575,4.63 -4.131,5.1 -6.467,5.501c-0.849,-3.861 -4.118,-8.993 -8.738,-10.075c3.635,2.827 6.025,5.307 5.15,8.855c-1.314,0.413 -3.753,0.966 -5.194,1.251c-0.007,1.249 0.261,2.773 -0.941,2.825c-4.602,0.191 -9.731,2.132 -13.109,0.119c2.048,-4.372 7.062,0.527 9.813,-2.473c-0.29,-0.653 -1.813,-0.071 -1.884,-0.941c2.935,0.109 6.972,-0.842 9.152,-1.487c0.616,-1.694 -3.562,-6.671 -5.809,-6.889c1.06,2.826 -1.33,3.088 -2.65,3.886c-0.798,0.483 -1.288,1.671 -2.187,1.948c-3.562,1.095 -7.344,0.484 -6.804,-2.54c0.239,-1.347 -2.278,2.25 -1.59,5.552c-5.072,-3.907 -5.083,4.692 -2.142,6.836c1.407,3.669 3.301,7.777 3.798,9.823c0.055,0.231 0.942,1.847 0.962,2.069c1.001,0.776 1.516,1.236 2.571,1.817c2.864,1.577 3.068,2.095 6.46,1.788c3.152,-0.603 6.094,-0.246 8.173,-1.18c1.176,-0.574 3.755,-1.654 4.903,-2.296l1.908,-2.133l2.504,-0.761l1.682,-2.787c-0,-0 4.46,-2.902 7.161,-4.841c0.649,-0.466 0.903,-2.083 0.956,-4.329c1.778,4.291 3.987,8.373 4.815,11.706c2.673,3.888 8.07,9.315 13.972,10.996c5.902,1.682 12.308,-0.384 15.746,-1.569c7.672,-7.326 11.509,-17.971 18.609,-25.714c-0.005,-0.006 -0.009,-0.013 -0.014,-0.019c-3.832,1.694 -4.975,5.693 -7.617,8.408c-3.327,-3.244 2.723,-5.974 2.299,-9.74c-0.255,-2.251 -3.314,-4.176 -5.618,-5.221c-3.746,-1.7 -5.16,2.252 -7.718,2.106c-4.327,-0.248 -3.904,-4.635 -5.114,-5.037c-1.299,-0.913 -1.737,1.5 -3.358,1.561c-4.929,-4.947 -12.638,1.349 -9.712,9.439c-1.084,0.55 -1.487,1.686 -2.892,1.961l-0.596,-7.78c-0.713,-1.053 -2.387,-0.985 -3.191,-1.929c-2.769,2.004 -2.545,1.944 -1.993,4.868c-1.485,-1.879 -2.667,-6.91 -3.355,-9.716c-2.686,-0.997 -0.757,4.989 -3.231,5.226c-1.256,-1.627 0.12,-4.61 -1.59,-6.028c-0,-0.05 -0.001,-0.101 -0.001,-0.151c-0.681,-1.709 0.421,-3.459 -0.038,-5.23c-0.185,-0.716 -0.107,-2.025 -0.083,-2.876c1.715,-0.432 0.77,-1.242 1.652,-2.387c1.115,0.269 0.683,8.809 1.435,9.503c2.356,-0.992 1.294,-10.14 1.858,-11.93c0.871,-2.765 2.529,-5.089 4.099,-7.334c2.03,0.393 4.09,1.116 4.771,3.21c-4.084,10.19 9.38,17.965 16.881,12.792c2.51,-1.844 4.27,-3.755 6.257,-6.321c4.796,1.493 0.276,13.112 12.715,12.993c2.401,-0.639 4.045,-2.919 6.09,-5.853c0.203,0.806 0.507,1.549 0.947,2.201c0.231,-4.235 3.779,-11.056 3.929,-16.821c0.136,-5.177 -1.82,-10.489 -1.545,-17.033" style="fill:#1a171b;fill-rule:nonzero;"/></g><path d="M66.149,8.404c-31.841,0 -57.745,25.119 -57.745,55.996c0,30.877 25.904,55.996 57.745,55.996c31.84,-0 57.744,-25.119 57.744,-55.996c-0,-30.877 -25.904,-55.996 -57.744,-55.996Z" style="fill:none;fill-rule:nonzero;stroke:#1a171b;stroke-width:1.67px;"/><path d="M52.773,60.277c-0.209,0.005 -3.729,-0.08 -3.936,-0.076c-4.24,-0 -6.196,-0 -10.194,0.358c-3.957,0.353 -5.028,1.139 -8.067,1.186c-3.192,0.05 -6.943,-0.773 -10.711,-0.987c-2.842,-0.161 -7.551,0.237 -7.551,0.659c2.061,3.81 1.254,7.549 3.178,9.378c0.538,0.511 10.586,0.676 11.821,-0.162c0.529,-0.358 0.912,-1.268 1.294,-2.509c0.762,-2.293 2.253,-2.472 2.183,-4.64c0.081,-0.057 0.164,-0.11 0.252,-0.154c2.386,0.039 3.386,6.457 4.198,7.523c0.884,1.159 14.481,0.835 15.35,-0.756c1.199,-2.153 1.373,-2.738 1.192,-6.246c0.444,-0.315 0.634,-0.902 2.048,-0.961c0.043,-0.218 0.225,-1.432 0.294,-1.59c0.049,-0.458 -0.631,-0.855 -1.351,-1.023" style="fill:#1a171b;fill-rule:nonzero;"/><path d="M88.346,96.768c2.53,0.532 4.597,1.604 8.113,0.986c-0.356,-1.964 2.051,-1.557 1.312,-3.85c-1.766,-0.338 -4.795,-1.386 -6.433,-0.044c-0.302,-1.001 -0.369,-2.278 -1.761,-2.009c-0.931,0.032 -1.648,0.247 -2.09,0.696c-0.227,2.005 1.085,2.217 0.859,4.221" style="fill:#1a171b;fill-rule:nonzero;"/><path d="M74.918,52.767c0.054,0.053 0.1,0.095 0.132,0.12c0.02,0.01 0.038,0.019 0.059,0.03c0.03,-0.015 -0.059,-0.076 -0.191,-0.15" style="fill:#1a171b;fill-rule:nonzero;"/></svg>