<?xml version="1.0" encoding="UTF-8" standalone="no"?><!DOCTYPE svg PUBLIC "-//W3C//DTD SVG 1.1//EN" "http://www.w3.org/Graphics/SVG/1.1/DTD/svg11.dtd"><svg width="100%" height="100%" viewBox="0 0 28 345" version="1.1" xmlns="http://www.w3.org/2000/svg" xmlns:xlink="http://www.w3.org/1999/xlink" xml:space="preserve" xmlns:serif="http://www.serif.com/" style="fill-rule:evenodd;clip-rule:evenodd;stroke-linejoin:round;stroke-miterlimit:2;"><g><path d="M26.955,344.34l-26.595,-5.58l-0,-4.68l26.595,-5.535l-0,3.825l-5.85,1.26l-0,5.85l5.85,1.17l-0,3.69Zm-7.65,-4.995l-0,-5.625l-15.165,2.79l15.165,2.835Z" style="fill:#fff;fill-rule:nonzero;"/><path d="M26.955,323.145l-26.595,-0l-0,-8.73c-0,-1.59 0.367,-2.843 1.102,-3.758c0.735,-0.915 1.853,-1.372 3.353,-1.372l4.23,-0c1.53,-0 2.73,0.435 3.6,1.305c0.87,0.87 1.335,2.085 1.395,3.645c0.06,-0.99 0.39,-1.718 0.99,-2.183c0.6,-0.465 1.53,-0.877 2.79,-1.237l9.135,-2.655l-0,3.87l-8.91,2.295c-0.81,0.21 -1.53,0.487 -2.16,0.832c-0.63,0.345 -0.945,0.878 -0.945,1.598l-0,2.79l12.015,-0l-0,3.6Zm-14.49,-3.6l-0,-3.51c-0,-1.23 -0.3,-2.093 -0.9,-2.588c-0.6,-0.495 -1.485,-0.742 -2.655,-0.742l-3.51,-0c-1.05,-0 -1.823,0.232 -2.318,0.697c-0.495,0.465 -0.742,1.193 -0.742,2.183l-0,3.96l10.125,-0Z" style="fill:#fff;fill-rule:nonzero;"/><path d="M26.955,299.88l-24.12,-0l-0,4.41l-2.475,-0l-0,-12.33l2.475,-0l-0,4.455l24.12,-0l-0,3.465Z" style="fill:#fff;fill-rule:nonzero;"/><path d="M26.955,286.695l-26.595,-0l-0,-3.465l26.595,-0l-0,3.465Z" style="fill:#fff;fill-rule:nonzero;"/><path d="M27.27,270.09c-0,1.41 -0.233,2.625 -0.698,3.645c-0.465,1.02 -1.267,1.8 -2.407,2.34c-1.14,0.54 -2.715,0.81 -4.725,0.81l-1.53,-0l-0,-3.555l1.755,-0c1.41,-0 2.497,-0.135 3.262,-0.405c0.765,-0.27 1.298,-0.66 1.598,-1.17c0.3,-0.51 0.45,-1.08 0.45,-1.71c-0,-1.02 -0.338,-1.86 -1.013,-2.52c-0.675,-0.66 -1.897,-0.99 -3.667,-0.99c-1.29,-0 -2.258,0.195 -2.903,0.585c-0.645,0.39 -1.162,0.975 -1.552,1.755c-0.39,0.78 -0.825,1.755 -1.305,2.925c-0.42,0.99 -0.915,1.86 -1.485,2.61c-0.57,0.75 -1.313,1.32 -2.228,1.71c-0.915,0.39 -2.062,0.585 -3.442,0.585c-1.62,-0 -2.948,-0.218 -3.983,-0.653c-1.035,-0.435 -1.807,-1.147 -2.317,-2.137c-0.51,-0.99 -0.765,-2.325 -0.765,-4.005c-0,-2.13 0.517,-3.78 1.552,-4.95c1.035,-1.17 2.513,-1.755 4.433,-1.755l3.015,-0l-0,3.42l-2.07,-0c-1.41,-0 -2.46,0.27 -3.15,0.81c-0.69,0.54 -1.035,1.365 -1.035,2.475c-0,1.17 0.345,2.01 1.035,2.52c0.69,0.51 1.755,0.765 3.195,0.765c1.11,-0 1.987,-0.218 2.632,-0.653c0.645,-0.435 1.14,-1.005 1.485,-1.71c0.345,-0.705 0.668,-1.447 0.968,-2.227c0.51,-1.35 1.042,-2.438 1.597,-3.263c0.555,-0.825 1.268,-1.432 2.138,-1.822c0.87,-0.39 2.115,-0.585 3.735,-0.585c1.83,-0 3.292,0.3 4.387,0.9c1.095,0.6 1.875,1.432 2.34,2.497c0.465,1.065 0.698,2.318 0.698,3.758Z" style="fill:#fff;fill-rule:nonzero;"/><path d="M26.955,258.57l-26.595,-5.58l-0,-4.68l26.595,-5.535l-0,3.825l-5.85,1.26l-0,5.85l5.85,1.17l-0,3.69Zm-7.65,-4.995l-0,-5.625l-15.165,2.79l15.165,2.835Z" style="fill:#fff;fill-rule:nonzero;"/><path d="M26.955,237.375l-26.595,0l-0,-3.06l19.53,-7.56l-19.53,-0l-0,-3.105l26.595,-0l-0,3.105l-18.675,7.515l18.675,0l-0,3.105Z" style="fill:#fff;fill-rule:nonzero;"/><path d="M26.955,218.25l-26.595,-5.58l-0,-4.68l26.595,-5.535l-0,3.825l-5.85,1.26l-0,5.85l5.85,1.17l-0,3.69Zm-7.65,-4.995l-0,-5.625l-15.165,2.79l15.165,2.835Z" style="fill:#fff;fill-rule:nonzero;"/><path d="M26.955,197.055l-26.595,-0l-0,-3.465l24.165,-0l-0,-7.02l2.43,-0l-0,10.485Z" style="fill:#fff;fill-rule:nonzero;"/><path d="M26.955,171.09l-26.595,-0l-0,-11.7l2.475,-0l-0,8.055l8.91,-0l-0,-6.525l2.7,-0l-0,6.525l10.08,-0l-0,-8.055l2.43,-0l-0,11.7Z" style="fill:#fff;fill-rule:nonzero;"/><path d="M26.955,155.43l-13.59,-4.185l-13.005,3.87l-0,-3.465l10.575,-3.015l-10.575,-3.195l-0,-3.6l13.05,4.095l13.545,-4.005l-0,3.465l-10.575,3.195l10.575,3.195l-0,3.645Z" style="fill:#fff;fill-rule:nonzero;"/><path d="M26.955,134.055l-24.12,-0l-0,4.41l-2.475,-0l-0,-12.33l2.475,-0l-0,4.455l24.12,-0l-0,3.465Z" style="fill:#fff;fill-rule:nonzero;"/><path d="M26.955,120.87l-26.595,-0l-0,-8.73c-0,-1.59 0.367,-2.843 1.102,-3.758c0.735,-0.915 1.853,-1.372 3.353,-1.372l4.23,-0c1.53,-0 2.73,0.435 3.6,1.305c0.87,0.87 1.335,2.085 1.395,3.645c0.06,-0.99 0.39,-1.718 0.99,-2.183c0.6,-0.465 1.53,-0.877 2.79,-1.237l9.135,-2.655l-0,3.87l-8.91,2.295c-0.81,0.21 -1.53,0.487 -2.16,0.832c-0.63,0.345 -0.945,0.878 -0.945,1.598l-0,2.79l12.015,-0l-0,3.6Zm-14.49,-3.6l-0,-3.51c-0,-1.23 -0.3,-2.093 -0.9,-2.588c-0.6,-0.495 -1.485,-0.742 -2.655,-0.742l-3.51,-0c-1.05,-0 -1.823,0.232 -2.318,0.697c-0.495,0.465 -0.742,1.193 -0.742,2.183l-0,3.96l10.125,-0Z" style="fill:#fff;fill-rule:nonzero;"/><path d="M26.955,101.88l-26.595,-5.58l-0,-4.68l26.595,-5.535l-0,3.825l-5.85,1.26l-0,5.85l5.85,1.17l-0,3.69Zm-7.65,-4.995l-0,-5.625l-15.165,2.79l15.165,2.835Z" style="fill:#fff;fill-rule:nonzero;"/><path d="M27.495,74.115c-0,1.35 -0.158,2.55 -0.473,3.6c-0.315,1.05 -0.967,1.875 -1.957,2.475c-0.99,0.6 -2.475,0.9 -4.455,0.9l-14.67,-0c-1.65,-0 -2.903,-0.3 -3.758,-0.9c-0.855,-0.6 -1.432,-1.433 -1.732,-2.498c-0.3,-1.065 -0.45,-2.272 -0.45,-3.622c-0,-1.38 0.157,-2.573 0.472,-3.578c0.315,-1.005 0.893,-1.8 1.733,-2.385c0.84,-0.585 2.085,-0.877 3.735,-0.877l4.86,-0l-0,3.465l-4.95,-0c-1.08,-0 -1.883,0.15 -2.408,0.45c-0.525,0.3 -0.87,0.705 -1.035,1.215c-0.165,0.51 -0.247,1.095 -0.247,1.755c-0,0.66 0.082,1.245 0.247,1.755c0.165,0.51 0.51,0.907 1.035,1.192c0.525,0.285 1.328,0.428 2.408,0.428l15.84,-0c1.08,-0 1.882,-0.143 2.407,-0.428c0.525,-0.285 0.87,-0.682 1.035,-1.192c0.165,-0.51 0.248,-1.095 0.248,-1.755c-0,-0.69 -0.083,-1.283 -0.248,-1.778c-0.165,-0.495 -0.51,-0.892 -1.035,-1.192c-0.525,-0.3 -1.327,-0.45 -2.407,-0.45l-4.32,-0l-0,-3.465l3.24,-0c2.01,-0 3.502,0.292 4.477,0.877c0.975,0.585 1.62,1.388 1.935,2.408c0.315,1.02 0.473,2.22 0.473,3.6Z" style="fill:#fff;fill-rule:nonzero;"/><path d="M26.955,58.185l-24.12,-0l-0,4.41l-2.475,-0l-0,-12.33l2.475,-0l-0,4.455l24.12,-0l-0,3.465Z" style="fill:#fff;fill-rule:nonzero;"/><path d="M26.955,45l-26.595,-0l-0,-3.465l26.595,-0l-0,3.465Z" style="fill:#fff;fill-rule:nonzero;"/><path d="M27.495,27.675c-0,1.35 -0.158,2.535 -0.473,3.555c-0.315,1.02 -0.967,1.83 -1.957,2.43c-0.99,0.6 -2.475,0.9 -4.455,0.9l-14.67,-0c-1.65,-0 -2.903,-0.3 -3.758,-0.9c-0.855,-0.6 -1.432,-1.418 -1.732,-2.453c-0.3,-1.035 -0.45,-2.227 -0.45,-3.577c-0,-1.35 0.157,-2.543 0.472,-3.578c0.315,-1.035 0.893,-1.852 1.733,-2.452c0.84,-0.6 2.085,-0.9 3.735,-0.9l14.67,-0c2.01,-0 3.502,0.3 4.477,0.9c0.975,0.6 1.62,1.425 1.935,2.475c0.315,1.05 0.473,2.25 0.473,3.6Zm-2.115,-0c-0,-0.69 -0.09,-1.298 -0.27,-1.823c-0.18,-0.525 -0.533,-0.937 -1.058,-1.237c-0.525,-0.3 -1.312,-0.45 -2.362,-0.45l-15.84,-0c-1.02,-0 -1.793,0.15 -2.318,0.45c-0.525,0.3 -0.877,0.712 -1.057,1.237c-0.18,0.525 -0.27,1.133 -0.27,1.823c-0,0.69 0.09,1.29 0.27,1.8c0.18,0.51 0.532,0.915 1.057,1.215c0.525,0.3 1.298,0.45 2.318,0.45l15.84,-0c1.05,-0 1.837,-0.15 2.362,-0.45c0.525,-0.3 0.878,-0.705 1.058,-1.215c0.18,-0.51 0.27,-1.11 0.27,-1.8Z" style="fill:#fff;fill-rule:nonzero;"/><path d="M26.955,13.725l-26.595,-0l-0,-3.06l19.53,-7.56l-19.53,-0l-0,-3.105l26.595,-0l-0,3.105l-18.675,7.515l18.675,0l-0,3.105Z" style="fill:#fff;fill-rule:nonzero;"/></g></svg>