<?xml version="1.0" encoding="UTF-8" standalone="no"?><!DOCTYPE svg PUBLIC "-//W3C//DTD SVG 1.1//EN" "http://www.w3.org/Graphics/SVG/1.1/DTD/svg11.dtd"><svg width="100%" height="100%" viewBox="0 0 12 26" version="1.1" xmlns="http://www.w3.org/2000/svg" xmlns:xlink="http://www.w3.org/1999/xlink" xml:space="preserve" xmlns:serif="http://www.serif.com/" style="fill-rule:evenodd;clip-rule:evenodd;stroke-linejoin:round;stroke-miterlimit:2;"><path d="M2.579,12.495l-0,12.375c-0,0.175 0.141,0.317 0.317,0.317l4.521,0c0.176,0 0.318,-0.142 0.318,-0.317l-0,-12.375l3.278,-0c0.165,-0 0.302,-0.127 0.316,-0.291l0.315,-3.729c0.016,-0.185 -0.13,-0.344 -0.315,-0.344l-3.594,-0l-0,-2.645c-0,-0.621 0.503,-1.123 1.123,-1.123l2.526,0c0.176,0 0.317,-0.142 0.317,-0.318l-0,-3.728c-0,-0.176 -0.141,-0.317 -0.317,-0.317l-4.27,0c-2.505,0 -4.535,2.031 -4.535,4.536l-0,3.595l-2.261,-0c-0.176,-0 -0.318,0.142 -0.318,0.317l-0,3.729c-0,0.175 0.142,0.318 0.318,0.318l2.261,-0Z" style="fill:#283845;"/></svg>