<?xml version="1.0" encoding="UTF-8" standalone="no"?><!DOCTYPE svg PUBLIC "-//W3C//DTD SVG 1.1//EN" "http://www.w3.org/Graphics/SVG/1.1/DTD/svg11.dtd"><svg width="100%" height="100%" viewBox="0 0 101 913" version="1.1" xmlns="http://www.w3.org/2000/svg" xmlns:xlink="http://www.w3.org/1999/xlink" xml:space="preserve" xmlns:serif="http://www.serif.com/" style="fill-rule:evenodd;clip-rule:evenodd;stroke-linejoin:round;stroke-miterlimit:2;"><g><path d="M2.109,858.656c-0.656,-0.469 -0.984,-1.031 -0.984,-1.687l0,-10.688c0,-0.937 0.469,-1.406 1.406,-1.406l95.625,0c0.938,0 1.407,0.469 1.407,1.406l-0,10.688c-0,0.937 -0.469,1.406 -1.407,1.406l-70.875,0c-0.281,0 -0.445,0.094 -0.492,0.281c-0.047,0.188 0.07,0.328 0.352,0.422l27.703,16.735c0.656,0.468 0.984,1.031 0.984,1.687l0,2.25c0,0.656 -0.328,1.219 -0.984,1.688l-27.422,16.875c-0.281,0.093 -0.399,0.234 -0.352,0.421c0.047,0.188 0.211,0.282 0.493,0.282l70.593,-0c0.938,-0 1.407,0.468 1.407,1.406l-0,10.687c-0,0.938 -0.469,1.407 -1.407,1.407l-95.625,-0c-0.937,-0 -1.406,-0.469 -1.406,-1.407l0,-10.687c0,-0.656 0.328,-1.219 0.984,-1.688l31.782,-19.687c0.093,-0.094 0.14,-0.235 0.14,-0.422c0,-0.188 -0.047,-0.328 -0.14,-0.422l-31.782,-19.547Z" style="fill:#fff;fill-rule:nonzero;"/><path d="M11.391,761.484c0.937,0 1.406,0.469 1.406,1.407l-0,40.781c-0,0.375 0.187,0.562 0.562,0.562l30.375,0c0.375,0 0.563,-0.187 0.563,-0.562l-0,-26.859c-0,-0.938 0.469,-1.407 1.406,-1.407l8.86,0c0.937,0 1.406,0.469 1.406,1.407l-0,26.859c-0,0.375 0.187,0.562 0.562,0.562l30.797,0c0.375,0 0.563,-0.187 0.563,-0.562l-0,-40.781c-0,-0.938 0.468,-1.407 1.406,-1.407l8.859,0c0.938,0 1.407,0.469 1.407,1.407l-0,53.437c-0,0.938 -0.469,1.406 -1.407,1.406l-95.625,0c-0.937,0 -1.406,-0.468 -1.406,-1.406l0,-53.437c0,-0.938 0.469,-1.407 1.406,-1.407l8.86,0Z" style="fill:#fff;fill-rule:nonzero;"/><path d="M100.688,712.406c-0.001,6 -1.102,11.274 -3.305,15.821c-2.203,4.546 -5.274,8.062 -9.211,10.546c-3.938,2.485 -8.531,3.727 -13.781,3.727l-3.797,-0c-0.938,-0 -1.406,-0.469 -1.406,-1.406l-0,-10.407c-0,-0.937 0.468,-1.406 1.406,-1.406l3.094,0c4.593,0 8.296,-1.57 11.109,-4.711c2.812,-3.14 4.219,-7.383 4.219,-12.726c-0,-4.781 -1.289,-8.555 -3.868,-11.321c-2.578,-2.765 -5.976,-4.148 -10.195,-4.148c-2.812,0 -5.25,0.703 -7.312,2.109c-2.063,1.407 -3.985,3.446 -5.766,6.118c-1.781,2.671 -4.031,6.539 -6.75,11.601c-3,5.719 -5.672,10.289 -8.016,13.711c-2.343,3.422 -5.297,6.258 -8.859,8.508c-3.563,2.25 -7.875,3.375 -12.937,3.375c-7.875,-0 -14.063,-2.578 -18.563,-7.734c-4.5,-5.157 -6.75,-12.001 -6.75,-20.532c0,-5.906 1.125,-11.109 3.375,-15.609c2.25,-4.5 5.414,-7.992 9.492,-10.477c4.078,-2.484 8.789,-3.726 14.133,-3.726l3.234,-0c0.938,-0 1.407,0.468 1.407,1.406l-0,10.547c-0,0.937 -0.469,1.406 -1.407,1.406l-2.953,0c-4.594,0 -8.344,1.5 -11.25,4.5c-2.906,3 -4.359,7.078 -4.359,12.235c-0,4.593 1.172,8.179 3.516,10.757c2.343,2.578 5.671,3.868 9.984,3.868c2.812,-0 5.203,-0.633 7.172,-1.899c1.969,-1.266 3.82,-3.211 5.554,-5.836c1.735,-2.625 3.914,-6.516 6.54,-11.672c3.656,-6.468 6.656,-11.367 9,-14.695c2.343,-3.328 5.203,-6.047 8.578,-8.156c3.375,-2.11 7.453,-3.164 12.234,-3.164c8.062,-0 14.484,2.648 19.266,7.945c4.781,5.297 7.171,12.445 7.172,21.445Z" style="fill:#fff;fill-rule:nonzero;"/><path d="M100.688,634.078c-0.001,6 -1.102,11.274 -3.305,15.82c-2.203,4.547 -5.274,8.063 -9.211,10.547c-3.938,2.485 -8.531,3.727 -13.781,3.727l-3.797,-0c-0.938,-0 -1.406,-0.469 -1.406,-1.406l-0,-10.407c-0,-0.937 0.468,-1.406 1.406,-1.406l3.094,0c4.593,0 8.296,-1.57 11.109,-4.711c2.812,-3.14 4.219,-7.383 4.219,-12.726c-0,-4.782 -1.289,-8.555 -3.868,-11.321c-2.578,-2.765 -5.976,-4.148 -10.195,-4.148c-2.812,-0 -5.25,0.703 -7.312,2.109c-2.063,1.407 -3.985,3.446 -5.766,6.117c-1.781,2.672 -4.031,6.54 -6.75,11.602c-3,5.719 -5.672,10.289 -8.016,13.711c-2.343,3.422 -5.297,6.258 -8.859,8.508c-3.563,2.25 -7.875,3.375 -12.937,3.375c-7.875,-0 -14.063,-2.578 -18.563,-7.735c-4.5,-5.156 -6.75,-12 -6.75,-20.531c0,-5.906 1.125,-11.109 3.375,-15.609c2.25,-4.5 5.414,-7.992 9.492,-10.477c4.078,-2.484 8.789,-3.726 14.133,-3.726l3.234,-0c0.938,-0 1.407,0.468 1.407,1.406l-0,10.547c-0,0.937 -0.469,1.406 -1.407,1.406l-2.953,0c-4.594,0 -8.344,1.5 -11.25,4.5c-2.906,3 -4.359,7.078 -4.359,12.234c-0,4.594 1.172,8.18 3.516,10.758c2.343,2.578 5.671,3.867 9.984,3.867c2.812,0 5.203,-0.632 7.172,-1.898c1.969,-1.266 3.82,-3.211 5.554,-5.836c1.735,-2.625 3.914,-6.516 6.54,-11.672c3.656,-6.469 6.656,-11.367 9,-14.695c2.343,-3.328 5.203,-6.047 8.578,-8.156c3.375,-2.11 7.453,-3.164 12.234,-3.164c8.062,-0 14.484,2.648 19.266,7.945c4.781,5.297 7.171,12.445 7.172,21.445Z" style="fill:#fff;fill-rule:nonzero;"/><path d="M99.563,532.406c-0,0.844 -0.422,1.36 -1.266,1.547l-16.313,4.219c-0.281,0.094 -0.421,0.328 -0.421,0.703l-0,31.078c-0,0.469 0.14,0.703 0.421,0.703l16.313,4.078c0.844,0.094 1.266,0.61 1.266,1.547l-0,10.969c-0,0.469 -0.141,0.82 -0.422,1.055c-0.282,0.234 -0.657,0.304 -1.125,0.211l-95.625,-26.016c-0.844,-0.188 -1.266,-0.703 -1.266,-1.547l0,-13.219c0,-0.843 0.422,-1.359 1.266,-1.546l95.625,-26.157l0.422,-0.14c0.749,-0 1.125,0.468 1.125,1.406l-0,11.109Zm-29.25,35.297c0.093,0.094 0.21,0.07 0.351,-0.07c0.141,-0.141 0.211,-0.305 0.211,-0.492l0,-25.453c0,-0.188 -0.07,-0.352 -0.211,-0.493c-0.141,-0.14 -0.258,-0.164 -0.351,-0.07l-50.907,13.078c-0.187,0.094 -0.281,0.188 -0.281,0.281c0,0.094 0.094,0.188 0.281,0.282l50.907,12.937Z" style="fill:#fff;fill-rule:nonzero;"/><path d="M100.688,474.188c-0.001,8.906 -2.602,16.078 -7.805,21.515c-5.203,5.438 -12.071,8.156 -20.602,8.156l-43.875,0c-8.531,0 -15.398,-2.718 -20.601,-8.156c-5.203,-5.437 -7.805,-12.609 -7.805,-21.515c0,-5.907 1.148,-11.11 3.445,-15.61c2.297,-4.5 5.555,-7.992 9.774,-10.476c4.219,-2.485 9,-3.727 14.344,-3.727l3.796,0c0.938,0 1.407,0.469 1.407,1.406l-0,10.688c-0,0.937 -0.469,1.406 -1.407,1.406l-3.796,0c-4.688,0 -8.508,1.477 -11.461,4.43c-2.954,2.953 -4.43,6.914 -4.43,11.882c-0,4.875 1.523,8.813 4.57,11.813c3.047,3 7.008,4.5 11.883,4.5l44.438,0c4.874,0 8.835,-1.523 11.882,-4.57c3.047,-3.047 4.571,-7.055 4.571,-12.024c-0,-4.875 -1.407,-8.765 -4.219,-11.672c-2.813,-2.906 -6.609,-4.359 -11.391,-4.359l-13.078,0c-0.375,0 -0.562,0.187 -0.562,0.563l-0,14.765c-0,0.938 -0.469,1.406 -1.407,1.406l-8.718,0c-0.938,0 -1.407,-0.468 -1.407,-1.406l0,-27.422c0,-0.937 0.469,-1.406 1.407,-1.406l21.937,0c9.094,0 16.219,2.695 21.375,8.086c5.156,5.391 7.734,12.633 7.735,21.727Z" style="fill:#fff;fill-rule:nonzero;"/><path d="M11.391,363.094c0.937,-0 1.406,0.468 1.406,1.406l-0,40.781c-0,0.375 0.187,0.563 0.562,0.563l30.375,-0c0.375,-0 0.563,-0.188 0.563,-0.563l-0,-26.859c-0,-0.938 0.469,-1.406 1.406,-1.406l8.86,-0c0.937,-0 1.406,0.468 1.406,1.406l-0,26.859c-0,0.375 0.187,0.563 0.562,0.563l30.797,-0c0.375,-0 0.563,-0.188 0.563,-0.563l-0,-40.781c-0,-0.938 0.468,-1.406 1.406,-1.406l8.859,-0c0.938,-0 1.407,0.468 1.407,1.406l-0,53.438c-0,0.937 -0.469,1.406 -1.407,1.406l-95.625,-0c-0.937,-0 -1.406,-0.469 -1.406,-1.406l0,-53.438c0,-0.938 0.469,-1.406 1.406,-1.406l8.86,-0Z" style="fill:#fff;fill-rule:nonzero;"/><path d="M100.688,278.859c-0.001,6 -1.102,11.274 -3.305,15.821c-2.203,4.547 -5.274,8.062 -9.211,10.547c-3.938,2.484 -8.531,3.726 -13.781,3.726l-3.797,0c-0.938,0 -1.406,-0.469 -1.406,-1.406l-0,-10.406c-0,-0.938 0.468,-1.407 1.406,-1.407l3.094,0c4.593,0 8.296,-1.57 11.109,-4.711c2.812,-3.14 4.219,-7.382 4.219,-12.726c-0,-4.781 -1.289,-8.555 -3.868,-11.32c-2.578,-2.766 -5.976,-4.149 -10.195,-4.149c-2.812,0 -5.25,0.703 -7.312,2.11c-2.063,1.406 -3.985,3.445 -5.766,6.117c-1.781,2.672 -4.031,6.539 -6.75,11.601c-3,5.719 -5.672,10.289 -8.016,13.711c-2.343,3.422 -5.297,6.258 -8.859,8.508c-3.563,2.25 -7.875,3.375 -12.937,3.375c-7.875,-0 -14.063,-2.578 -18.563,-7.734c-4.5,-5.157 -6.75,-12 -6.75,-20.532c0,-5.906 1.125,-11.109 3.375,-15.609c2.25,-4.5 5.414,-7.992 9.492,-10.477c4.078,-2.484 8.789,-3.726 14.133,-3.726l3.234,-0c0.938,-0 1.407,0.469 1.407,1.406l-0,10.547c-0,0.937 -0.469,1.406 -1.407,1.406l-2.953,0c-4.594,0 -8.344,1.5 -11.25,4.5c-2.906,3 -4.359,7.078 -4.359,12.235c-0,4.593 1.172,8.179 3.516,10.757c2.343,2.579 5.671,3.868 9.984,3.868c2.812,-0 5.203,-0.633 7.172,-1.899c1.969,-1.265 3.82,-3.211 5.554,-5.836c1.735,-2.625 3.914,-6.515 6.54,-11.672c3.656,-6.468 6.656,-11.367 9,-14.695c2.343,-3.328 5.203,-6.047 8.578,-8.156c3.375,-2.11 7.453,-3.164 12.234,-3.164c8.062,-0 14.484,2.648 19.266,7.945c4.781,5.297 7.171,12.445 7.172,21.445Z" style="fill:#fff;fill-rule:nonzero;"/><path d="M11.391,170.578c0.937,0 1.406,0.469 1.406,1.406l-0,40.782c-0,0.375 0.187,0.562 0.562,0.562l30.375,0c0.375,0 0.563,-0.187 0.563,-0.562l-0,-26.86c-0,-0.937 0.469,-1.406 1.406,-1.406l8.86,0c0.937,0 1.406,0.469 1.406,1.406l-0,26.86c-0,0.375 0.187,0.562 0.562,0.562l30.797,0c0.375,0 0.563,-0.187 0.563,-0.562l-0,-40.782c-0,-0.937 0.468,-1.406 1.406,-1.406l8.859,0c0.938,0 1.407,0.469 1.407,1.406l-0,53.438c-0,0.937 -0.469,1.406 -1.407,1.406l-95.625,0c-0.937,0 -1.406,-0.469 -1.406,-1.406l0,-53.438c0,-0.937 0.469,-1.406 1.406,-1.406l8.86,0Z" style="fill:#fff;fill-rule:nonzero;"/><path d="M2.531,98.578c-0.937,0 -1.406,-0.469 -1.406,-1.406l0,-10.688c0,-0.937 0.469,-1.406 1.406,-1.406l95.625,0c0.938,0 1.407,0.469 1.407,1.406l-0,11.25c-0,0.844 -0.329,1.407 -0.985,1.688l-68.203,33.891c-0.188,0.187 -0.281,0.351 -0.281,0.492c-0,0.14 0.14,0.211 0.422,0.211l67.64,-0.141c0.938,0 1.407,0.469 1.407,1.406l-0,10.688c-0,0.937 -0.469,1.406 -1.407,1.406l-95.625,0c-0.937,0 -1.406,-0.469 -1.406,-1.406l0,-11.25c0,-0.844 0.328,-1.406 0.984,-1.688l68.204,-33.75c0.187,-0.187 0.281,-0.351 0.281,-0.492c-0,-0.141 -0.141,-0.211 -0.422,-0.211l-67.641,0Z" style="fill:#fff;fill-rule:nonzero;"/><path d="M99.563,57.234c-0,0.938 -0.469,1.407 -1.407,1.407l-95.625,-0c-0.937,-0 -1.406,-0.469 -1.406,-1.407l0,-28.546c0,-8.719 2.484,-15.68 7.453,-20.883c4.969,-5.203 11.578,-7.805 19.828,-7.805l43.875,0c8.25,0 14.86,2.602 19.828,7.805c4.969,5.203 7.454,12.164 7.454,20.883l-0,28.546Zm-12.235,-12.093c0.375,-0 0.563,-0.188 0.563,-0.563l-0.141,-16.172c0,-4.5 -1.523,-8.086 -4.57,-10.758c-3.047,-2.671 -7.149,-4.054 -12.305,-4.148l-41.062,0c-5.251,0 -9.399,1.359 -12.446,4.078c-3.047,2.719 -4.57,6.375 -4.57,10.969l-0,16.031c-0,0.375 0.187,0.563 0.562,0.563l73.969,-0Z" style="fill:#fff;fill-rule:nonzero;"/></g></svg>