<?xml version="1.0" encoding="UTF-8" standalone="no"?><!DOCTYPE svg PUBLIC "-//W3C//DTD SVG 1.1//EN" "http://www.w3.org/Graphics/SVG/1.1/DTD/svg11.dtd"><svg width="100%" height="100%" viewBox="0 0 113 1301" version="1.1" xmlns="http://www.w3.org/2000/svg" xmlns:xlink="http://www.w3.org/1999/xlink" xml:space="preserve" xmlns:serif="http://www.serif.com/" style="fill-rule:evenodd;clip-rule:evenodd;stroke-linejoin:round;stroke-miterlimit:2;"><g><path d="M111.875,1267.19c-0,6.562 -1.328,12.369 -3.984,17.421c-2.657,5.052 -6.407,8.959 -11.25,11.719c-4.844,2.761 -10.443,4.141 -16.797,4.141l-47.969,-0c-9.688,-0 -17.422,-3.047 -23.203,-9.141c-5.781,-6.094 -8.672,-14.14 -8.672,-24.14c-0,-10 2.865,-18.021 8.594,-24.063c5.729,-6.042 13.333,-9.063 22.812,-9.063l1.25,0c0.521,0 0.938,0.157 1.25,0.469c0.313,0.313 0.469,0.677 0.469,1.094l0.625,11.875c-0,1.042 -0.521,1.563 -1.563,1.563l-2.343,-0.001c-5.417,0 -9.792,1.667 -13.125,5c-3.334,3.334 -5,7.709 -5,13.126c-0,5.416 1.666,9.817 5,13.203c3.333,3.385 7.708,5.078 13.125,5.078l49.687,-0c5.417,-0 9.792,-1.693 13.125,-5.078c3.334,-3.386 5,-7.787 5,-13.203c0,-5.417 -1.666,-9.792 -5,-13.126c-3.333,-3.333 -7.708,-5 -13.125,-5l-2.187,0c-1.042,0 -1.563,-0.52 -1.563,-1.562l0.625,-11.875c0,-1.042 0.521,-1.563 1.563,-1.563l1.093,0c6.25,0 11.771,1.381 16.563,4.141c4.792,2.761 8.49,6.641 11.094,11.641c2.604,5 3.906,10.781 3.906,17.344Z" style="fill:#fff;fill-rule:nonzero;"/><path d="M112.031,1176.25c0,6.667 -1.38,12.526 -4.14,17.578c-2.761,5.052 -6.641,8.984 -11.641,11.797c-5,2.812 -10.781,4.219 -17.344,4.219l-45.937,-0c-6.459,-0 -12.188,-1.407 -17.188,-4.219c-5,-2.813 -8.88,-6.745 -11.64,-11.797c-2.761,-5.052 -4.141,-10.911 -4.141,-17.578c-0,-6.667 1.38,-12.552 4.141,-17.656c2.76,-5.104 6.64,-9.063 11.64,-11.875c5,-2.813 10.729,-4.219 17.188,-4.219l45.937,0c6.563,0 12.344,1.406 17.344,4.219c5,2.812 8.88,6.771 11.641,11.875c2.76,5.104 4.14,10.989 4.14,17.656Zm-13.125,0c0,-5.625 -1.771,-10.156 -5.312,-13.594c-3.542,-3.437 -8.229,-5.156 -14.063,-5.156l-46.875,-0c-5.833,-0 -10.573,1.719 -14.219,5.156c-3.645,3.438 -5.468,7.969 -5.468,13.594c-0,5.521 1.823,10 5.468,13.437c3.646,3.438 8.386,5.157 14.219,5.157l46.875,-0c5.729,-0 10.391,-1.719 13.985,-5.157c3.593,-3.437 5.39,-7.916 5.39,-13.437Z" style="fill:#fff;fill-rule:nonzero;"/><path d="M12.656,1052.34c1.042,-0 1.563,0.521 1.563,1.562l-0,45.156c-0,0.417 0.208,0.625 0.625,0.625l33.75,0c0.416,0 0.625,-0.208 0.625,-0.625l-0,-29.687c-0,-1.042 0.521,-1.563 1.562,-1.563l9.844,0.001c1.042,-0 1.562,0.52 1.562,1.562l0,29.687c0,0.417 0.209,0.625 0.625,0.625l46.25,0c1.042,0 1.563,0.521 1.563,1.563l-0,11.875c-0,1.042 -0.521,1.562 -1.563,1.562l-106.25,0c-1.041,0 -1.562,-0.52 -1.562,-1.562l-0,-59.219c-0,-1.041 0.521,-1.562 1.562,-1.562l9.844,-0Z" style="fill:#fff;fill-rule:nonzero;"/><path d="M12.656,968.438c1.042,-0 1.563,0.52 1.563,1.562l-0,45.156c-0,0.417 0.208,0.625 0.625,0.625l33.75,0c0.416,0 0.625,-0.208 0.625,-0.625l-0,-29.687c-0,-1.042 0.521,-1.563 1.562,-1.563l9.844,0c1.042,0 1.562,0.521 1.562,1.563l0,29.687c0,0.417 0.209,0.625 0.625,0.625l46.25,0c1.042,0 1.563,0.521 1.563,1.563l-0,11.875c-0,1.041 -0.521,1.562 -1.563,1.562l-106.25,0c-1.041,0 -1.562,-0.521 -1.562,-1.562l-0,-59.219c-0,-1.042 0.521,-1.563 1.562,-1.563l9.844,0Z" style="fill:#fff;fill-rule:nonzero;"/><path d="M12.656,884.375c1.042,0 1.563,0.521 1.563,1.563l-0,45.312c-0,0.417 0.208,0.625 0.625,0.625l33.75,0c0.416,0 0.625,-0.208 0.625,-0.625l-0,-29.844c-0,-1.041 0.521,-1.562 1.562,-1.562l9.844,-0c1.042,-0 1.562,0.521 1.562,1.562l0,29.844c0,0.417 0.209,0.625 0.625,0.625l34.219,0c0.417,0 0.625,-0.208 0.625,-0.625l0,-45.313c0,-1.041 0.521,-1.562 1.563,-1.562l9.843,0c1.042,0 1.563,0.521 1.563,1.563l-0,59.375c-0,1.041 -0.521,1.562 -1.563,1.562l-106.25,0c-1.041,0 -1.562,-0.521 -1.562,-1.563l-0,-59.375c-0,-1.041 0.521,-1.562 1.562,-1.562l9.844,0Z" style="fill:#fff;fill-rule:nonzero;"/><path d="M12.656,796.094c1.042,-0 1.563,0.521 1.563,1.562l-0,45.313c-0,0.416 0.208,0.625 0.625,0.625l33.75,-0c0.416,-0 0.625,-0.209 0.625,-0.625l-0,-29.844c-0,-1.042 0.521,-1.563 1.562,-1.563l9.844,0c1.042,0 1.562,0.521 1.562,1.563l0,29.844c0,0.416 0.209,0.625 0.625,0.625l34.219,-0c0.417,-0 0.625,-0.209 0.625,-0.625l0,-45.313c0,-1.041 0.521,-1.562 1.563,-1.562l9.843,-0c1.042,-0 1.563,0.521 1.563,1.562l-0,59.375c-0,1.042 -0.521,1.563 -1.563,1.563l-106.25,-0c-1.041,-0 -1.562,-0.521 -1.562,-1.563l-0,-59.375c-0,-1.041 0.521,-1.562 1.562,-1.562l9.844,-0Z" style="fill:#fff;fill-rule:nonzero;"/><path d="M111.875,702.5c-0,6.667 -1.224,12.526 -3.672,17.578c-2.448,5.052 -5.859,8.958 -10.234,11.719c-4.375,2.76 -9.479,4.14 -15.313,4.14l-4.219,0c-1.041,0 -1.562,-0.52 -1.562,-1.562l-0,-11.563c-0,-1.041 0.521,-1.562 1.562,-1.562l3.438,0c5.104,0 9.219,-1.745 12.344,-5.234c3.125,-3.49 4.687,-8.203 4.687,-14.141c0,-5.313 -1.432,-9.505 -4.297,-12.578c-2.864,-3.073 -6.64,-4.61 -11.328,-4.61c-3.125,0 -5.833,0.782 -8.125,2.344c-2.291,1.563 -4.427,3.828 -6.406,6.797c-1.979,2.969 -4.479,7.266 -7.5,12.891c-3.333,6.354 -6.302,11.432 -8.906,15.234c-2.604,3.802 -5.886,6.953 -9.844,9.453c-3.958,2.5 -8.75,3.75 -14.375,3.75c-8.75,0 -15.625,-2.864 -20.625,-8.594c-5,-5.729 -7.5,-13.333 -7.5,-22.812c-0,-6.563 1.25,-12.344 3.75,-17.344c2.5,-5 6.016,-8.88 10.547,-11.64c4.531,-2.761 9.765,-4.141 15.703,-4.141l3.594,0c1.041,0 1.562,0.521 1.562,1.563l0,11.718c0,1.042 -0.521,1.563 -1.562,1.563l-3.282,-0c-5.104,-0 -9.27,1.666 -12.5,5c-3.229,3.333 -4.843,7.864 -4.843,13.594c-0,5.104 1.302,9.088 3.906,11.953c2.604,2.864 6.302,4.297 11.094,4.297c3.125,-0 5.781,-0.704 7.968,-2.11c2.188,-1.406 4.245,-3.568 6.172,-6.484c1.927,-2.917 4.349,-7.24 7.266,-12.969c4.062,-7.187 7.396,-12.63 10,-16.328c2.604,-3.698 5.781,-6.719 9.531,-9.063c3.75,-2.343 8.281,-3.515 13.594,-3.515c8.958,-0 16.094,2.942 21.406,8.828c5.313,5.885 7.969,13.828 7.969,23.828Z" style="fill:#fff;fill-rule:nonzero;"/><path d="M12.656,582.188c1.042,-0 1.563,0.52 1.563,1.562l-0,45.313c-0,0.416 0.208,0.625 0.625,0.625l33.75,-0c0.416,-0 0.625,-0.209 0.625,-0.625l-0,-29.844c-0,-1.042 0.521,-1.563 1.562,-1.563l9.844,0c1.042,0 1.562,0.521 1.562,1.563l0,29.844c0,0.416 0.209,0.625 0.625,0.625l34.219,-0c0.417,-0 0.625,-0.209 0.625,-0.625l0,-45.313c0,-1.042 0.521,-1.563 1.563,-1.563l9.843,0c1.042,0 1.563,0.521 1.563,1.563l-0,59.375c-0,1.042 -0.521,1.563 -1.563,1.563l-106.25,-0c-1.041,-0 -1.562,-0.521 -1.562,-1.563l-0,-59.375c-0,-1.042 0.521,-1.563 1.562,-1.563l9.844,0Z" style="fill:#fff;fill-rule:nonzero;"/><path d="M110.625,554.844c-0,1.041 -0.521,1.562 -1.563,1.562l-106.25,0c-1.041,0 -1.562,-0.521 -1.562,-1.562l-0,-11.875c-0,-1.042 0.521,-1.563 1.562,-1.563l94.219,0c0.417,0 0.625,-0.208 0.625,-0.625l0,-44.375c0,-1.041 0.521,-1.562 1.563,-1.562l9.843,-0c1.042,-0 1.563,0.521 1.563,1.562l-0,58.438Z" style="fill:#fff;fill-rule:nonzero;"/><path d="M12.656,409.844c1.042,-0 1.563,0.521 1.563,1.562l-0,45.313c-0,0.416 0.208,0.625 0.625,0.625l33.75,-0c0.416,-0 0.625,-0.209 0.625,-0.625l-0,-29.844c-0,-1.042 0.521,-1.563 1.562,-1.563l9.844,0c1.042,0 1.562,0.521 1.562,1.563l0,29.844c0,0.416 0.209,0.625 0.625,0.625l34.219,-0c0.417,-0 0.625,-0.209 0.625,-0.625l0,-45.313c0,-1.041 0.521,-1.562 1.563,-1.562l9.843,-0c1.042,-0 1.563,0.521 1.563,1.562l-0,59.375c-0,1.042 -0.521,1.563 -1.563,1.563l-106.25,-0c-1.041,-0 -1.562,-0.521 -1.562,-1.563l-0,-59.375c-0,-1.041 0.521,-1.562 1.562,-1.562l9.844,-0Z" style="fill:#fff;fill-rule:nonzero;"/><path d="M111.875,353.438c-0,6.562 -1.328,12.369 -3.984,17.421c-2.657,5.052 -6.407,8.959 -11.25,11.719c-4.844,2.761 -10.443,4.141 -16.797,4.141l-47.969,-0c-9.688,-0 -17.422,-3.047 -23.203,-9.141c-5.781,-6.094 -8.672,-14.14 -8.672,-24.14c-0,-10 2.865,-18.021 8.594,-24.063c5.729,-6.042 13.333,-9.063 22.812,-9.063l1.25,0c0.521,0 0.938,0.157 1.25,0.469c0.313,0.313 0.469,0.677 0.469,1.094l0.625,11.875c-0,1.042 -0.521,1.563 -1.563,1.563l-2.343,-0c-5.417,-0 -9.792,1.666 -13.125,5c-3.334,3.333 -5,7.708 -5,13.125c-0,5.416 1.666,9.817 5,13.203c3.333,3.385 7.708,5.078 13.125,5.078l49.687,-0c5.417,-0 9.792,-1.693 13.125,-5.078c3.334,-3.386 5,-7.787 5,-13.203c0,-5.417 -1.666,-9.792 -5,-13.125c-3.333,-3.334 -7.708,-5 -13.125,-5l-2.187,-0c-1.042,-0 -1.563,-0.521 -1.563,-1.563l0.625,-11.875c0,-1.042 0.521,-1.563 1.563,-1.563l1.093,0c6.25,0 11.771,1.381 16.563,4.141c4.792,2.761 8.49,6.641 11.094,11.641c2.604,5 3.906,10.781 3.906,17.344Z" style="fill:#fff;fill-rule:nonzero;"/><path d="M1.25,232.969c-0,-1.042 0.521,-1.563 1.562,-1.563l10,0c1.042,0 1.563,0.521 1.563,1.563l-0,25.156c-0,0.417 0.208,0.625 0.625,0.625l94.062,0c1.042,0 1.563,0.521 1.563,1.563l-0,11.875c-0,1.041 -0.521,1.562 -1.563,1.562l-94.062,0c-0.417,0 -0.625,0.208 -0.625,0.625l-0,24.063c-0,1.041 -0.521,1.562 -1.563,1.562l-10,0c-1.041,0 -1.562,-0.521 -1.562,-1.563l-0,-65.468Z" style="fill:#fff;fill-rule:nonzero;"/><path d="M110.625,205.469c-0,1.041 -0.521,1.562 -1.563,1.562l-106.25,0c-1.041,0 -1.562,-0.521 -1.562,-1.562l-0,-11.875c-0,-1.042 0.521,-1.563 1.562,-1.563l106.25,0c1.042,0 1.563,0.521 1.563,1.563l-0,11.875Z" style="fill:#fff;fill-rule:nonzero;"/><path d="M112.031,130.781c0,6.667 -1.38,12.526 -4.14,17.578c-2.761,5.052 -6.641,8.985 -11.641,11.797c-5,2.813 -10.781,4.219 -17.344,4.219l-45.937,0c-6.459,0 -12.188,-1.406 -17.188,-4.219c-5,-2.812 -8.88,-6.745 -11.64,-11.797c-2.761,-5.052 -4.141,-10.911 -4.141,-17.578c-0,-6.666 1.38,-12.552 4.141,-17.656c2.76,-5.104 6.64,-9.063 11.64,-11.875c5,-2.813 10.729,-4.219 17.188,-4.219l45.937,0c6.563,0 12.344,1.406 17.344,4.219c5,2.813 8.88,6.771 11.641,11.875c2.76,5.104 4.14,10.99 4.14,17.656Zm-13.125,0c0,-5.625 -1.771,-10.156 -5.312,-13.594c-3.542,-3.437 -8.229,-5.156 -14.063,-5.156l-46.875,0c-5.833,0 -10.573,1.719 -14.219,5.156c-3.645,3.438 -5.468,7.969 -5.468,13.594c-0,5.521 1.823,10 5.468,13.438c3.646,3.437 8.386,5.156 14.219,5.156l46.875,0c5.729,0 10.391,-1.719 13.985,-5.156c3.593,-3.438 5.39,-7.917 5.39,-13.438Z" style="fill:#fff;fill-rule:nonzero;"/><path d="M2.812,15c-1.041,0 -1.562,-0.521 -1.562,-1.563l-0,-11.875c-0,-1.041 0.521,-1.562 1.562,-1.562l106.25,0c1.042,0 1.563,0.521 1.563,1.563l-0,12.5c-0,0.937 -0.365,1.562 -1.094,1.875l-75.781,37.656c-0.208,0.208 -0.313,0.39 -0.313,0.547c0,0.156 0.157,0.234 0.469,0.234l75.156,-0.156c1.042,-0 1.563,0.521 1.563,1.562l-0,11.875c-0,1.042 -0.521,1.563 -1.563,1.563l-106.25,-0c-1.041,-0 -1.562,-0.521 -1.562,-1.563l-0,-12.5c-0,-0.937 0.365,-1.562 1.094,-1.875l75.781,-37.5c0.208,-0.208 0.312,-0.39 0.312,-0.547c0,-0.156 -0.156,-0.234 -0.468,-0.234l-75.157,0Z" style="fill:#fff;fill-rule:nonzero;"/></g></svg>