<?xml version="1.0" encoding="UTF-8" standalone="no"?><!DOCTYPE svg PUBLIC "-//W3C//DTD SVG 1.1//EN" "http://www.w3.org/Graphics/SVG/1.1/DTD/svg11.dtd"><svg width="100%" height="100%" viewBox="0 0 102 64" version="1.1" xmlns="http://www.w3.org/2000/svg" xmlns:xlink="http://www.w3.org/1999/xlink" xml:space="preserve" xmlns:serif="http://www.serif.com/" style="fill-rule:evenodd;clip-rule:evenodd;stroke-linejoin:round;stroke-miterlimit:2;"><g><path d="M33.375,6.837c-0.018,0.514 -0.549,1.01 -1.062,1.01c-1.079,0 -1.079,-0.137 -2.141,-0.137c-1.078,0 -1.078,0.035 -2.158,0.035c-0.53,-0 -0.959,0.274 -1.301,0.617c-0.36,0.359 -0.548,0.787 -0.548,1.317c0,1.011 -0.017,1.011 -0.017,2.022c-0,1.01 -0.103,1.01 -0.103,2.003c-0,1.011 0.137,1.011 0.137,2.021c-0,1.011 -0.189,1.011 -0.189,2.022c0,0.53 -0.342,0.89 -0.89,0.872c-0.514,-0.017 -0.908,-0.393 -0.908,-0.908c0,-0.992 0.087,-0.992 0.087,-2.002c-0,-1.011 -0.19,-1.011 -0.19,-2.005c-0,-1.01 0.068,-1.01 0.068,-2.02c0,-0.994 -0.016,-0.994 -0.016,-2.005c0,-0.53 -0.171,-1.009 -0.532,-1.369c-0.342,-0.343 -0.821,-0.6 -1.369,-0.6c-1.062,0 -1.062,0.12 -2.141,0.12c-1.061,0 -1.061,-0.068 -2.141,-0.068c-0.513,0 -0.873,-0.411 -0.89,-0.941c-0.017,-0.532 0.325,-1.046 0.873,-1.046c0.891,-0 0.891,0.034 1.798,0.034l3.597,0c0.89,0 0.89,0.12 1.798,0.12c0.89,0 0.89,-0.171 1.798,-0.171c0.908,0 0.908,0.102 1.799,0.102c0.907,0 0.907,-0.085 1.798,-0.085c0.907,-0 0.907,0.085 1.798,0.085c0.531,0 1.062,0.429 1.045,0.977" style="fill:#1a171b;fill-rule:nonzero;"/><path d="M82.288,10.159c-0,-0.753 -0.342,-1.456 -0.84,-1.934c-0.496,-0.498 -1.199,-0.771 -1.934,-0.771c-1.028,-0 -1.028,0.085 -2.038,0.085c-1.028,-0 -1.028,-0.085 -2.039,-0.085c-1.027,-0 -1.027,0.033 -2.037,0.033c-1.029,0 -1.029,0.052 -2.039,0.052c-0.753,-0 -1.473,0.171 -1.969,0.651c-0.479,0.497 -0.788,1.216 -0.788,1.969c0,1.045 -0.068,1.062 -0.052,2.107c0.018,1.062 0.121,1.062 0.121,2.106c-0,0.754 0.24,1.473 0.719,1.969c0.496,0.48 1.216,0.669 1.969,0.669c1.01,-0 1.01,0.136 2.039,0.136c1.01,0 1.01,-0.033 2.037,-0.033c1.011,-0 1.011,-0.086 2.039,-0.086c1.01,-0 1.01,0.051 2.038,0.051c0.735,0 1.438,-0.273 1.934,-0.77c0.48,-0.48 0.805,-1.182 0.805,-1.936c-0,-1.044 0.018,-1.044 0.018,-2.106c-0,-1.062 0.017,-1.062 0.017,-2.107m1.798,-0c-0,1.045 -0.034,1.045 -0.034,2.107l-0,2.106c-0,0.634 -0.103,1.217 -0.326,1.747c-0.24,0.566 -0.531,1.096 -0.959,1.507c-0.428,0.428 -0.89,0.857 -1.455,1.096c-0.548,0.223 -1.183,0.275 -1.798,0.275c-1.028,0 -1.028,0.017 -2.038,0.017c-1.028,-0 -1.028,0.051 -2.039,0.051c-1.027,0 -1.027,-0.154 -2.037,-0.154c-1.029,-0 -1.029,0.017 -2.039,0.017c-0.633,-0 -1.232,-0.051 -1.764,-0.274c-0.564,-0.239 -1.113,-0.548 -1.542,-0.977c-0.428,-0.427 -0.769,-0.958 -1.009,-1.507c-0.223,-0.547 -0.291,-1.164 -0.291,-1.798c-0,-1.044 0.016,-1.044 0.016,-2.106c0,-1.062 -0.102,-1.062 -0.102,-2.107c-0,-0.633 0.154,-1.25 0.377,-1.781c0.24,-0.565 0.565,-1.113 0.993,-1.541c0.429,-0.428 1.027,-0.617 1.593,-0.857c0.547,-0.222 1.096,-0.445 1.729,-0.445c1.01,0 1.01,0.086 2.039,0.086c1.01,0 1.01,-0.154 2.037,-0.154c1.011,0 1.011,0.154 2.039,0.154c1.01,0 1.01,-0.051 2.038,-0.051c0.615,0 1.232,0.051 1.781,0.29c0.565,0.224 1.061,0.6 1.472,1.029c0.428,0.427 0.736,0.958 0.976,1.524c0.223,0.53 0.343,1.113 0.343,1.746" style="fill:#1a171b;fill-rule:nonzero;"/><path d="M2.16,28.79c0.272,0.442 0.799,0.764 1.326,0.764c0.8,0 0.8,-0.169 1.616,-0.169l1.615,-0c0.817,-0 0.817,0.101 1.616,0.101c0.817,0 0.817,-0.05 1.615,-0.05c0.817,0 1.463,-0.612 1.48,-1.412c0.034,-0.85 -0.612,-1.548 -1.446,-1.548c-0.816,0 -0.816,-0.016 -1.631,-0.016c-0.8,-0 -0.8,0.101 -1.617,0.101c-0.816,0 -0.816,-0.017 -1.632,-0.017c-0.799,-0 -0.799,-0.033 -1.616,-0.033c-0.595,-0 -1.224,0.34 -1.463,0.901c-0.186,0.442 -0.118,0.969 0.137,1.378m9.489,3.265c-0.425,-0.426 -1.02,-0.715 -1.667,-0.715c-1.003,-0 -1.003,0.103 -2.006,0.103c-1.02,-0 -1.02,-0.017 -2.024,-0.017c-1.004,-0 -1.004,-0.035 -2.006,-0.035c-0.544,0 -1.106,0.119 -1.463,0.476c-0.357,0.341 -0.562,0.902 -0.562,1.446c0,0.392 -0.016,0.392 -0.016,0.766c0,0.544 0.374,0.968 0.714,1.326c0.357,0.357 0.783,0.544 1.327,0.544c1.002,0 1.002,0.119 1.989,0.119c1.004,-0 1.004,-0.067 2.006,-0.067l2.007,-0c0.63,-0 1.259,-0.171 1.701,-0.579c0.426,-0.408 0.561,-1.037 0.578,-1.684c0,-0.645 -0.152,-1.241 -0.578,-1.683m2.636,1.65c0,0.561 -0.153,1.122 -0.356,1.632c-0.222,0.51 -0.647,0.884 -1.021,1.275c-0.391,0.392 -0.817,0.715 -1.327,0.935c-0.51,0.204 -1.02,0.307 -1.599,0.307c-0.9,0 -0.9,0.17 -1.784,0.17c-0.902,-0 -0.902,-0.017 -1.787,-0.017c-0.901,-0 -0.901,-0.102 -1.786,-0.102c-0.901,-0 -0.901,0.05 -1.803,0.05c-0.883,0 -0.883,0.017 -1.785,0.017c-0.51,0 -0.918,-0.475 -0.918,-0.986c-0,-0.952 0.017,-0.952 0.017,-1.904c-0,-0.969 -0.119,-0.969 -0.119,-1.922c0,-0.952 -0.017,-0.952 -0.017,-1.905c0,-0.952 0.119,-0.952 0.119,-1.904c-0,-0.953 -0.068,-0.953 -0.068,-1.905c-0,-0.97 0.068,-0.97 0.068,-1.921c-0,-0.511 0.408,-1.021 0.918,-1.021c0.902,-0 0.902,0.119 1.785,0.119c0.902,-0 0.902,-0.016 1.803,-0.016c0.885,-0 0.885,-0.018 1.786,-0.018c0.885,-0 0.885,0.068 1.787,0.068c0.884,-0 0.884,-0.034 1.784,-0.034c0.613,-0 1.157,0.187 1.667,0.476c0.51,0.289 1.054,0.612 1.344,1.123c0.289,0.509 0.374,1.139 0.374,1.752c0,0.883 -0.358,1.7 -0.935,2.295c0.543,0.391 1.088,0.867 1.394,1.463c0.289,0.577 0.459,1.275 0.459,1.973" style="fill:#1a171b;fill-rule:nonzero;"/><path d="M17.525,28.466c-0.119,1.088 0.868,1.769 1.837,1.769c0.935,0 0.935,0.136 1.87,0.136c0.936,-0 0.936,-0.068 1.871,-0.068c0.935,0 0.935,0.085 1.871,0.085c0.935,0 0.935,-0.136 1.871,-0.136c0.527,-0 0.936,0.493 0.918,1.037c-0.034,0.511 -0.425,0.919 -0.936,0.919c-0.935,-0 -0.935,-0.069 -1.87,-0.069c-0.936,0 -0.936,0.137 -1.854,0.137c-0.935,-0 -0.935,-0.068 -1.871,-0.068c-0.935,-0 -0.935,0.085 -1.87,0.085c-0.392,-0 -0.816,0.068 -1.157,0.305c-0.424,0.307 -0.629,1.004 -0.577,1.566c0.084,0.833 0.884,1.666 1.734,1.666c0.97,-0 1.678,-0.068 2.647,-0.068c0.969,0 0.969,-0.118 1.939,-0.118c0.968,-0 2.032,0.186 3.001,0.186c0.954,-0 0.954,-0.153 1.922,-0.153c0.97,0 0.97,-0.033 1.94,-0.033c0.526,-0 1.002,0.543 0.985,1.088c-0.017,0.509 -0.493,0.815 -1.003,0.815c-0.884,0 -0.884,0.052 -1.768,0.052c-0.885,-0 -0.885,0.136 -1.77,0.136c-0.884,0 -1.946,-0.085 -2.83,-0.085c-0.885,0 -0.885,-0.018 -1.77,-0.018c-0.884,0 -1.593,-0.085 -2.477,-0.085c-0.884,0 -0.884,-0.016 -1.769,-0.016c-0.867,0 -0.867,0.051 -1.751,0.051c-0.459,0 -0.919,-0.255 -1.003,-0.68c-0.017,-0.069 -0.035,-0.154 -0.035,-0.205c0,-0.918 0.17,-0.918 0.17,-1.819c0,-0.901 -0.135,-0.901 -0.135,-1.803c-0,-0.919 0.135,-0.919 0.135,-1.82c0,-0.901 -0.084,-0.901 -0.084,-1.802c-0,-0.918 0.068,-0.918 0.068,-1.82c-0,-0.561 -0.119,-1.14 -0.051,-1.684c-0,-0.152 0.033,-0.289 0.102,-0.425c0.051,-0.136 0.118,-0.255 0.221,-0.357c0.476,-0.492 1.735,-0.255 2.38,-0.255c0.885,0 0.885,-0.067 1.77,-0.067c0.884,-0 0.884,0.118 1.768,0.118c0.884,-0 0.884,-0.118 1.768,-0.118c0.884,-0 0.884,-0.052 1.769,-0.052c0.884,-0 0.884,0.102 1.768,0.102c0.885,0 0.885,0.068 1.77,0.068c0.527,-0 1.053,0.358 1.037,0.901c-0.017,0.51 -0.545,0.867 -1.054,0.867c-0.97,0 -0.97,-0.016 -1.939,-0.016c-0.953,-0 -0.953,0.102 -1.922,0.102c-0.969,-0 -0.969,-0.017 -1.938,-0.017c-0.953,-0 -0.953,-0.085 -1.922,-0.085c-0.969,-0 -0.969,0.119 -1.939,0.119c-0.646,-0 -1.207,0.39 -1.565,0.935c-0.136,0.205 -0.238,0.442 -0.272,0.697" style="fill:#1a171b;fill-rule:nonzero;"/><path d="M42.171,31.714c-0.527,-0.747 -0.493,-0.747 -1.02,-1.479c-0.528,-0.731 -0.459,-0.782 -0.986,-1.514c-0.46,-0.646 -1.548,-0.646 -2.008,0c-0.526,0.749 -0.442,0.8 -0.952,1.531c-0.528,0.731 -0.561,0.715 -1.088,1.446c-0.34,0.476 -0,1.173 0.595,1.173c0.816,0 0.816,0.068 1.633,0.068c0.799,0 0.799,-0.102 1.615,-0.102l1.632,-0c0.596,-0 0.919,-0.647 0.579,-1.123m4.643,5.851c-0.205,-0.018 -0.391,-0.086 -0.527,-0.238c-0.068,-0.069 -0.103,-0.153 -0.154,-0.222c-0.611,-1.003 -1.853,-1.768 -2.942,-2.126c-0.56,-0.186 -1.173,-0.356 -1.785,-0.356c-1.123,-0 -1.123,0.102 -2.262,0.102l-2.245,-0c-0.612,-0 -1.207,0.119 -1.769,0.306c-1.054,0.34 -2.176,1.003 -2.84,1.904c-0.186,0.255 -0.374,0.579 -0.68,0.697c-0.272,0.103 -0.527,-0.017 -0.766,-0.186c-0.424,-0.29 -0.543,-0.902 -0.237,-1.327c0.543,-0.765 0.578,-0.748 1.139,-1.53c0.544,-0.765 0.511,-0.799 1.072,-1.565c0.544,-0.782 0.595,-0.749 1.156,-1.531c0.56,-0.765 0.51,-0.798 1.071,-1.564c0.562,-0.783 0.579,-0.766 1.123,-1.548c0.561,-0.782 0.493,-0.816 1.054,-1.599c0.135,-0.186 0.324,-0.356 0.476,-0.544c0.256,-0.323 0.442,-0.713 0.732,-1.02c0.255,-0.272 0.646,-0.459 1.003,-0.323c0.204,0.068 0.375,0.256 0.51,0.426c0.816,0.952 1.548,1.988 2.261,3.009c0.562,0.766 0.46,0.851 1.021,1.616c0.545,0.782 0.562,0.765 1.123,1.547c0.561,0.766 0.578,0.749 1.122,1.531c0.561,0.782 0.527,0.8 1.072,1.581c0.561,0.766 0.561,0.783 1.105,1.548c0.459,0.663 -0.068,1.497 -0.833,1.412" style="fill:#1a171b;fill-rule:nonzero;"/><path d="M62.767,29.47c-0,-0.562 -0.016,-0.562 -0.016,-1.106c-0,-0.51 -0.239,-0.935 -0.58,-1.292c-0.339,-0.341 -0.764,-0.511 -1.291,-0.511c-1.021,0 -1.021,-0.033 -2.041,-0.033l-2.024,-0c-1.021,-0 -1.021,-0.086 -2.025,-0.086c-1.019,0 -1.019,-0.034 -2.039,-0.034c-0.834,0 -1.616,0.749 -1.616,1.599c-0,0.901 0.034,0.901 0.034,1.82c0,0.85 0.748,1.462 1.582,1.462c1.02,0 1.02,0.154 2.039,0.154c1.004,-0 1.004,0.017 2.025,0.017c1.021,-0 1.021,-0.12 2.024,-0.12c1.02,-0 1.02,0.103 2.041,0.103c0.527,-0 1.02,-0.273 1.361,-0.63c0.339,-0.34 0.526,-0.833 0.526,-1.343m1.769,6.632c0.289,0.426 0.187,1.088 -0.238,1.395c-0.17,0.118 -0.392,0.102 -0.578,0.102c-0.289,-0 -0.527,-0.136 -0.715,-0.391c-0.697,-0.97 -0.68,-0.987 -1.361,-1.973c-0.305,-0.426 -0.731,-0.783 -1.138,-1.071c-0.409,-0.306 -0.935,-0.443 -1.429,-0.613c-0.476,-0.153 -0.969,-0.391 -1.496,-0.391c-0.987,-0 -0.987,-0.017 -1.99,-0.017c-0.987,0 -0.987,0.136 -1.99,0.136c-0.646,-0 -1.31,0.17 -1.734,0.612c-0.443,0.425 -0.664,1.071 -0.664,1.735c-0,0.527 0.017,0.527 0.017,1.037c-0,0.511 -0.391,0.969 -0.902,1.004c-0.543,0.017 -0.985,-0.443 -0.985,-0.97c-0,-0.935 0.101,-0.935 0.101,-1.87c-0,-0.918 -0.034,-0.918 -0.034,-1.854c0,-0.935 -0.101,-0.935 -0.101,-1.871c-0,-0.918 0.016,-0.918 0.016,-1.854c0,-0.934 -0.067,-0.934 -0.067,-1.853l-0,-1.871c-0,-0.051 0.033,-0.136 0.051,-0.203c0.084,-0.426 0.527,-0.664 0.986,-0.664c0.884,-0 0.884,-0.17 1.768,-0.17l1.752,0c0.884,0 0.884,0.068 1.768,0.068c0.886,0 0.886,0.12 1.769,0.12l1.769,-0c0.884,-0 0.884,-0.154 1.769,-0.154c0.68,-0 1.309,0.289 1.853,0.612c0.579,0.34 1.072,0.782 1.411,1.36c0.324,0.544 0.46,1.191 0.46,1.871c-0,0.544 0.101,0.544 0.101,1.106c0,0.952 -0.457,1.785 -1.053,2.449c-0.358,0.408 -0.425,0.969 -0.442,1.479c-0.035,0.511 0.119,0.987 0.425,1.429c0.459,0.628 0.442,0.646 0.901,1.275" style="fill:#1a171b;fill-rule:nonzero;"/><path d="M80.685,29.163c-0,-0.747 -0.289,-1.445 -0.781,-1.939c-0.477,-0.476 -1.174,-0.782 -1.923,-0.782c-0.918,0 -0.918,-0.034 -1.836,-0.034c-0.936,0 -0.936,-0.017 -1.854,-0.017c-0.918,0 -0.918,0.153 -1.854,0.153c-0.918,0 -0.918,-0.016 -1.837,-0.016c-0.646,-0 -1.207,0.237 -1.631,0.663c-0.426,0.408 -0.63,0.969 -0.63,1.615c0,0.817 -0.136,0.817 -0.136,1.633c-0,0.816 0.017,0.816 0.017,1.633c-0,0.816 0.034,0.816 0.034,1.633c0,0.646 0.323,1.19 0.73,1.598c0.426,0.425 0.97,0.698 1.616,0.698l1.837,-0c0.936,-0 0.936,0.033 1.854,0.033c0.918,-0 0.918,-0.017 1.854,-0.017c0.918,-0 0.918,0.119 1.836,0.119c0.749,0 1.463,-0.357 1.956,-0.833c0.477,-0.494 0.68,-1.208 0.68,-1.956c0,-1.038 0.137,-1.038 0.153,-2.092c0.018,-1.037 -0.085,-1.054 -0.085,-2.092m1.803,4.184c-0,0.63 0.017,1.242 -0.204,1.785c-0.239,0.562 -0.714,0.97 -1.139,1.396c-0.426,0.407 -0.816,0.9 -1.378,1.139c-0.544,0.22 -1.156,0.272 -1.786,0.272c-0.884,0 -0.884,-0.069 -1.769,-0.069c-0.901,0 -0.901,-0.016 -1.785,-0.016c-0.885,0 -0.885,0.101 -1.768,0.101c-0.902,0 -0.902,-0.118 -1.786,-0.118c-0.885,0 -0.885,0.085 -1.769,0.085c-0.901,-0 -0.901,-0.035 -1.786,-0.035c-0.526,0 -0.901,-0.39 -0.901,-0.901c0,-0.952 0.017,-0.952 0.017,-1.904c-0,-0.969 0.017,-0.969 0.017,-1.922c0,-0.952 -0.154,-0.952 -0.154,-1.905c0,-0.952 0.035,-0.952 0.035,-1.904l-0,-1.905c-0,-0.97 -0.035,-0.97 -0.035,-1.922c0,-0.51 0.495,-0.885 1.021,-0.885c0.885,0 0.885,-0.016 1.786,-0.016c0.884,-0 0.884,-0.017 1.769,-0.017c0.884,0 0.884,-0.085 1.786,-0.085c0.883,-0 0.883,0.034 1.768,0.034c0.884,0 0.884,-0.017 1.785,-0.017c0.885,0 0.885,0.051 1.769,0.051c0.63,-0 1.225,0.101 1.769,0.323c0.544,0.239 0.986,0.663 1.395,1.088c0.425,0.408 0.765,0.885 1.003,1.429c0.221,0.545 0.46,1.106 0.46,1.734c-0,1.038 -0.103,1.038 -0.12,2.092c-0.018,1.054 -0,1.054 -0,2.092" style="fill:#1a171b;fill-rule:nonzero;"/><path d="M101.156,34.113c-0,0.696 -0.323,1.326 -0.646,1.888c-0.341,0.577 -0.817,1.003 -1.395,1.343c-0.561,0.323 -1.173,0.51 -1.854,0.51c-0.952,0 -0.952,0.085 -1.888,0.085c-0.952,-0 -0.952,-0.034 -1.887,-0.034c-0.935,-0 -0.935,0.05 -1.888,0.05c-0.935,0 -0.935,-0.068 -1.871,-0.068c-0.952,0 -0.952,-0.017 -1.887,-0.017c-0.697,0 -1.343,-0.119 -1.905,-0.442c-0.578,-0.339 -1.089,-0.815 -1.429,-1.394c-0.322,-0.561 -0.544,-1.225 -0.544,-1.921c-0,-0.511 0.494,-0.851 1.021,-0.851c0.51,0 0.935,0.34 0.935,0.851c0,0.543 0.256,0.986 0.595,1.326c0.357,0.357 0.799,0.663 1.327,0.663c0.935,0 0.935,-0.17 1.887,-0.17c0.936,0 0.936,0.017 1.871,0.017c0.953,0 0.953,0.085 1.888,0.085c0.953,-0 0.953,0.034 1.887,0.034c0.936,-0 0.936,0.051 1.888,0.051c0.527,0 1.072,-0.237 1.411,-0.578c0.341,-0.357 0.46,-0.885 0.46,-1.428c-0,-0.528 -0.238,-0.936 -0.595,-1.277c-0.34,-0.356 -0.749,-0.628 -1.276,-0.628c-0.952,-0 -0.952,0.068 -1.888,0.068c-0.952,-0 -0.952,0.017 -1.887,0.017c-0.935,-0 -0.935,-0.187 -1.888,-0.187c-0.935,-0 -0.935,0.153 -1.871,0.153c-0.952,-0 -0.952,-0.153 -1.887,-0.153c-0.697,-0 -1.309,-0.137 -1.871,-0.459c-0.578,-0.341 -1.123,-0.749 -1.463,-1.326c-0.322,-0.562 -0.425,-1.242 -0.425,-1.923c0,-0.697 0.12,-1.361 0.442,-1.922c0.323,-0.578 0.885,-0.969 1.462,-1.292c0.562,-0.339 1.158,-0.577 1.855,-0.577c0.935,-0 0.935,-0.086 1.887,-0.086c0.936,-0 0.936,0.034 1.871,0.034c0.953,0 0.953,-0.051 1.888,-0.051c0.953,-0 0.953,0.085 1.887,0.085c0.936,-0 0.936,-0.068 1.888,-0.068c0.681,-0 1.378,0.187 1.939,0.51c0.578,0.34 0.952,0.918 1.292,1.497c0.323,0.561 0.63,1.173 0.63,1.87c0,0.51 -0.476,1.021 -1.004,1.021c-0.526,0 -1.036,-0.511 -1.036,-1.021c-0,-0.527 -0.12,-1.02 -0.477,-1.361c-0.34,-0.339 -0.817,-0.577 -1.344,-0.577c-0.952,-0 -0.952,-0.017 -1.888,-0.017c-0.952,-0 -0.952,0.068 -1.887,0.068l-1.888,-0c-0.935,-0 -0.935,0.033 -1.871,0.033c-0.952,0 -0.952,-0.118 -1.887,-0.118c-0.528,-0 -0.952,0.322 -1.309,0.663c-0.34,0.357 -0.579,0.782 -0.579,1.309c0,0.527 0.153,1.038 0.493,1.395c0.358,0.34 0.867,0.578 1.395,0.578c0.935,-0 0.935,-0.136 1.887,-0.136c0.936,0 0.936,-0.017 1.871,-0.017c0.953,0 0.953,0.17 1.888,0.17c0.953,0 0.953,-0.153 1.887,-0.153c0.936,0 0.936,0.17 1.888,0.17c0.681,0 1.378,0.016 1.939,0.34c0.578,0.323 0.935,0.953 1.259,1.531c0.323,0.544 0.697,1.156 0.697,1.837" style="fill:#1a171b;fill-rule:nonzero;"/><path d="M3.804,44.713c0,0.155 -0.071,0.293 -0.143,0.417c-0.075,0.128 -0.18,0.223 -0.308,0.298c-0.125,0.071 -0.26,0.112 -0.411,0.112c-0.21,0 -0.21,0.019 -0.417,0.019c-0.211,0 -0.211,-0.007 -0.418,-0.007c-0.207,-0 -0.207,0.011 -0.418,0.011c-0.206,0 -0.206,-0.015 -0.413,-0.015c-0.211,-0 -0.211,-0.004 -0.418,-0.004c-0.154,0 -0.297,-0.026 -0.421,-0.097c-0.128,-0.076 -0.241,-0.181 -0.316,-0.31c-0.072,-0.123 -0.121,-0.269 -0.121,-0.424c0,-0.113 0.109,-0.188 0.226,-0.188c0.113,-0 0.207,0.075 0.207,0.188c-0,0.12 0.056,0.219 0.132,0.293c0.078,0.08 0.176,0.147 0.293,0.147c0.207,-0 0.207,-0.037 0.418,-0.037c0.207,0 0.207,0.003 0.413,0.003c0.211,0 0.211,0.018 0.418,0.018c0.211,0 0.211,0.009 0.418,0.009c0.207,-0 0.207,0.011 0.417,0.011c0.117,-0 0.238,-0.052 0.313,-0.128c0.075,-0.079 0.101,-0.196 0.101,-0.316c-0,-0.117 -0.052,-0.207 -0.131,-0.282c-0.076,-0.079 -0.166,-0.139 -0.283,-0.139c-0.21,-0 -0.21,0.015 -0.417,0.015c-0.211,-0 -0.211,0.003 -0.418,0.003c-0.207,0 -0.207,-0.041 -0.418,-0.041c-0.206,-0 -0.206,0.034 -0.413,0.034c-0.211,-0 -0.211,-0.034 -0.418,-0.034c-0.154,-0 -0.29,-0.03 -0.414,-0.102c-0.128,-0.075 -0.248,-0.165 -0.323,-0.293c-0.072,-0.124 -0.094,-0.274 -0.094,-0.425c-0,-0.155 0.026,-0.301 0.097,-0.425c0.072,-0.128 0.196,-0.215 0.324,-0.286c0.124,-0.075 0.256,-0.128 0.41,-0.128c0.207,-0 0.207,-0.019 0.418,-0.019c0.207,-0 0.207,0.007 0.413,0.007c0.211,0 0.211,-0.011 0.418,-0.011c0.211,0 0.211,0.02 0.418,0.02c0.207,-0 0.207,-0.016 0.417,-0.016c0.151,-0 0.305,0.042 0.429,0.112c0.128,0.077 0.211,0.204 0.286,0.332c0.071,0.124 0.14,0.259 0.14,0.414c-0,0.112 -0.106,0.225 -0.223,0.225c-0.116,-0 -0.229,-0.113 -0.229,-0.225c-0,-0.117 -0.027,-0.227 -0.106,-0.301c-0.075,-0.075 -0.18,-0.128 -0.297,-0.128c-0.21,-0 -0.21,-0.003 -0.417,-0.003c-0.211,-0 -0.211,0.014 -0.418,0.014l-0.418,-0c-0.206,-0 -0.206,0.007 -0.413,0.007c-0.211,0 -0.211,-0.025 -0.418,-0.025c-0.117,-0 -0.211,0.071 -0.29,0.146c-0.075,0.08 -0.128,0.173 -0.128,0.29c0,0.116 0.034,0.229 0.11,0.309c0.079,0.075 0.191,0.127 0.308,0.127c0.207,0 0.207,-0.03 0.418,-0.03c0.207,0 0.207,-0.004 0.413,-0.004c0.211,-0 0.211,0.038 0.418,0.038c0.211,-0 0.211,-0.034 0.418,-0.034c0.207,0 0.207,0.038 0.417,0.038c0.151,-0 0.305,0.004 0.429,0.075c0.128,0.072 0.207,0.211 0.279,0.339c0.071,0.12 0.154,0.255 0.154,0.406" style="fill:#1a171b;fill-rule:nonzero;"/><path d="M10.067,42.994c-0.124,0.169 -0.109,0.181 -0.233,0.35c-0.124,0.173 -0.113,0.18 -0.233,0.353c-0.124,0.17 -0.132,0.166 -0.256,0.335c-0.124,0.173 -0.135,0.165 -0.256,0.335c-0.124,0.173 -0.105,0.184 -0.229,0.357c-0.121,0.173 -0.124,0.169 -0.249,0.342c-0.045,0.064 -0.086,0.128 -0.139,0.192c-0.072,0.08 -0.116,0.2 -0.233,0.229c-0.049,0.012 -0.105,0 -0.15,-0.025c-0.133,-0.068 -0.196,-0.207 -0.279,-0.324c-0.098,-0.139 -0.071,-0.158 -0.173,-0.297c-0.098,-0.135 -0.117,-0.124 -0.215,-0.264c-0.116,-0.161 -0.357,-0.173 -0.473,-0.011c-0.099,0.14 -0.102,0.14 -0.2,0.275c-0.101,0.139 -0.082,0.154 -0.18,0.289c-0.042,0.057 -0.083,0.113 -0.125,0.166c-0.045,0.053 -0.093,0.151 -0.158,0.18c-0.022,0.008 -0.041,0.011 -0.063,0.011c-0.08,0 -0.144,-0.033 -0.196,-0.078c-0.045,-0.042 -0.087,-0.098 -0.124,-0.151c-0.045,-0.064 -0.091,-0.124 -0.136,-0.188c-0.116,-0.177 -0.116,-0.177 -0.241,-0.346c-0.12,-0.173 -0.105,-0.184 -0.229,-0.357c-0.125,-0.17 -0.117,-0.177 -0.237,-0.346c-0.124,-0.174 -0.128,-0.17 -0.252,-0.339c-0.124,-0.173 -0.121,-0.173 -0.241,-0.346c-0.124,-0.173 -0.128,-0.169 -0.252,-0.339c-0.068,-0.093 -0.056,-0.226 0.038,-0.294c0.094,-0.066 0.233,-0.041 0.301,0.054c0.109,0.154 0.124,0.143 0.233,0.297c0.109,0.154 0.086,0.172 0.199,0.327c0.109,0.155 0.105,0.159 0.219,0.312c0.108,0.154 0.124,0.144 0.233,0.298c0.113,0.153 0.105,0.161 0.214,0.316c0.109,0.154 0.094,0.165 0.203,0.319c0.114,0.154 0.132,0.249 0.237,0.249c0.113,-0 0.128,-0.124 0.252,-0.298c0.125,-0.173 0.109,-0.184 0.234,-0.357c0.075,-0.102 0.139,-0.214 0.139,-0.335c-0,-0.123 -0.061,-0.24 -0.132,-0.342c-0.098,-0.135 -0.09,-0.144 -0.184,-0.275c-0.098,-0.135 -0.106,-0.128 -0.2,-0.263c-0.068,-0.094 -0.037,-0.225 0.057,-0.293c0.094,-0.068 0.207,-0.038 0.274,0.056c0.102,0.143 0.113,0.139 0.215,0.282c0.105,0.147 0.094,0.154 0.195,0.297c0.068,0.094 0.226,0.087 0.294,-0.003c0.101,-0.147 0.079,-0.162 0.184,-0.309c0.102,-0.143 0.102,-0.143 0.208,-0.286c0.063,-0.094 0.214,-0.109 0.308,-0.046c0.093,0.068 0.109,0.204 0.041,0.294c-0.094,0.136 -0.109,0.124 -0.207,0.26c-0.094,0.132 -0.079,0.147 -0.173,0.279c-0.075,0.105 -0.105,0.226 -0.105,0.349c-0,0.121 0.03,0.24 0.105,0.346c0.124,0.173 0.128,0.169 0.252,0.343c0.125,0.173 0.151,0.316 0.241,0.319c0.102,0.012 0.128,-0.113 0.241,-0.267c0.109,-0.154 0.105,-0.157 0.214,-0.312c0.109,-0.154 0.106,-0.158 0.219,-0.312c0.109,-0.155 0.101,-0.162 0.21,-0.316c0.113,-0.155 0.106,-0.158 0.218,-0.312c0.109,-0.155 0.125,-0.148 0.234,-0.301c0.109,-0.155 0.093,-0.166 0.203,-0.32c0.068,-0.095 0.195,-0.095 0.29,-0.026c0.093,0.064 0.116,0.173 0.048,0.267" style="fill:#1a171b;fill-rule:nonzero;"/><path d="M12.237,44.183c-0.117,-0.166 -0.108,-0.166 -0.226,-0.328c-0.116,-0.162 -0.101,-0.173 -0.218,-0.335c-0.101,-0.143 -0.342,-0.143 -0.444,0c-0.116,0.166 -0.098,0.177 -0.21,0.339c-0.117,0.162 -0.125,0.158 -0.241,0.32c-0.076,0.105 -0,0.259 0.131,0.259c0.182,0 0.182,0.015 0.362,0.015c0.176,0 0.176,-0.022 0.357,-0.022l0.361,-0c0.132,-0 0.203,-0.143 0.128,-0.248m1.027,1.293c-0.045,-0.003 -0.086,-0.018 -0.116,-0.051c-0.016,-0.016 -0.023,-0.035 -0.034,-0.05c-0.135,-0.222 -0.41,-0.391 -0.651,-0.47c-0.124,-0.042 -0.26,-0.079 -0.395,-0.079c-0.249,-0 -0.249,0.022 -0.501,0.022l-0.496,0c-0.136,0 -0.268,0.027 -0.391,0.068c-0.234,0.076 -0.482,0.222 -0.629,0.422c-0.041,0.056 -0.082,0.128 -0.15,0.154c-0.06,0.023 -0.116,-0.005 -0.17,-0.042c-0.094,-0.064 -0.12,-0.199 -0.052,-0.293c0.12,-0.169 0.128,-0.165 0.252,-0.338c0.12,-0.17 0.113,-0.177 0.237,-0.347c0.12,-0.174 0.132,-0.165 0.256,-0.338c0.124,-0.17 0.113,-0.177 0.237,-0.347c0.124,-0.173 0.128,-0.169 0.248,-0.342c0.124,-0.173 0.109,-0.181 0.233,-0.354c0.03,-0.041 0.072,-0.078 0.105,-0.12c0.057,-0.071 0.098,-0.158 0.162,-0.226c0.057,-0.06 0.143,-0.101 0.222,-0.071c0.046,0.015 0.083,0.056 0.113,0.094c0.181,0.21 0.343,0.44 0.501,0.666c0.124,0.169 0.101,0.188 0.226,0.357c0.12,0.173 0.124,0.169 0.247,0.343c0.125,0.169 0.129,0.164 0.249,0.338c0.125,0.174 0.117,0.177 0.237,0.35c0.124,0.17 0.124,0.173 0.245,0.343c0.101,0.146 -0.016,0.33 -0.185,0.311" style="fill:#1a171b;fill-rule:nonzero;"/><path d="M17.143,45.413c-0.042,0.053 -0.098,0.067 -0.162,0.067c-0.046,0 -0.095,0.004 -0.135,-0.026c-0.159,-0.131 -0.166,-0.12 -0.328,-0.248c-0.158,-0.128 -0.158,-0.132 -0.316,-0.26c-0.158,-0.131 -0.154,-0.135 -0.316,-0.263c-0.158,-0.128 -0.146,-0.143 -0.309,-0.271c-0.101,-0.083 -0.226,-0.12 -0.349,-0.128c-0.124,-0.007 -0.26,0.015 -0.369,0.083c-0.072,0.049 -0.075,0.041 -0.147,0.09c-0.113,0.072 -0.214,0.181 -0.278,0.298c-0.064,0.113 -0.064,0.255 -0.064,0.391c-0,0.067 -0.023,0.067 -0.023,0.131c0,0.113 -0.083,0.218 -0.195,0.222c-0.117,0.004 -0.196,-0.097 -0.196,-0.214c-0,-0.203 -0.015,-0.203 -0.015,-0.403c0,-0.199 -0.011,-0.199 -0.011,-0.399c-0,-0.202 -0.008,-0.202 -0.008,-0.402c0,-0.2 0.008,-0.2 0.008,-0.399c-0,-0.203 0.011,-0.203 0.011,-0.402c0,-0.2 -0.026,-0.2 -0.026,-0.399c-0,-0.12 0.12,-0.226 0.237,-0.222c0.112,0.008 0.206,0.112 0.206,0.225c0,0.218 -0.011,0.218 -0.011,0.44c0,0.219 -0.007,0.219 -0.007,0.441c-0,0.116 0.086,0.211 0.199,0.233c0.139,0.026 0.256,-0.075 0.365,-0.143c0.29,-0.173 0.572,-0.361 0.858,-0.546c0.154,-0.101 0.161,-0.09 0.316,-0.191c0.158,-0.101 0.147,-0.121 0.305,-0.222c0.154,-0.098 0.15,-0.105 0.308,-0.207c0.098,-0.064 0.226,-0.011 0.286,0.082c0.064,0.098 0.041,0.215 -0.057,0.275c-0.15,0.098 -0.143,0.109 -0.293,0.207c-0.151,0.098 -0.143,0.109 -0.293,0.207c-0.151,0.098 -0.166,0.079 -0.317,0.177c-0.101,0.064 -0.143,0.173 -0.149,0.282c-0.005,0.109 0.022,0.226 0.116,0.301c0.139,0.113 0.131,0.125 0.27,0.237c0.144,0.113 0.158,0.094 0.301,0.207c0.14,0.113 0.136,0.116 0.279,0.229c0.14,0.113 0.135,0.117 0.278,0.23c0.091,0.071 0.106,0.2 0.031,0.29" style="fill:#1a171b;fill-rule:nonzero;"/><path d="M20.931,43.618c-0,-0.165 -0.076,-0.319 -0.185,-0.425c-0.108,-0.109 -0.263,-0.169 -0.425,-0.169c-0.225,-0 -0.225,0.018 -0.447,0.018c-0.226,0 -0.226,-0.018 -0.448,-0.018c-0.226,-0 -0.226,0.007 -0.448,0.007c-0.225,0 -0.225,0.011 -0.448,0.011c-0.165,0 -0.323,0.038 -0.432,0.144c-0.105,0.108 -0.173,0.267 -0.173,0.432c-0,0.229 -0.015,0.233 -0.012,0.463c0.004,0.233 0.027,0.233 0.027,0.462c-0,0.166 0.053,0.325 0.158,0.433c0.109,0.106 0.267,0.147 0.432,0.147c0.223,-0 0.223,0.03 0.448,0.03c0.222,-0 0.222,-0.007 0.448,-0.007c0.222,-0 0.222,-0.019 0.448,-0.019c0.222,-0 0.222,0.011 0.447,0.011c0.162,-0 0.317,-0.06 0.425,-0.169c0.106,-0.106 0.177,-0.26 0.177,-0.426c0,-0.229 0.004,-0.229 0.004,-0.462c0,-0.234 0.004,-0.234 0.004,-0.463m0.394,0c0,0.229 -0.007,0.229 -0.007,0.463l0,0.462c0,0.14 -0.022,0.268 -0.071,0.384c-0.053,0.125 -0.117,0.242 -0.211,0.331c-0.094,0.095 -0.195,0.189 -0.32,0.241c-0.12,0.049 -0.259,0.06 -0.395,0.06c-0.225,0 -0.225,0.004 -0.447,0.004c-0.226,0 -0.226,0.012 -0.448,0.012c-0.226,-0 -0.226,-0.035 -0.448,-0.035c-0.225,0 -0.225,0.004 -0.448,0.004c-0.139,0 -0.271,-0.011 -0.387,-0.06c-0.124,-0.053 -0.245,-0.12 -0.338,-0.214c-0.095,-0.094 -0.17,-0.211 -0.223,-0.331c-0.049,-0.12 -0.064,-0.256 -0.064,-0.396c0,-0.229 0.005,-0.229 0.005,-0.462c-0,-0.234 -0.023,-0.234 -0.023,-0.463c-0,-0.139 0.033,-0.274 0.082,-0.392c0.053,-0.124 0.124,-0.244 0.219,-0.338c0.094,-0.094 0.225,-0.135 0.349,-0.189c0.121,-0.048 0.241,-0.096 0.38,-0.096c0.223,-0 0.223,0.018 0.448,0.018c0.222,-0 0.222,-0.034 0.448,-0.034c0.222,0 0.222,0.034 0.448,0.034c0.222,-0 0.222,-0.011 0.447,-0.011c0.136,-0 0.271,0.011 0.392,0.064c0.124,0.049 0.232,0.131 0.323,0.226c0.094,0.094 0.162,0.21 0.215,0.335c0.048,0.116 0.074,0.244 0.074,0.383" style="fill:#1a171b;fill-rule:nonzero;"/><path d="M24.831,43.686c0,-0.125 -0.018,-0.125 -0.018,-0.245c-0,-0.113 -0.03,-0.233 -0.106,-0.308c-0.078,-0.075 -0.195,-0.128 -0.308,-0.128c-0.214,-0 -0.214,0.003 -0.429,0.003c-0.214,0 -0.214,0.03 -0.429,0.03c-0.214,0 -0.214,-0.014 -0.425,-0.014c-0.214,-0 -0.214,0.003 -0.429,0.003c-0.116,-0 -0.214,0.053 -0.293,0.128c-0.076,0.08 -0.109,0.177 -0.109,0.294c-0,0.112 -0.011,0.112 -0.011,0.229c-0,0.117 0.034,0.226 0.108,0.305c0.079,0.076 0.189,0.125 0.305,0.125c0.215,-0 0.215,-0.004 0.429,-0.004c0.211,-0 0.211,0.004 0.425,0.004c0.215,-0 0.215,0.017 0.429,0.017c0.215,0 0.215,-0.025 0.429,-0.025c0.113,-0 0.215,-0.049 0.29,-0.124c0.075,-0.076 0.142,-0.177 0.142,-0.29m0.414,-0c-0,0.151 -0.033,0.305 -0.105,0.429c-0.071,0.128 -0.192,0.23 -0.32,0.301c-0.124,0.071 -0.27,0.102 -0.421,0.102l-0.391,-0c-0.196,-0 -0.196,0.003 -0.392,0.003c-0.195,0 -0.195,-0.003 -0.391,-0.003c-0.195,-0 -0.195,-0.02 -0.391,-0.02c-0.158,0 -0.298,0.091 -0.399,0.196c-0.105,0.102 -0.166,0.24 -0.166,0.399c0,0.09 -0.022,0.09 -0.022,0.184c-0,0.113 -0.072,0.215 -0.184,0.218c-0.121,0.004 -0.203,-0.093 -0.203,-0.21c-0,-0.207 -0.012,-0.207 -0.012,-0.414c0,-0.203 -0.022,-0.203 -0.022,-0.41c-0,-0.207 0.038,-0.207 0.038,-0.414c-0,-0.203 -0.016,-0.203 -0.016,-0.41c0,-0.229 -0.015,-0.459 -0.004,-0.688c0.004,-0.057 0.008,-0.113 0.012,-0.167c-0,-0.021 0.004,-0.044 0.011,-0.066c0.068,-0.204 0.429,-0.109 0.576,-0.109c0.195,-0 0.195,-0.016 0.391,-0.016c0.196,-0 0.196,0.03 0.391,0.03c0.196,-0 0.196,0.004 0.391,0.004l0.392,-0c0.196,-0 0.196,-0.008 0.391,-0.008c0.151,-0 0.301,0.016 0.425,0.087c0.124,0.075 0.226,0.192 0.301,0.32c0.072,0.124 0.113,0.267 0.113,0.417c0,0.12 0.007,0.12 0.007,0.245" style="fill:#1a171b;fill-rule:nonzero;"/><path d="M29.718,43.28c0,0.199 -0.034,0.199 -0.034,0.402c0,0.199 0.011,0.199 0.011,0.399c0,0.2 -0.007,0.2 -0.007,0.402c-0,0.2 -0.004,0.2 -0.004,0.399c0,0.2 0.008,0.2 0.008,0.403c-0,0.117 -0.083,0.218 -0.203,0.214c-0.113,-0.004 -0.2,-0.109 -0.2,-0.222c0,-0.211 -0.011,-0.211 -0.011,-0.421c-0,-0.21 0.015,-0.21 0.015,-0.422l0,-0.421c0,-0.166 -0.218,-0.24 -0.32,-0.105c-0.139,0.18 -0.131,0.184 -0.271,0.365c-0.139,0.181 -0.147,0.177 -0.282,0.357c-0.139,0.181 -0.143,0.177 -0.282,0.358c-0.057,0.075 -0.113,0.15 -0.169,0.221c-0.035,0.046 -0.064,0.098 -0.102,0.144c-0.019,0.018 -0.034,0.033 -0.052,0.049c-0.024,0.014 -0.049,0.026 -0.076,0.029c-0.165,0.031 -0.244,-0.139 -0.335,-0.24c-0.052,-0.064 -0.105,-0.125 -0.158,-0.188c-0.135,-0.181 -0.116,-0.196 -0.256,-0.376c-0.139,-0.181 -0.131,-0.185 -0.271,-0.366c-0.139,-0.18 -0.165,-0.161 -0.301,-0.342c-0.101,-0.135 -0.304,-0.072 -0.304,0.094c-0,0.214 0.011,0.214 0.011,0.425c-0,0.211 -0.026,0.211 -0.026,0.422c-0,0.21 0.037,0.21 0.037,0.425c0,0.117 -0.12,0.23 -0.237,0.226c-0.113,-0.004 -0.18,-0.121 -0.18,-0.234c0,-0.199 -0.019,-0.199 -0.019,-0.398c0,-0.2 0.019,-0.2 0.019,-0.399c0,-0.199 -0.011,-0.199 -0.011,-0.403c-0,-0.199 -0.004,-0.199 -0.004,-0.399c-0,-0.131 -0.004,-0.259 -0.004,-0.391c-0.004,-0.154 -0.049,-0.332 0.015,-0.474c0.038,-0.079 0.109,-0.143 0.196,-0.143c0.064,-0.003 0.127,0.033 0.177,0.079c0.093,0.091 0.161,0.204 0.24,0.305c0.09,0.117 0.181,0.237 0.272,0.358c0.127,0.164 0.116,0.176 0.244,0.342c0.127,0.169 0.112,0.18 0.24,0.35c0.128,0.165 0.155,0.146 0.283,0.312c0.086,0.117 0.203,0.177 0.334,0.177c0.132,-0 0.279,-0.038 0.366,-0.155c0.127,-0.165 0.097,-0.192 0.225,-0.357c0.128,-0.17 0.155,-0.147 0.282,-0.316c0.128,-0.165 0.121,-0.173 0.249,-0.339c0.128,-0.169 0.116,-0.176 0.244,-0.346c0.083,-0.109 0.181,-0.207 0.267,-0.316c0.031,-0.042 0.068,-0.079 0.117,-0.094c0.09,-0.026 0.184,0.033 0.229,0.117c0.083,0.147 0.038,0.334 0.038,0.493" style="fill:#1a171b;fill-rule:nonzero;"/><path d="M34.037,44.543c-0,0.14 -0.038,0.268 -0.091,0.388c-0.049,0.121 -0.12,0.238 -0.215,0.327c-0.09,0.095 -0.202,0.166 -0.327,0.218c-0.12,0.05 -0.248,0.103 -0.387,0.103c-0.222,-0 -0.222,-0.023 -0.448,-0.023l-0.447,0c-0.222,0 -0.222,0.019 -0.449,0.019l-0.447,-0c-0.135,-0 -0.26,-0.057 -0.38,-0.106c-0.124,-0.053 -0.233,-0.12 -0.327,-0.214c-0.094,-0.094 -0.162,-0.203 -0.215,-0.328c-0.049,-0.12 -0.101,-0.244 -0.101,-0.384c-0,-0.206 0.015,-0.206 0.015,-0.413c-0,-0.211 0.018,-0.211 0.018,-0.417c0,-0.208 -0.018,-0.208 -0.018,-0.419c-0,-0.206 0.018,-0.206 0.018,-0.413c0,-0.117 0.072,-0.196 0.189,-0.196c0.116,-0 0.199,0.079 0.199,0.196c0,0.207 0.019,0.207 0.019,0.413c-0,0.211 -0.004,0.211 -0.004,0.419c-0,0.206 0.011,0.206 0.011,0.417c0,0.207 -0.014,0.207 -0.014,0.413c-0,0.166 0.059,0.317 0.168,0.426c0.11,0.105 0.26,0.15 0.422,0.15c0.226,0 0.226,0.022 0.447,0.022c0.227,0 0.227,-0.007 0.449,-0.007c0.225,-0 0.225,-0.004 0.447,-0.004c0.226,0 0.226,-0.003 0.448,-0.003c0.165,-0 0.315,-0.053 0.421,-0.162c0.109,-0.105 0.158,-0.256 0.158,-0.422c0,-0.206 -0.003,-0.206 -0.003,-0.413c-0,-0.211 0.026,-0.211 0.026,-0.417c0,-0.208 0.015,-0.208 0.015,-0.419c-0,-0.206 -0.038,-0.206 -0.038,-0.413c0,-0.117 0.109,-0.218 0.226,-0.218c0.117,-0 0.207,0.101 0.207,0.218c-0,0.207 0.003,0.207 0.003,0.413c0,0.211 -0.003,0.211 -0.003,0.419c-0,0.206 -0.004,0.206 -0.004,0.417c-0,0.207 0.012,0.207 0.012,0.413" style="fill:#1a171b;fill-rule:nonzero;"/><path d="M37.919,44.483c-0,0.279 0.011,0.565 -0.008,0.843c-0,0.027 -0,0.053 -0.015,0.079c-0.011,0.023 -0.03,0.041 -0.053,0.057c-0.064,0.037 -0.146,0.03 -0.214,-0c-0.139,-0.057 -0.267,-0.185 -0.384,-0.279c-0.165,-0.139 -0.154,-0.154 -0.32,-0.29c-0.168,-0.138 -0.161,-0.146 -0.327,-0.286c-0.166,-0.138 -0.185,-0.116 -0.354,-0.251c-0.165,-0.14 -0.15,-0.159 -0.315,-0.294c-0.17,-0.139 -0.162,-0.147 -0.328,-0.287c-0.113,-0.093 -0.275,-0.097 -0.391,-0.04c-0.113,0.052 -0.196,0.18 -0.196,0.327c0,0.203 -0.004,0.203 -0.004,0.407c0,0.202 0.015,0.202 0.015,0.406c0,0.203 -0.022,0.203 -0.022,0.41c0,0.117 -0.083,0.218 -0.204,0.214c-0.112,-0.004 -0.206,-0.109 -0.206,-0.222c-0,-0.199 -0.012,-0.199 -0.012,-0.398c0,-0.2 0.019,-0.2 0.019,-0.399c0,-0.199 -0.011,-0.199 -0.011,-0.403c0,-0.199 0.026,-0.199 0.026,-0.399c0,-0.138 -0.003,-0.278 -0.011,-0.421c-0.008,-0.124 -0.041,-0.271 -0.011,-0.391c0.007,-0.023 0.015,-0.049 0.026,-0.072c0.015,-0.03 0.034,-0.06 0.057,-0.082c0.064,-0.057 0.165,-0.049 0.244,-0.013c0.14,0.069 0.248,0.185 0.365,0.283c0.162,0.143 0.169,0.132 0.339,0.271c0.165,0.139 0.15,0.155 0.316,0.294c0.169,0.139 0.165,0.139 0.335,0.279c0.165,0.134 0.165,0.138 0.331,0.274c0.165,0.139 0.184,0.116 0.353,0.252c0.113,0.094 0.233,0.102 0.35,0.048c0.113,-0.052 0.218,-0.15 0.218,-0.3c0,-0.203 -0.003,-0.203 -0.003,-0.407c-0,-0.203 0.011,-0.203 0.011,-0.406c0,-0.203 -0.041,-0.203 -0.041,-0.406c-0,-0.12 0.116,-0.2 0.236,-0.196c0.113,0.004 0.192,0.086 0.192,0.199c0,0.2 -0.003,0.2 -0.003,0.399c-0,0.2 0.011,0.2 0.011,0.399c-0,0.203 0.011,0.203 0.011,0.402c0,0.2 -0.022,0.2 -0.022,0.399" style="fill:#1a171b;fill-rule:nonzero;"/><path d="M41.62,43.618c0,-0.165 -0.065,-0.319 -0.174,-0.428c-0.104,-0.106 -0.259,-0.173 -0.425,-0.173c-0.202,-0 -0.202,-0.009 -0.406,-0.009c-0.207,0 -0.207,-0.003 -0.41,-0.003c-0.203,-0 -0.203,0.034 -0.41,0.034c-0.203,-0 -0.203,-0.004 -0.406,-0.004c-0.143,0 -0.268,0.053 -0.361,0.146c-0.094,0.091 -0.14,0.215 -0.14,0.359c0,0.18 -0.03,0.18 -0.03,0.36c0,0.181 0.004,0.181 0.004,0.361c-0,0.181 0.008,0.181 0.008,0.362c0,0.143 0.071,0.263 0.162,0.353c0.094,0.094 0.214,0.154 0.357,0.154l0.406,0c0.207,0 0.207,0.008 0.41,0.008c0.203,-0 0.203,-0.004 0.41,-0.004c0.204,-0 0.204,0.027 0.406,0.027c0.166,-0 0.324,-0.079 0.433,-0.185c0.106,-0.108 0.151,-0.267 0.151,-0.433c-0,-0.229 0.03,-0.229 0.033,-0.462c0.004,-0.23 -0.018,-0.234 -0.018,-0.463m0.399,0.925c-0,0.14 0.003,0.276 -0.045,0.396c-0.053,0.124 -0.158,0.214 -0.252,0.308c-0.095,0.091 -0.181,0.2 -0.305,0.252c-0.121,0.049 -0.256,0.06 -0.396,0.06c-0.195,0 -0.195,-0.015 -0.39,-0.015c-0.2,0 -0.2,-0.004 -0.396,-0.004c-0.195,0 -0.195,0.023 -0.391,0.023c-0.199,0 -0.199,-0.026 -0.395,-0.026c-0.195,0 -0.195,0.019 -0.391,0.019c-0.2,-0 -0.2,-0.008 -0.395,-0.008c-0.117,-0 -0.2,-0.086 -0.2,-0.199c0,-0.211 0.004,-0.211 0.004,-0.422c0,-0.214 0.004,-0.214 0.004,-0.425c-0,-0.21 -0.034,-0.21 -0.034,-0.421c-0,-0.211 0.008,-0.211 0.008,-0.422l-0,-0.42c-0,-0.215 -0.008,-0.215 -0.008,-0.426c-0,-0.114 0.109,-0.196 0.226,-0.196c0.195,-0 0.195,-0.003 0.395,-0.003c0.196,-0 0.196,-0.004 0.391,-0.004c0.196,-0 0.196,-0.019 0.395,-0.019c0.196,-0 0.196,0.008 0.391,0.008c0.196,-0 0.196,-0.004 0.396,-0.004c0.195,-0 0.195,0.012 0.39,0.012c0.14,-0 0.272,0.022 0.392,0.071c0.12,0.052 0.218,0.146 0.309,0.24c0.094,0.09 0.169,0.196 0.222,0.317c0.048,0.12 0.101,0.244 0.101,0.383c0,0.229 -0.023,0.229 -0.026,0.463c-0.004,0.233 -0,0.233 -0,0.462" style="fill:#1a171b;fill-rule:nonzero;"/><path d="M48.338,45.262c-0.097,0.094 -0.214,0.154 -0.339,0.204c-0.12,0.049 -0.244,0.074 -0.379,0.074c-0.222,0 -0.222,0.027 -0.448,0.027l-0.447,0c-0.226,0 -0.226,-0.004 -0.449,-0.004c-0.225,0 -0.225,-0.026 -0.447,-0.026c-0.135,0 -0.263,-0.022 -0.38,-0.071c-0.124,-0.053 -0.249,-0.106 -0.342,-0.2c-0.094,-0.09 -0.147,-0.214 -0.2,-0.339c-0.049,-0.12 -0.09,-0.244 -0.09,-0.384c-0,-0.229 -0.007,-0.229 -0.007,-0.462c-0,-0.234 -0.008,-0.234 -0.008,-0.463c0,-0.139 0.034,-0.271 0.083,-0.391c0.053,-0.124 0.15,-0.214 0.244,-0.309c0.095,-0.094 0.181,-0.202 0.305,-0.251c0.121,-0.053 0.26,-0.072 0.395,-0.072l0.447,-0c0.223,-0 0.223,-0.011 0.449,-0.011c0.221,-0 0.221,0.037 0.447,0.037l0.448,-0c0.135,-0 0.267,0.012 0.387,0.06c0.121,0.053 0.23,0.128 0.324,0.226c0.083,0.079 0.09,0.211 0.007,0.294c-0.082,0.082 -0.233,0.093 -0.312,0.011c-0.112,-0.113 -0.248,-0.174 -0.406,-0.174c-0.222,0 -0.222,-0.033 -0.448,-0.033c-0.226,-0 -0.226,-0.004 -0.447,-0.004c-0.226,0 -0.226,0.041 -0.449,0.041c-0.225,0 -0.225,-0.041 -0.447,-0.041c-0.165,0 -0.297,0.102 -0.407,0.211c-0.105,0.109 -0.187,0.241 -0.187,0.406c-0,0.229 0.015,0.229 0.015,0.463c-0,0.233 -0.015,0.233 -0.015,0.462c-0,0.166 0.075,0.309 0.18,0.414c0.109,0.109 0.249,0.17 0.414,0.17c0.222,-0 0.222,0.023 0.447,0.023c0.223,-0 0.223,-0.009 0.449,-0.009c0.221,0 0.221,-0.003 0.447,-0.003c0.226,-0 0.226,-0.019 0.448,-0.019c0.158,0 0.32,-0.03 0.429,-0.143c0.082,-0.083 0.203,-0.09 0.285,-0.011c0.08,0.083 0.083,0.214 0.004,0.297" style="fill:#1a171b;fill-rule:nonzero;"/><path d="M52.246,43.618c0,-0.165 -0.074,-0.319 -0.184,-0.425c-0.109,-0.109 -0.263,-0.169 -0.425,-0.169c-0.226,-0 -0.226,0.018 -0.448,0.018c-0.225,0 -0.225,-0.018 -0.447,-0.018c-0.226,-0 -0.226,0.007 -0.448,0.007c-0.226,0 -0.226,0.011 -0.447,0.011c-0.166,0 -0.324,0.038 -0.434,0.144c-0.105,0.108 -0.173,0.267 -0.173,0.432c0,0.229 -0.015,0.233 -0.01,0.463c0.003,0.233 0.025,0.233 0.025,0.462c0,0.166 0.053,0.325 0.158,0.433c0.11,0.106 0.268,0.147 0.434,0.147c0.221,-0 0.221,0.03 0.447,0.03c0.222,-0 0.222,-0.007 0.448,-0.007c0.222,-0 0.222,-0.019 0.447,-0.019c0.222,-0 0.222,0.011 0.448,0.011c0.162,-0 0.316,-0.06 0.425,-0.169c0.106,-0.106 0.177,-0.26 0.177,-0.426c0,-0.229 0.004,-0.229 0.004,-0.462c0,-0.234 0.003,-0.234 0.003,-0.463m0.395,0c0,0.229 -0.007,0.229 -0.007,0.463l0,0.462c0,0.14 -0.023,0.268 -0.071,0.384c-0.053,0.125 -0.117,0.242 -0.211,0.331c-0.095,0.095 -0.196,0.189 -0.32,0.241c-0.12,0.049 -0.26,0.06 -0.395,0.06c-0.226,0 -0.226,0.004 -0.448,0.004c-0.225,0 -0.225,0.012 -0.447,0.012c-0.226,-0 -0.226,-0.035 -0.448,-0.035c-0.226,0 -0.226,0.004 -0.447,0.004c-0.14,0 -0.271,-0.011 -0.388,-0.06c-0.124,-0.053 -0.245,-0.12 -0.339,-0.214c-0.094,-0.094 -0.169,-0.211 -0.222,-0.331c-0.049,-0.12 -0.064,-0.256 -0.064,-0.396c0,-0.229 0.004,-0.229 0.004,-0.462c0,-0.234 -0.023,-0.234 -0.023,-0.463c0,-0.139 0.034,-0.274 0.083,-0.392c0.053,-0.124 0.124,-0.244 0.218,-0.338c0.095,-0.094 0.226,-0.135 0.351,-0.189c0.12,-0.048 0.24,-0.096 0.38,-0.096c0.221,-0 0.221,0.018 0.447,0.018c0.222,-0 0.222,-0.034 0.448,-0.034c0.222,0 0.222,0.034 0.447,0.034c0.222,-0 0.222,-0.011 0.448,-0.011c0.135,-0 0.271,0.011 0.391,0.064c0.124,0.049 0.234,0.131 0.324,0.226c0.094,0.094 0.162,0.21 0.214,0.335c0.049,0.116 0.075,0.244 0.075,0.383" style="fill:#1a171b;fill-rule:nonzero;"/><path d="M56.159,42.888c-0.004,0.113 -0.095,0.196 -0.208,0.196c-0.195,-0 -0.195,0.004 -0.39,0.004c-0.196,-0 -0.196,-0.022 -0.392,-0.022l-0.391,-0c-0.192,-0 -0.192,0.036 -0.388,0.036c-0.195,0 -0.195,-0.014 -0.391,-0.014c-0.116,-0 -0.225,0.049 -0.305,0.127c-0.074,0.076 -0.105,0.185 -0.105,0.302c0,0.078 -0.026,0.078 -0.026,0.157c0,0.117 0.045,0.237 0.12,0.317c0.079,0.075 0.2,0.105 0.316,0.105c0.185,-0 0.185,-0.011 0.369,-0.011c0.184,-0 0.184,0.026 0.369,0.026c0.18,-0 0.18,0.014 0.365,0.014c0.184,0 0.184,-0.002 0.368,-0.002c0.117,-0 0.222,0.078 0.219,0.199c-0.004,0.112 -0.109,0.211 -0.222,0.211c-0.185,-0 -0.185,-0.031 -0.369,-0.031c-0.185,0 -0.185,0.027 -0.366,0.027c-0.183,-0 -0.183,-0.027 -0.368,-0.027c-0.18,0 -0.18,0.027 -0.365,0.027c-0.116,-0 -0.218,0.048 -0.293,0.127c-0.079,0.08 -0.155,0.177 -0.155,0.294c0,0.166 0.008,0.166 0.008,0.327c0,0.113 -0.075,0.226 -0.188,0.229c-0.121,0.005 -0.211,-0.104 -0.211,-0.221c0,-0.203 -0.007,-0.203 -0.007,-0.403c-0,-0.199 0.011,-0.199 0.011,-0.399l0,-0.402c0,-0.2 0.007,-0.2 0.007,-0.399c0,-0.203 -0.022,-0.203 -0.022,-0.402c0,-0.2 -0.008,-0.2 -0.008,-0.399l0,-0.045c0.023,-0.098 0.121,-0.155 0.219,-0.155c0.218,-0 0.218,-0.019 0.433,-0.019c0.217,0 0.217,0.03 0.432,0.03c0.218,0 0.218,-0.041 0.432,-0.041c0.219,-0 0.219,0.023 0.433,0.023c0.218,-0 0.218,-0.016 0.433,-0.016c0.214,0 0.214,0.023 0.432,0.023c0.117,-0 0.207,0.087 0.204,0.207" style="fill:#1a171b;fill-rule:nonzero;"/><path d="M59.465,42.888c-0.004,0.113 -0.094,0.196 -0.207,0.196c-0.195,-0 -0.195,0.004 -0.391,0.004c-0.196,-0 -0.196,-0.022 -0.391,-0.022l-0.391,-0c-0.192,-0 -0.192,0.036 -0.388,0.036c-0.196,0 -0.196,-0.014 -0.391,-0.014c-0.117,-0 -0.225,0.049 -0.305,0.127c-0.075,0.076 -0.105,0.185 -0.105,0.302c-0,0.078 -0.026,0.078 -0.026,0.157c-0,0.117 0.045,0.237 0.119,0.317c0.08,0.075 0.2,0.105 0.317,0.105c0.184,-0 0.184,-0.011 0.368,-0.011c0.185,-0 0.185,0.026 0.369,0.026c0.18,-0 0.18,0.014 0.365,0.014c0.184,0 0.184,-0.002 0.368,-0.002c0.118,-0 0.223,0.078 0.22,0.199c-0.005,0.112 -0.11,0.211 -0.223,0.211c-0.185,-0 -0.185,-0.031 -0.369,-0.031c-0.184,0 -0.184,0.027 -0.365,0.027c-0.184,-0 -0.184,-0.027 -0.369,-0.027c-0.18,0 -0.18,0.027 -0.364,0.027c-0.117,-0 -0.218,0.048 -0.294,0.127c-0.079,0.08 -0.154,0.177 -0.154,0.294c0,0.166 0.007,0.166 0.007,0.327c0,0.113 -0.075,0.226 -0.187,0.229c-0.121,0.005 -0.211,-0.104 -0.211,-0.221c-0,-0.203 -0.008,-0.203 -0.008,-0.403c0,-0.199 0.012,-0.199 0.012,-0.399l-0,-0.402c-0,-0.2 0.007,-0.2 0.007,-0.399c-0,-0.203 -0.022,-0.203 -0.022,-0.402c-0,-0.2 -0.008,-0.2 -0.008,-0.399l-0,-0.045c0.023,-0.098 0.12,-0.155 0.218,-0.155c0.218,-0 0.218,-0.019 0.433,-0.019c0.217,0 0.217,0.03 0.433,0.03c0.218,0 0.218,-0.041 0.432,-0.041c0.218,-0 0.218,0.023 0.433,0.023c0.218,-0 0.218,-0.016 0.433,-0.016c0.214,0 0.214,0.023 0.432,0.023c0.117,-0 0.207,0.087 0.203,0.207" style="fill:#1a171b;fill-rule:nonzero;"/><path d="M60.176,43.464c-0.026,0.24 0.191,0.391 0.406,0.391c0.207,0 0.207,0.03 0.414,0.03c0.207,0 0.207,-0.015 0.414,-0.015c0.207,-0 0.207,0.019 0.414,0.019c0.207,-0 0.207,-0.03 0.414,-0.03c0.116,-0 0.207,0.109 0.202,0.229c-0.007,0.113 -0.093,0.204 -0.206,0.204c-0.207,-0 -0.207,-0.015 -0.414,-0.015c-0.207,0 -0.207,0.03 -0.41,0.03c-0.207,-0 -0.207,-0.015 -0.414,-0.015c-0.207,-0 -0.207,0.018 -0.414,0.018c-0.087,0 -0.18,0.015 -0.256,0.068c-0.093,0.068 -0.139,0.222 -0.128,0.346c0.019,0.185 0.196,0.369 0.384,0.369c0.215,-0 0.215,-0.015 0.429,-0.015c0.215,-0 0.215,-0.026 0.429,-0.026c0.214,-0 0.214,0.041 0.429,0.041c0.211,-0 0.211,-0.034 0.424,-0.034c0.215,-0 0.215,-0.007 0.43,-0.007c0.117,-0 0.222,0.119 0.218,0.24c-0.003,0.113 -0.109,0.181 -0.222,0.181c-0.196,-0 -0.196,0.011 -0.391,0.011c-0.196,0 -0.196,0.031 -0.391,0.031c-0.196,-0 -0.196,-0.02 -0.392,-0.02c-0.195,0 -0.195,-0.003 -0.391,-0.003c-0.195,-0 -0.195,-0.019 -0.391,-0.019c-0.196,-0 -0.196,-0.004 -0.392,-0.004c-0.191,0 -0.191,0.011 -0.387,0.011c-0.102,0 -0.203,-0.055 -0.222,-0.15c-0.004,-0.015 -0.008,-0.034 -0.008,-0.045c0,-0.203 0.038,-0.203 0.038,-0.403c-0,-0.199 -0.03,-0.199 -0.03,-0.399c0,-0.202 0.03,-0.202 0.03,-0.402c-0,-0.2 -0.019,-0.2 -0.019,-0.399c0,-0.203 0.015,-0.203 0.015,-0.402c-0,-0.125 -0.026,-0.253 -0.011,-0.373c0,-0.034 0.008,-0.064 0.023,-0.094c0.011,-0.031 0.026,-0.056 0.049,-0.079c0.105,-0.109 0.384,-0.056 0.526,-0.056c0.196,-0 0.196,-0.016 0.392,-0.016c0.195,0 0.195,0.027 0.39,0.027c0.196,-0 0.196,-0.027 0.392,-0.027c0.196,0 0.196,-0.011 0.391,-0.011c0.196,0 0.196,0.023 0.392,0.023c0.195,-0 0.195,0.015 0.391,0.015c0.117,-0 0.233,0.079 0.229,0.199c-0.003,0.113 -0.12,0.192 -0.233,0.192c-0.214,-0 -0.214,-0.003 -0.429,-0.003c-0.21,-0 -0.21,0.022 -0.425,0.022c-0.214,-0 -0.214,-0.004 -0.428,-0.004c-0.211,0 -0.211,-0.018 -0.426,-0.018c-0.214,-0 -0.214,0.025 -0.429,0.025c-0.143,0 -0.267,0.088 -0.346,0.208c-0.03,0.045 -0.052,0.098 -0.06,0.154" style="fill:#1a171b;fill-rule:nonzero;"/><path d="M63.799,43.464c-0.027,0.24 0.191,0.391 0.406,0.391c0.207,0 0.207,0.03 0.414,0.03c0.206,0 0.206,-0.015 0.413,-0.015c0.207,-0 0.207,0.019 0.414,0.019c0.208,-0 0.208,-0.03 0.414,-0.03c0.117,-0 0.207,0.109 0.203,0.229c-0.007,0.113 -0.094,0.204 -0.207,0.204c-0.207,-0 -0.207,-0.015 -0.414,-0.015c-0.206,0 -0.206,0.03 -0.41,0.03c-0.207,-0 -0.207,-0.015 -0.413,-0.015c-0.207,-0 -0.207,0.018 -0.414,0.018c-0.087,0 -0.181,0.015 -0.256,0.068c-0.094,0.068 -0.139,0.222 -0.128,0.346c0.019,0.185 0.196,0.369 0.384,0.369c0.214,-0 0.214,-0.015 0.429,-0.015c0.214,-0 0.214,-0.026 0.429,-0.026c0.214,-0 0.214,0.041 0.428,0.041c0.211,-0 0.211,-0.034 0.425,-0.034c0.214,-0 0.214,-0.007 0.429,-0.007c0.117,-0 0.222,0.119 0.219,0.24c-0.004,0.113 -0.11,0.181 -0.223,0.181c-0.195,-0 -0.195,0.011 -0.391,0.011c-0.195,0 -0.195,0.031 -0.391,0.031c-0.196,-0 -0.196,-0.02 -0.391,-0.02c-0.195,0 -0.195,-0.003 -0.392,-0.003c-0.195,-0 -0.195,-0.019 -0.391,-0.019c-0.195,-0 -0.195,-0.004 -0.391,-0.004c-0.192,0 -0.192,0.011 -0.387,0.011c-0.102,0 -0.204,-0.055 -0.222,-0.15c-0.005,-0.015 -0.008,-0.034 -0.008,-0.045c-0,-0.203 0.037,-0.203 0.037,-0.403c0,-0.199 -0.029,-0.199 -0.029,-0.399c-0,-0.202 0.029,-0.202 0.029,-0.402c0,-0.2 -0.018,-0.2 -0.018,-0.399c-0,-0.203 0.015,-0.203 0.015,-0.402c-0,-0.125 -0.026,-0.253 -0.011,-0.373c-0,-0.034 0.007,-0.064 0.022,-0.094c0.011,-0.031 0.026,-0.056 0.049,-0.079c0.105,-0.109 0.384,-0.056 0.526,-0.056c0.196,-0 0.196,-0.016 0.392,-0.016c0.195,0 0.195,0.027 0.391,0.027c0.196,-0 0.196,-0.027 0.392,-0.027c0.195,0 0.195,-0.011 0.391,-0.011c0.195,0 0.195,0.023 0.391,0.023c0.196,-0 0.196,0.015 0.391,0.015c0.117,-0 0.233,0.079 0.23,0.199c-0.004,0.113 -0.121,0.192 -0.234,0.192c-0.214,-0 -0.214,-0.003 -0.428,-0.003c-0.211,-0 -0.211,0.022 -0.425,0.022c-0.215,-0 -0.215,-0.004 -0.429,-0.004c-0.211,0 -0.211,-0.018 -0.425,-0.018c-0.215,-0 -0.215,0.025 -0.429,0.025c-0.143,0 -0.267,0.088 -0.347,0.208c-0.029,0.045 -0.053,0.098 -0.059,0.154" style="fill:#1a171b;fill-rule:nonzero;"/><path d="M72.341,43.686c0,-0.125 -0.004,-0.125 -0.004,-0.245c0,-0.113 -0.052,-0.206 -0.127,-0.286c-0.075,-0.075 -0.17,-0.113 -0.286,-0.113c-0.226,0 -0.226,-0.007 -0.452,-0.007l-0.447,0c-0.226,0 -0.226,-0.018 -0.448,-0.018c-0.226,-0 -0.226,-0.009 -0.451,-0.009c-0.185,0 -0.358,0.167 -0.358,0.354c-0,0.199 0.008,0.199 0.008,0.403c-0,0.188 0.165,0.323 0.35,0.323c0.225,0 0.225,0.035 0.451,0.035c0.222,-0 0.222,0.002 0.448,0.002c0.225,0 0.225,-0.025 0.447,-0.025c0.226,-0 0.226,0.023 0.452,0.023c0.116,-0 0.226,-0.062 0.301,-0.14c0.075,-0.075 0.116,-0.184 0.116,-0.297m0.392,1.467c0.064,0.094 0.041,0.241 -0.053,0.309c-0.038,0.025 -0.087,0.022 -0.128,0.022c-0.063,0 -0.117,-0.03 -0.158,-0.086c-0.154,-0.215 -0.15,-0.219 -0.301,-0.437c-0.068,-0.093 -0.162,-0.173 -0.252,-0.237c-0.09,-0.068 -0.207,-0.097 -0.316,-0.135c-0.105,-0.034 -0.214,-0.087 -0.331,-0.087c-0.219,0 -0.219,-0.004 -0.44,-0.004c-0.218,0 -0.218,0.031 -0.441,0.031c-0.143,-0 -0.289,0.037 -0.383,0.135c-0.098,0.094 -0.147,0.237 -0.147,0.384c0,0.117 0.004,0.117 0.004,0.229c-0,0.113 -0.087,0.215 -0.2,0.222c-0.12,0.004 -0.218,-0.097 -0.218,-0.214c-0,-0.207 0.023,-0.207 0.023,-0.414c-0,-0.203 -0.008,-0.203 -0.008,-0.41c0,-0.207 -0.023,-0.207 -0.023,-0.414c0,-0.203 0.004,-0.203 0.004,-0.41c0,-0.207 -0.015,-0.207 -0.015,-0.411l0,-0.413c0,-0.012 0.008,-0.031 0.011,-0.045c0.019,-0.094 0.117,-0.147 0.219,-0.147c0.196,-0 0.196,-0.037 0.391,-0.037l0.387,-0c0.196,-0 0.196,0.014 0.392,0.014c0.196,0 0.196,0.027 0.391,0.027l0.392,-0c0.195,-0 0.195,-0.034 0.391,-0.034c0.15,-0 0.29,0.064 0.41,0.136c0.128,0.074 0.236,0.173 0.312,0.3c0.072,0.121 0.102,0.264 0.102,0.414c-0,0.12 0.022,0.12 0.022,0.245c0,0.211 -0.101,0.395 -0.233,0.541c-0.079,0.091 -0.094,0.215 -0.098,0.328c-0.007,0.113 0.026,0.218 0.095,0.316c0.101,0.139 0.097,0.143 0.199,0.282" style="fill:#1a171b;fill-rule:nonzero;"/><path d="M76.69,43.618c-0,-0.165 -0.076,-0.319 -0.184,-0.425c-0.11,-0.109 -0.264,-0.169 -0.425,-0.169c-0.226,-0 -0.226,0.018 -0.448,0.018c-0.226,0 -0.226,-0.018 -0.448,-0.018c-0.226,-0 -0.226,0.007 -0.448,0.007c-0.225,0 -0.225,0.011 -0.448,0.011c-0.165,0 -0.323,0.038 -0.432,0.144c-0.105,0.108 -0.173,0.267 -0.173,0.432c-0,0.229 -0.015,0.233 -0.012,0.463c0.004,0.233 0.026,0.233 0.026,0.462c0,0.166 0.054,0.325 0.159,0.433c0.109,0.106 0.267,0.147 0.432,0.147c0.223,-0 0.223,0.03 0.448,0.03c0.222,-0 0.222,-0.007 0.448,-0.007c0.222,-0 0.222,-0.019 0.448,-0.019c0.222,-0 0.222,0.011 0.448,0.011c0.161,-0 0.315,-0.06 0.425,-0.169c0.105,-0.106 0.176,-0.26 0.176,-0.426c0,-0.229 0.004,-0.229 0.004,-0.462c-0,-0.234 0.004,-0.234 0.004,-0.463m0.395,0c-0,0.229 -0.008,0.229 -0.008,0.463l0,0.462c0,0.14 -0.022,0.268 -0.071,0.384c-0.052,0.125 -0.117,0.242 -0.211,0.331c-0.094,0.095 -0.195,0.189 -0.32,0.241c-0.12,0.049 -0.259,0.06 -0.394,0.06c-0.226,0 -0.226,0.004 -0.448,0.004c-0.226,0 -0.226,0.012 -0.448,0.012c-0.226,-0 -0.226,-0.035 -0.448,-0.035c-0.225,0 -0.225,0.004 -0.448,0.004c-0.138,0 -0.27,-0.011 -0.387,-0.06c-0.124,-0.053 -0.245,-0.12 -0.338,-0.214c-0.094,-0.094 -0.17,-0.211 -0.223,-0.331c-0.049,-0.12 -0.064,-0.256 -0.064,-0.396c0,-0.229 0.004,-0.229 0.004,-0.462c0,-0.234 -0.022,-0.234 -0.022,-0.463c-0,-0.139 0.033,-0.274 0.082,-0.392c0.053,-0.124 0.124,-0.244 0.219,-0.338c0.094,-0.094 0.226,-0.135 0.349,-0.189c0.121,-0.048 0.242,-0.096 0.38,-0.096c0.223,-0 0.223,0.018 0.448,0.018c0.222,-0 0.222,-0.034 0.448,-0.034c0.222,0 0.222,0.034 0.448,0.034c0.222,-0 0.222,-0.011 0.448,-0.011c0.135,-0 0.27,0.011 0.391,0.064c0.124,0.049 0.233,0.131 0.323,0.226c0.094,0.094 0.162,0.21 0.214,0.335c0.049,0.116 0.076,0.244 0.076,0.383" style="fill:#1a171b;fill-rule:nonzero;"/><path d="M79.985,44.183c-0.117,-0.166 -0.109,-0.166 -0.226,-0.328c-0.116,-0.162 -0.101,-0.173 -0.218,-0.335c-0.101,-0.143 -0.342,-0.143 -0.444,0c-0.117,0.166 -0.098,0.177 -0.21,0.339c-0.117,0.162 -0.125,0.158 -0.241,0.32c-0.076,0.105 -0,0.259 0.131,0.259c0.181,0 0.181,0.015 0.361,0.015c0.178,0 0.178,-0.022 0.358,-0.022l0.361,-0c0.132,-0 0.203,-0.143 0.128,-0.248m1.027,1.293c-0.045,-0.003 -0.086,-0.018 -0.116,-0.051c-0.016,-0.016 -0.023,-0.035 -0.035,-0.05c-0.135,-0.222 -0.41,-0.391 -0.65,-0.47c-0.124,-0.042 -0.26,-0.079 -0.396,-0.079c-0.247,-0 -0.247,0.022 -0.499,0.022l-0.498,0c-0.135,0 -0.266,0.027 -0.391,0.068c-0.233,0.076 -0.481,0.222 -0.628,0.422c-0.041,0.056 -0.082,0.128 -0.15,0.154c-0.06,0.023 -0.117,-0.005 -0.17,-0.042c-0.093,-0.064 -0.12,-0.199 -0.052,-0.293c0.12,-0.169 0.128,-0.165 0.252,-0.338c0.12,-0.17 0.112,-0.177 0.236,-0.347c0.121,-0.174 0.132,-0.165 0.257,-0.338c0.124,-0.17 0.112,-0.177 0.237,-0.347c0.124,-0.173 0.128,-0.169 0.248,-0.342c0.124,-0.173 0.109,-0.181 0.233,-0.354c0.03,-0.041 0.072,-0.078 0.106,-0.12c0.056,-0.071 0.097,-0.158 0.161,-0.226c0.057,-0.06 0.143,-0.101 0.222,-0.071c0.046,0.015 0.083,0.056 0.113,0.094c0.18,0.21 0.342,0.44 0.501,0.666c0.124,0.169 0.101,0.188 0.225,0.357c0.121,0.173 0.125,0.169 0.249,0.343c0.124,0.169 0.127,0.164 0.248,0.338c0.124,0.174 0.116,0.177 0.237,0.35c0.124,0.17 0.124,0.173 0.244,0.343c0.102,0.146 -0.015,0.33 -0.184,0.311" style="fill:#1a171b;fill-rule:nonzero;"/><path d="M85.391,44.713c-0,0.155 -0.072,0.293 -0.143,0.417c-0.075,0.128 -0.181,0.223 -0.309,0.298c-0.124,0.071 -0.259,0.112 -0.41,0.112c-0.21,0 -0.21,0.019 -0.417,0.019c-0.211,0 -0.211,-0.007 -0.418,-0.007c-0.207,-0 -0.207,0.011 -0.418,0.011c-0.206,0 -0.206,-0.015 -0.413,-0.015c-0.211,-0 -0.211,-0.004 -0.418,-0.004c-0.154,0 -0.297,-0.026 -0.421,-0.097c-0.128,-0.076 -0.241,-0.181 -0.316,-0.31c-0.072,-0.123 -0.121,-0.269 -0.121,-0.424c0,-0.113 0.11,-0.188 0.226,-0.188c0.113,-0 0.207,0.075 0.207,0.188c0,0.12 0.057,0.219 0.132,0.293c0.078,0.08 0.176,0.147 0.293,0.147c0.207,-0 0.207,-0.037 0.418,-0.037c0.207,0 0.207,0.003 0.413,0.003c0.211,0 0.211,0.018 0.418,0.018c0.211,0 0.211,0.009 0.418,0.009c0.207,-0 0.207,0.011 0.417,0.011c0.117,-0 0.237,-0.052 0.313,-0.128c0.075,-0.079 0.101,-0.196 0.101,-0.316c0,-0.117 -0.052,-0.207 -0.132,-0.282c-0.075,-0.079 -0.165,-0.139 -0.282,-0.139c-0.21,-0 -0.21,0.015 -0.417,0.015c-0.211,-0 -0.211,0.003 -0.418,0.003c-0.207,0 -0.207,-0.041 -0.418,-0.041c-0.206,-0 -0.206,0.034 -0.413,0.034c-0.211,-0 -0.211,-0.034 -0.418,-0.034c-0.154,-0 -0.29,-0.03 -0.414,-0.102c-0.128,-0.075 -0.248,-0.165 -0.323,-0.293c-0.072,-0.124 -0.094,-0.274 -0.094,-0.425c0,-0.155 0.026,-0.301 0.097,-0.425c0.072,-0.128 0.196,-0.215 0.324,-0.286c0.124,-0.075 0.256,-0.128 0.41,-0.128c0.207,-0 0.207,-0.019 0.418,-0.019c0.207,-0 0.207,0.007 0.413,0.007c0.211,0 0.211,-0.011 0.418,-0.011c0.211,0 0.211,0.02 0.418,0.02c0.207,-0 0.207,-0.016 0.417,-0.016c0.151,-0 0.305,0.042 0.429,0.112c0.128,0.077 0.211,0.204 0.286,0.332c0.072,0.124 0.139,0.259 0.139,0.414c0,0.112 -0.105,0.225 -0.222,0.225c-0.116,-0 -0.229,-0.113 -0.229,-0.225c0,-0.117 -0.027,-0.227 -0.105,-0.301c-0.076,-0.075 -0.181,-0.128 -0.298,-0.128c-0.21,-0 -0.21,-0.003 -0.417,-0.003c-0.211,-0 -0.211,0.014 -0.418,0.014l-0.418,-0c-0.206,-0 -0.206,0.007 -0.413,0.007c-0.211,0 -0.211,-0.025 -0.418,-0.025c-0.117,-0 -0.211,0.071 -0.29,0.146c-0.075,0.08 -0.128,0.173 -0.128,0.29c0,0.116 0.034,0.229 0.11,0.309c0.078,0.075 0.191,0.127 0.308,0.127c0.207,0 0.207,-0.03 0.418,-0.03c0.207,0 0.207,-0.004 0.413,-0.004c0.211,-0 0.211,0.038 0.418,0.038c0.211,-0 0.211,-0.034 0.418,-0.034c0.207,0 0.207,0.038 0.417,0.038c0.151,-0 0.305,0.004 0.429,0.075c0.128,0.072 0.207,0.211 0.279,0.339c0.071,0.12 0.154,0.255 0.154,0.406" style="fill:#1a171b;fill-rule:nonzero;"/><path d="M89.442,42.888c-0.004,0.113 -0.12,0.222 -0.233,0.222c-0.237,0 -0.237,-0.03 -0.47,-0.03c-0.238,-0 -0.238,0.008 -0.474,0.008c-0.117,-0 -0.211,0.06 -0.286,0.134c-0.079,0.081 -0.12,0.173 -0.12,0.291c-0,0.222 -0.005,0.222 -0.005,0.444c0,0.222 -0.022,0.222 -0.022,0.44c0,0.221 0.03,0.221 0.03,0.444c0,0.222 -0.041,0.222 -0.041,0.444c-0,0.117 -0.075,0.195 -0.196,0.191c-0.113,-0.003 -0.199,-0.086 -0.199,-0.199c-0,-0.218 0.018,-0.218 0.018,-0.44c0,-0.222 -0.041,-0.222 -0.041,-0.44c0,-0.222 0.015,-0.222 0.015,-0.444c0,-0.218 -0.004,-0.218 -0.004,-0.44c0,-0.118 -0.037,-0.222 -0.116,-0.301c-0.075,-0.075 -0.181,-0.132 -0.301,-0.132c-0.234,-0 -0.234,0.027 -0.471,0.027c-0.233,-0 -0.233,-0.016 -0.47,-0.016c-0.113,-0 -0.192,-0.09 -0.195,-0.207c-0.004,-0.116 0.071,-0.229 0.192,-0.229c0.195,0 0.195,0.007 0.394,0.007l0.791,0c0.195,0 0.195,0.027 0.394,0.027c0.196,-0 0.196,-0.038 0.396,-0.038c0.199,-0 0.199,0.023 0.395,0.023c0.199,-0 0.199,-0.019 0.395,-0.019c0.199,0 0.199,0.019 0.395,0.019c0.116,-0 0.233,0.094 0.229,0.214" style="fill:#1a171b;fill-rule:nonzero;"/><path d="M90.243,43.464c-0.026,0.24 0.192,0.391 0.406,0.391c0.207,0 0.207,0.03 0.415,0.03c0.207,0 0.207,-0.015 0.413,-0.015c0.207,-0 0.207,0.019 0.414,0.019c0.207,-0 0.207,-0.03 0.414,-0.03c0.116,-0 0.207,0.109 0.203,0.229c-0.008,0.113 -0.094,0.204 -0.207,0.204c-0.207,-0 -0.207,-0.015 -0.414,-0.015c-0.207,0 -0.207,0.03 -0.41,0.03c-0.206,-0 -0.206,-0.015 -0.413,-0.015c-0.208,-0 -0.208,0.018 -0.415,0.018c-0.087,0 -0.18,0.015 -0.256,0.068c-0.093,0.068 -0.138,0.222 -0.128,0.346c0.019,0.185 0.196,0.369 0.384,0.369c0.215,-0 0.215,-0.015 0.429,-0.015c0.215,-0 0.215,-0.026 0.429,-0.026c0.215,-0 0.215,0.041 0.429,0.041c0.21,-0 0.21,-0.034 0.425,-0.034c0.214,-0 0.214,-0.007 0.429,-0.007c0.117,-0 0.222,0.119 0.219,0.24c-0.005,0.113 -0.11,0.181 -0.223,0.181c-0.195,-0 -0.195,0.011 -0.391,0.011c-0.196,0 -0.196,0.031 -0.391,0.031c-0.196,-0 -0.196,-0.02 -0.392,-0.02c-0.195,0 -0.195,-0.003 -0.391,-0.003c-0.195,-0 -0.195,-0.019 -0.391,-0.019c-0.196,-0 -0.196,-0.004 -0.391,-0.004c-0.192,0 -0.192,0.011 -0.388,0.011c-0.101,0 -0.203,-0.055 -0.221,-0.15c-0.005,-0.015 -0.008,-0.034 -0.008,-0.045c-0,-0.203 0.037,-0.203 0.037,-0.403c0,-0.199 -0.029,-0.199 -0.029,-0.399c-0,-0.202 0.029,-0.202 0.029,-0.402c0,-0.2 -0.019,-0.2 -0.019,-0.399c0,-0.203 0.015,-0.203 0.015,-0.402c0,-0.125 -0.025,-0.253 -0.011,-0.373c0,-0.034 0.008,-0.064 0.023,-0.094c0.011,-0.031 0.026,-0.056 0.049,-0.079c0.105,-0.109 0.384,-0.056 0.527,-0.056c0.195,-0 0.195,-0.016 0.391,-0.016c0.195,0 0.195,0.027 0.391,0.027c0.196,-0 0.196,-0.027 0.392,-0.027c0.195,0 0.195,-0.011 0.391,-0.011c0.195,0 0.195,0.023 0.391,0.023c0.195,-0 0.195,0.015 0.391,0.015c0.117,-0 0.233,0.079 0.23,0.199c-0.004,0.113 -0.121,0.192 -0.234,0.192c-0.214,-0 -0.214,-0.003 -0.428,-0.003c-0.212,-0 -0.212,0.022 -0.425,0.022c-0.215,-0 -0.215,-0.004 -0.43,-0.004c-0.21,0 -0.21,-0.018 -0.425,-0.018c-0.214,-0 -0.214,0.025 -0.429,0.025c-0.143,0 -0.267,0.088 -0.346,0.208c-0.03,0.045 -0.053,0.098 -0.06,0.154" style="fill:#1a171b;fill-rule:nonzero;"/><path d="M96.435,43.686c-0,-0.125 -0.003,-0.125 -0.003,-0.245c-0,-0.113 -0.053,-0.206 -0.128,-0.286c-0.076,-0.075 -0.17,-0.113 -0.286,-0.113c-0.226,0 -0.226,-0.007 -0.452,-0.007l-0.448,0c-0.225,0 -0.225,-0.018 -0.447,-0.018c-0.226,-0 -0.226,-0.009 -0.452,-0.009c-0.184,0 -0.358,0.167 -0.358,0.354c0,0.199 0.008,0.199 0.008,0.403c0,0.188 0.166,0.323 0.35,0.323c0.226,0 0.226,0.035 0.452,0.035c0.222,-0 0.222,0.002 0.447,0.002c0.226,0 0.226,-0.025 0.448,-0.025c0.226,-0 0.226,0.023 0.452,0.023c0.116,-0 0.225,-0.062 0.3,-0.14c0.075,-0.075 0.117,-0.184 0.117,-0.297m0.391,1.467c0.064,0.094 0.042,0.241 -0.052,0.309c-0.038,0.025 -0.087,0.022 -0.128,0.022c-0.064,0 -0.117,-0.03 -0.158,-0.086c-0.154,-0.215 -0.151,-0.219 -0.301,-0.437c-0.068,-0.093 -0.162,-0.173 -0.252,-0.237c-0.091,-0.068 -0.208,-0.097 -0.316,-0.135c-0.106,-0.034 -0.215,-0.087 -0.332,-0.087c-0.217,0 -0.217,-0.004 -0.44,-0.004c-0.218,0 -0.218,0.031 -0.439,0.031c-0.144,-0 -0.291,0.037 -0.384,0.135c-0.098,0.094 -0.147,0.237 -0.147,0.384c-0,0.117 0.004,0.117 0.004,0.229c-0,0.113 -0.087,0.215 -0.2,0.222c-0.12,0.004 -0.218,-0.097 -0.218,-0.214c-0,-0.207 0.022,-0.207 0.022,-0.414c0,-0.203 -0.007,-0.203 -0.007,-0.41c-0,-0.207 -0.023,-0.207 -0.023,-0.414c0,-0.203 0.004,-0.203 0.004,-0.41c0,-0.207 -0.015,-0.207 -0.015,-0.411l0,-0.413c0,-0.012 0.008,-0.031 0.011,-0.045c0.019,-0.094 0.117,-0.147 0.218,-0.147c0.196,-0 0.196,-0.037 0.392,-0.037l0.387,-0c0.196,-0 0.196,0.014 0.392,0.014c0.195,0 0.195,0.027 0.391,0.027l0.391,-0c0.196,-0 0.196,-0.034 0.392,-0.034c0.15,-0 0.289,0.064 0.409,0.136c0.129,0.074 0.237,0.173 0.313,0.3c0.072,0.121 0.101,0.264 0.101,0.414c0,0.12 0.023,0.12 0.023,0.245c-0,0.211 -0.102,0.395 -0.234,0.541c-0.079,0.091 -0.093,0.215 -0.097,0.328c-0.008,0.113 0.026,0.218 0.094,0.316c0.102,0.139 0.098,0.143 0.199,0.282" style="fill:#1a171b;fill-rule:nonzero;"/><path d="M101.156,44.713c-0,0.155 -0.072,0.293 -0.143,0.417c-0.075,0.128 -0.18,0.223 -0.308,0.298c-0.124,0.071 -0.26,0.112 -0.411,0.112c-0.21,0 -0.21,0.019 -0.417,0.019c-0.211,0 -0.211,-0.007 -0.418,-0.007c-0.207,-0 -0.207,0.011 -0.417,0.011c-0.207,0 -0.207,-0.015 -0.414,-0.015c-0.211,-0 -0.211,-0.004 -0.418,-0.004c-0.154,0 -0.297,-0.026 -0.421,-0.097c-0.129,-0.076 -0.241,-0.181 -0.316,-0.31c-0.072,-0.123 -0.121,-0.269 -0.121,-0.424c0,-0.113 0.109,-0.188 0.226,-0.188c0.113,-0 0.208,0.075 0.208,0.188c-0,0.12 0.056,0.219 0.131,0.293c0.079,0.08 0.176,0.147 0.293,0.147c0.207,-0 0.207,-0.037 0.418,-0.037c0.207,0 0.207,0.003 0.414,0.003c0.21,0 0.21,0.018 0.417,0.018c0.211,0 0.211,0.009 0.418,0.009c0.207,-0 0.207,0.011 0.417,0.011c0.117,-0 0.237,-0.052 0.313,-0.128c0.075,-0.079 0.101,-0.196 0.101,-0.316c-0,-0.117 -0.053,-0.207 -0.131,-0.282c-0.076,-0.079 -0.166,-0.139 -0.283,-0.139c-0.21,-0 -0.21,0.015 -0.417,0.015c-0.211,-0 -0.211,0.003 -0.418,0.003c-0.207,0 -0.207,-0.041 -0.417,-0.041c-0.207,-0 -0.207,0.034 -0.414,0.034c-0.211,-0 -0.211,-0.034 -0.418,-0.034c-0.154,-0 -0.29,-0.03 -0.414,-0.102c-0.128,-0.075 -0.248,-0.165 -0.323,-0.293c-0.072,-0.124 -0.094,-0.274 -0.094,-0.425c-0,-0.155 0.026,-0.301 0.098,-0.425c0.071,-0.128 0.195,-0.215 0.323,-0.286c0.124,-0.075 0.256,-0.128 0.41,-0.128c0.207,-0 0.207,-0.019 0.418,-0.019c0.207,-0 0.207,0.007 0.414,0.007c0.21,0 0.21,-0.011 0.417,-0.011c0.211,0 0.211,0.02 0.418,0.02c0.207,-0 0.207,-0.016 0.417,-0.016c0.151,-0 0.305,0.042 0.429,0.112c0.128,0.077 0.211,0.204 0.287,0.332c0.071,0.124 0.139,0.259 0.139,0.414c-0,0.112 -0.106,0.225 -0.223,0.225c-0.117,-0 -0.229,-0.113 -0.229,-0.225c-0,-0.117 -0.027,-0.227 -0.105,-0.301c-0.076,-0.075 -0.181,-0.128 -0.298,-0.128c-0.21,-0 -0.21,-0.003 -0.417,-0.003c-0.211,-0 -0.211,0.014 -0.418,0.014l-0.417,-0c-0.207,-0 -0.207,0.007 -0.414,0.007c-0.211,0 -0.211,-0.025 -0.418,-0.025c-0.117,-0 -0.21,0.071 -0.29,0.146c-0.075,0.08 -0.127,0.173 -0.127,0.29c-0,0.116 0.033,0.229 0.109,0.309c0.079,0.075 0.191,0.127 0.308,0.127c0.207,0 0.207,-0.03 0.418,-0.03c0.207,0 0.207,-0.004 0.414,-0.004c0.21,-0 0.21,0.038 0.417,0.038c0.211,-0 0.211,-0.034 0.418,-0.034c0.207,0 0.207,0.038 0.417,0.038c0.151,-0 0.305,0.004 0.429,0.075c0.128,0.072 0.207,0.211 0.279,0.339c0.071,0.12 0.154,0.255 0.154,0.406" style="fill:#1a171b;fill-rule:nonzero;"/><path d="M34.9,49.453c-2.187,-0.006 -9.269,0.092 -11.455,0.082c-4.48,-0.022 -8.96,-0.056 -13.439,-0.137c-2.035,-0.037 -4.06,0.037 -6.095,-0.009c-0.974,-0.021 -2.074,-0.159 -3.028,0.202c-0.227,0.086 -0.843,0.351 -0.879,0.78c-0,0.009 -0.001,0.018 -0.002,0.026c-0.043,0.531 0.569,0.589 1.123,0.396c0.219,0.017 0.901,-0.04 1.064,-0.042c0.862,-0.006 1.724,0.028 2.586,0.061c2.07,0.08 4.145,-0.055 6.22,-0.007c4.282,0.1 8.569,0.091 12.85,0.104c1.425,0.004 10.459,-0.098 11.885,-0.093c-0.38,-0.689 -0.38,-0.689 -0.83,-1.363" style="fill:#1a171b;fill-rule:nonzero;"/><path d="M100.984,49.581c-0.577,-0.397 -1.598,-0.154 -2.206,-0.153c-1.898,0.004 -3.792,0.088 -5.689,0.053c-4.44,-0.081 -8.882,0.053 -13.323,0.017c-2.781,-0.021 -8.743,-0.045 -11.526,-0.064c-0.344,0.587 -0.637,0.678 -0.768,1.393c1.468,0.012 4.758,0.023 6.225,0.033c4.274,0.026 12.619,-0.033 16.892,-0.031c1.834,0 3.663,0.042 5.497,-0.003c0.776,-0.019 2.833,-0.338 3.29,-0.024c0.504,0.347 2.345,-0.715 1.608,-1.221" style="fill:#1a171b;fill-rule:nonzero;"/><path d="M67.656,2.291c-0.809,1.093 -0.724,1.166 -1.533,2.258c-0.811,1.117 -0.747,1.165 -1.535,2.283c-0.809,1.093 -0.852,1.069 -1.661,2.161c-0.81,1.117 -0.875,1.069 -1.662,2.162c-0.811,1.117 -0.703,1.19 -1.514,2.307c-0.788,1.117 -0.808,1.093 -1.62,2.21c-0.295,0.412 -0.567,0.825 -0.907,1.239c-0.459,0.509 -0.776,1.287 -1.485,1.48c-0.296,0.073 -0.629,0 -0.889,-0.171c-0.758,-0.437 -1.085,-1.337 -1.533,-2.09c-0.529,-0.9 -0.364,-1.021 -0.915,-1.92c-0.529,-0.876 -0.647,-0.803 -1.175,-1.702c-0.632,-1.045 -2.066,-1.12 -2.827,-0.076c-0.64,0.899 -0.662,0.899 -1.3,1.773c-0.663,0.899 -0.557,0.996 -1.195,1.87c-0.27,0.364 -0.539,0.729 -0.807,1.07c-0.291,0.338 -0.622,0.97 -1.017,1.165c-0.138,0.048 -0.251,0.072 -0.386,0.072c-0.472,-0 -0.84,-0.219 -1.137,-0.51c-0.253,-0.269 -0.478,-0.633 -0.681,-0.973c-0.244,-0.414 -0.49,-0.803 -0.733,-1.216c-0.628,-1.142 -0.628,-1.142 -1.302,-2.236c-0.648,-1.119 -0.554,-1.191 -1.227,-2.309c-0.674,-1.095 -0.626,-1.143 -1.276,-2.238c-0.674,-1.117 -0.697,-1.093 -1.371,-2.187c-0.673,-1.119 -0.65,-1.118 -1.3,-2.237c-0.673,-1.117 -0.697,-1.094 -1.37,-2.188c-0.367,-0.607 -0.247,-1.458 0.342,-1.894c0.588,-0.437 1.408,-0.267 1.777,0.341c0.589,0.997 0.683,0.924 1.274,1.921c0.59,0.996 0.446,1.117 1.06,2.115c0.59,0.996 0.566,1.02 1.178,2.017c0.59,0.997 0.684,0.924 1.274,1.921c0.613,0.996 0.566,1.045 1.155,2.042c0.59,0.996 0.496,1.069 1.086,2.066c0.613,0.997 0.687,1.604 1.316,1.604c0.674,0.001 0.814,-0.801 1.625,-1.917c0.81,-1.118 0.724,-1.191 1.535,-2.308c0.49,-0.656 0.918,-1.384 0.966,-2.161c0.049,-0.803 -0.263,-1.556 -0.65,-2.213c-0.53,-0.874 -0.481,-0.924 -0.992,-1.774c-0.53,-0.875 -0.577,-0.827 -1.085,-1.702c-0.367,-0.607 -0.135,-1.458 0.455,-1.895c0.588,-0.437 1.25,-0.242 1.617,0.366c0.549,0.924 0.619,0.9 1.168,1.824c0.571,0.947 0.501,0.996 1.049,1.92c0.367,0.607 1.314,0.56 1.755,-0.023c0.665,-0.947 0.536,-1.045 1.224,-1.992c0.664,-0.923 0.664,-0.923 1.35,-1.846c0.42,-0.607 1.324,-0.703 1.86,-0.289c0.535,0.437 0.571,1.312 0.131,1.894c-0.616,0.875 -0.702,0.801 -1.34,1.676c-0.613,0.85 -0.53,0.948 -1.145,1.797c-0.492,0.68 -0.719,1.458 -0.768,2.26c-0.048,0.777 0.082,1.556 0.49,2.236c0.672,1.118 0.697,1.094 1.369,2.212c0.672,1.118 0.772,2.041 1.311,2.066c0.602,0.073 0.809,-0.728 1.545,-1.724c0.712,-0.995 0.691,-1.02 1.405,-2.016c0.713,-0.995 0.692,-1.02 1.428,-2.015c0.713,-0.996 0.671,-1.044 1.385,-2.04c0.735,-0.996 0.692,-1.02 1.427,-2.016c0.714,-0.995 0.8,-0.947 1.514,-1.943c0.713,-0.995 0.627,-1.068 1.341,-2.064c0.442,-0.607 1.206,-0.607 1.74,-0.169c0.537,0.414 0.628,1.118 0.186,1.726m-8.09,57.307c0.736,-1.002 0.716,-1.027 1.476,-2.029c0.737,-1.002 0.697,-1.051 1.435,-2.055c0.759,-1.001 0.717,-1.025 1.477,-2.029c0.737,-1.002 0.822,-0.952 1.56,-1.955c0.737,-1.002 0.654,-1.076 1.392,-2.078c0.021,-0.018 0.039,-0.033 0.055,-0.05c-0.037,0.124 -1.123,-0.114 -2.917,-0.001c-2.013,-0.067 -3.759,0.324 -6.413,0.001c-1.759,0.135 -4.66,-0.141 -6.42,-0.003c-1.895,0.121 -2.362,-0.033 -2.915,-0.001c0.472,0.72 0.959,1.468 1.251,1.986c0.546,0.953 0.474,1.002 1,1.931c0.1,0.174 1.34,2.39 1.879,3.362c0.556,1 1.43,2.21 1.529,2.383c0.644,1.124 0.867,1.694 1.172,2.248c0.625,1.135 0.86,2.03 1.397,2.054c0.6,0.074 0.827,-0.733 1.587,-1.735c0.737,-1.002 0.716,-1.027 1.455,-2.029m-22.995,-10.199c0.098,0.031 2.283,0.103 4.324,-0.001c2.169,-0.111 3.589,0.022 4.327,0.002c0.487,0.877 1.634,2.522 2.137,3.401c0.487,0.856 0.438,0.905 0.946,1.785c0.369,0.66 0.969,1.782 0.93,2.225c-0.033,0.393 -0.85,1.516 -1.356,2.176c-0.838,1.124 -0.754,1.197 -1.591,2.322c-0.838,1.125 -1.142,1.932 -1.672,1.932c-0.628,-0.001 -0.687,-0.612 -1.274,-1.614c-0.564,-1.002 -0.469,-1.076 -1.033,-2.078c-0.563,-1.003 -0.547,-0.88 -1.141,-1.877c-0.313,-0.526 -0.621,-1.105 -1.185,-2.108c-0.587,-1.002 -0.562,-1.027 -1.127,-2.029c-0.587,-1.002 -0.633,-1.456 -1.005,-2.127c-0.329,-0.595 -0.923,-1.42 -1.225,-1.931c-0.015,-0.027 -0.036,-0.051 -0.055,-0.078" style="fill:#1a171b;fill-rule:nonzero;"/><path d="M53.872,0.543c-0.628,0.924 -0.628,0.924 -1.234,1.847c-0.629,0.948 -0.494,1.046 -1.1,1.994c-0.404,0.584 -1.346,0.632 -1.751,0.025c-0.605,-0.925 -0.538,-0.973 -1.166,-1.921c-0.606,-0.924 -0.674,-0.899 -1.28,-1.824c-0.404,-0.607 -1.077,-0.802 -1.637,-0.365c-0.563,0.438 -0.742,1.29 -0.338,1.897c0.562,0.875 0.606,0.827 1.19,1.702c0.562,0.851 0.516,0.9 1.099,1.775c0.427,0.657 0.786,1.41 0.786,2.213c0,0.778 -0.382,1.507 -0.831,2.163c-0.74,1.119 -0.651,1.192 -1.39,2.311c-0.741,1.118 -0.832,1.92 -1.505,1.92c-0.628,-0 -0.74,-0.608 -1.414,-1.605c-0.65,-0.996 -0.561,-1.07 -1.212,-2.066c-0.65,-0.997 -0.606,-1.046 -1.279,-2.043c-0.651,-0.997 -0.741,-0.923 -1.392,-1.92c-0.673,-0.997 -0.65,-1.022 -1.302,-2.018c-0.674,-0.998 -0.538,-1.119 -1.188,-2.116c-0.652,-0.997 -0.741,-0.923 -1.392,-1.92c-0.405,-0.609 -1.235,-0.778 -1.796,-0.341c-0.561,0.438 -0.629,1.289 -0.224,1.896c0.74,1.094 0.763,1.071 1.504,2.189c0.718,1.118 0.695,1.118 1.436,2.237c0.741,1.094 0.762,1.07 1.504,2.188c0.718,1.094 0.673,1.143 1.413,2.237c0.741,1.118 0.652,1.191 1.369,2.31c0.741,1.094 0.741,1.094 1.438,2.236c0.268,0.413 0.538,0.802 0.807,1.216c0.224,0.34 0.471,0.705 0.74,0.973c0.315,0.292 0.696,0.51 1.167,0.51c0.135,0 0.247,-0.024 0.382,-0.073c0.382,-0.195 0.674,-0.827 0.944,-1.166c0.246,-0.341 0.493,-0.706 0.739,-1.071c0.584,-0.875 0.472,-0.973 1.078,-1.872c0.584,-0.875 0.606,-0.875 1.189,-1.775c0.696,-1.045 2.132,-0.972 2.829,0.074c0.583,0.898 0.696,0.826 1.279,1.701c0.606,0.899 0.449,1.021 1.032,1.921c0.494,0.754 0.877,1.653 1.661,2.091c0.27,0.17 0.607,0.243 0.898,0.17c0.696,-0.195 0.965,-0.973 1.392,-1.483c0.314,-0.414 0.56,-0.827 0.83,-1.239c0.741,-1.119 0.763,-1.095 1.48,-2.213c0.742,-1.119 0.63,-1.192 1.37,-2.31c0.719,-1.094 0.787,-1.046 1.527,-2.164c0.741,-1.094 0.785,-1.07 1.526,-2.165c0.717,-1.118 0.651,-1.166 1.391,-2.285c0.741,-1.093 0.652,-1.166 1.392,-2.26c0.404,-0.609 0.269,-1.314 -0.292,-1.728c-0.561,-0.437 -1.324,-0.437 -1.727,0.171c-0.652,0.997 -0.562,1.07 -1.212,2.067c-0.652,0.996 -0.742,0.948 -1.393,1.945c-0.673,0.997 -0.628,1.021 -1.301,2.018c-0.651,0.997 -0.606,1.046 -1.257,2.042c-0.674,0.997 -0.651,1.022 -1.301,2.018c-0.652,0.997 -0.63,1.022 -1.28,2.018c-0.673,0.997 -0.83,1.799 -1.436,1.727c-0.54,-0.025 -0.697,-0.949 -1.437,-2.066c-0.741,-1.119 -0.764,-1.095 -1.504,-2.213c-0.449,-0.681 -0.628,-1.459 -0.628,-2.237c-0,-0.803 0.179,-1.581 0.628,-2.262c0.562,-0.85 0.472,-0.948 1.033,-1.799c0.583,-0.876 0.672,-0.802 1.234,-1.678c0.403,-0.583 0.314,-1.458 -0.248,-1.896c-0.226,-0.167 -0.509,-0.251 -0.789,-0.251c-0.413,-0 -0.823,0.181 -1.051,0.543Zm-12.913,48.829c-2.032,0.103 -4.223,0.032 -4.324,0.001c0.022,0.026 0.044,0.051 0.062,0.077c0.346,0.509 1.011,1.329 1.392,1.92c0.43,0.668 0.515,1.119 1.189,2.116c0.651,0.997 0.628,1.021 1.301,2.018c0.651,0.997 1.01,1.573 1.368,2.096c0.68,0.992 0.653,0.87 1.303,1.867c0.651,0.997 0.562,1.07 1.212,2.067c0.674,0.997 0.786,1.604 1.414,1.605c0.53,0 0.764,-0.803 1.505,-1.921c0.74,-1.119 0.65,-1.191 1.391,-2.31c0.449,-0.657 1.168,-1.772 1.168,-2.164c-0,-0.44 -0.696,-1.556 -1.123,-2.213c-0.584,-0.875 -0.538,-0.924 -1.1,-1.775c-0.579,-0.874 -1.868,-2.51 -2.431,-3.383c-0.284,0.008 -0.672,-0.007 -1.166,-0.021c-0.399,-0.013 -0.868,-0.025 -1.407,-0.025c-0.519,0 -1.104,0.012 -1.754,0.045Zm10.316,0.001c-1.124,0.071 -1.748,0.046 -2.186,0.02c-0.296,-0.017 -0.507,-0.035 -0.729,-0.022c0.534,0.717 1.086,1.461 1.422,1.975c0.629,0.948 0.562,0.997 1.167,1.921c0.115,0.173 1.546,2.377 2.17,3.344c0.642,0.995 1.621,2.197 1.735,2.37c0.741,1.118 1.013,1.685 1.366,2.236c0.723,1.129 1.036,2.018 1.575,2.043c0.606,0.073 0.763,-0.729 1.437,-1.726c0.65,-0.997 0.627,-1.022 1.279,-2.018c0.65,-0.997 0.627,-1.022 1.301,-2.018c0.651,-0.997 0.606,-1.045 1.257,-2.043c0.673,-0.997 0.629,-1.021 1.302,-2.018c0.65,-0.997 0.74,-0.948 1.392,-1.945c0.65,-0.996 0.56,-1.07 1.211,-2.066c0.012,-0.011 0.023,-0.021 0.033,-0.031c-0.074,0.035 -0.353,0.009 -0.804,-0.017c-0.501,-0.029 -1.216,-0.059 -2.095,-0.003c-0.788,-0.026 -1.53,0.017 -2.301,0.061c-1.203,0.068 -2.477,0.136 -4.112,-0.06c-0.87,0.066 -2.032,0.032 -3.196,-0.003c-0.679,-0.02 -1.358,-0.04 -1.981,-0.04c-0.452,0 -0.874,0.011 -1.243,0.04Zm15.732,0.022c0.01,-0.005 0.017,-0.011 0.019,-0.019c-0.006,0.006 -0.013,0.013 -0.019,0.019Z" style="fill:url(#_Linear1);fill-rule:nonzero;"/></g><defs><linearGradient id="_Linear1" x1="0" y1="0" x2="1" y2="0" gradientUnits="userSpaceOnUse" gradientTransform="matrix(-41.2508,6.38397,-6.38397,-41.2508,70.9799,27.7908)"><stop offset="0" style="stop-color:#eec980;stop-opacity:1"/><stop offset="0.18" style="stop-color:#fce088;stop-opacity:1"/><stop offset="0.29" style="stop-color:#c5860b;stop-opacity:1"/><stop offset="0.46" style="stop-color:#f2d88e;stop-opacity:1"/><stop offset="0.71" style="stop-color:#c5860b;stop-opacity:1"/><stop offset="0.77" style="stop-color:#efc97a;stop-opacity:1"/><stop offset="1" style="stop-color:#efc97a;stop-opacity:1"/></linearGradient></defs></svg>