<?xml version="1.0" encoding="UTF-8" standalone="no"?><!DOCTYPE svg PUBLIC "-//W3C//DTD SVG 1.1//EN" "http://www.w3.org/Graphics/SVG/1.1/DTD/svg11.dtd"><svg width="100%" height="100%" viewBox="0 0 26 26" version="1.1" xmlns="http://www.w3.org/2000/svg" xmlns:xlink="http://www.w3.org/1999/xlink" xml:space="preserve" xmlns:serif="http://www.serif.com/" style="fill-rule:evenodd;clip-rule:evenodd;stroke-linejoin:round;stroke-miterlimit:2;"><path d="M17.313,14.17c-0.512,-0.306 -1.178,-0.648 -1.782,-0.401c-0.462,0.189 -0.758,0.913 -1.058,1.284c-0.153,0.19 -0.337,0.22 -0.574,0.124c-1.737,-0.692 -3.067,-1.852 -4.026,-3.449c-0.163,-0.249 -0.133,-0.445 0.062,-0.675c0.29,-0.341 0.653,-0.728 0.732,-1.188c0.078,-0.459 -0.138,-0.996 -0.327,-1.405c-0.243,-0.523 -0.514,-1.269 -1.038,-1.565c-0.482,-0.272 -1.116,-0.119 -1.544,0.231c-0.741,0.602 -1.098,1.547 -1.087,2.482c0.002,0.267 0.035,0.532 0.098,0.788c0.149,0.619 0.434,1.195 0.756,1.744c0.242,0.412 0.505,0.815 0.788,1.2c0.93,1.262 2.086,2.359 3.425,3.179c0.668,0.409 1.389,0.769 2.134,1.016c0.837,0.275 1.582,0.563 2.486,0.391c0.945,-0.179 1.878,-0.765 2.253,-1.676c0.111,-0.269 0.167,-0.57 0.106,-0.855c-0.129,-0.589 -0.927,-0.94 -1.404,-1.225m-4.628,8.359c-1.803,-0 -3.584,-0.493 -5.15,-1.426l-0.426,-0.254l-3.783,1.013l1.008,-3.761l-0.262,-0.43c-0.965,-1.585 -1.475,-3.394 -1.475,-5.231c-0,-5.563 4.525,-10.088 10.088,-10.088c5.563,0 10.09,4.525 10.09,10.088c-0,5.563 -4.527,10.089 -10.09,10.089m0,-22.529c-6.859,-0 -12.44,5.581 -12.44,12.44c0,2.098 0.538,4.166 1.56,6.01l-1.805,6.737l6.772,-1.814c1.82,0.988 3.854,1.508 5.913,1.508c6.86,-0 12.441,-5.581 12.441,-12.441c-0,-6.859 -5.581,-12.44 -12.441,-12.44" style="fill:#283845;fill-rule:nonzero;"/></svg>