<?xml version="1.0" encoding="UTF-8" standalone="no"?><!DOCTYPE svg PUBLIC "-//W3C//DTD SVG 1.1//EN" "http://www.w3.org/Graphics/SVG/1.1/DTD/svg11.dtd"><svg width="100%" height="100%" viewBox="0 0 27 249" version="1.1" xmlns="http://www.w3.org/2000/svg" xmlns:xlink="http://www.w3.org/1999/xlink" xml:space="preserve" xmlns:serif="http://www.serif.com/" style="fill-rule:evenodd;clip-rule:evenodd;stroke-linejoin:round;stroke-miterlimit:2;"><g><path d="M26.55,248.4c-0,0.25 -0.125,0.375 -0.375,0.375l-25.5,0c-0.25,0 -0.375,-0.125 -0.375,-0.375l-0,-2.85c-0,-0.25 0.125,-0.375 0.375,-0.375l22.612,-0c0.1,-0 0.15,-0.05 0.15,-0.15l0,-10.65c0,-0.25 0.125,-0.375 0.375,-0.375l2.363,0c0.25,0 0.375,0.125 0.375,0.375l-0,14.025Z" style="fill:#fff;fill-rule:nonzero;"/><path d="M3.037,213.6c0.25,0 0.375,0.125 0.375,0.375l0,10.875c0,0.1 0.05,0.15 0.15,0.15l8.1,0c0.1,0 0.15,-0.05 0.15,-0.15l0,-7.162c0,-0.251 0.125,-0.375 0.375,-0.375l2.363,-0c0.25,-0 0.375,0.124 0.375,0.375l-0,7.162c-0,0.1 0.05,0.15 0.15,0.15l8.212,0c0.1,0 0.15,-0.05 0.15,-0.15l0,-10.875c0,-0.25 0.125,-0.375 0.375,-0.375l2.363,0c0.25,0 0.375,0.125 0.375,0.375l-0,14.25c-0,0.25 -0.125,0.375 -0.375,0.375l-25.5,-0c-0.25,-0 -0.375,-0.125 -0.375,-0.375l-0,-14.25c-0,-0.25 0.125,-0.375 0.375,-0.375l2.362,0Z" style="fill:#fff;fill-rule:nonzero;"/><path d="M0.3,192.75c-0,-0.25 0.125,-0.375 0.375,-0.375l2.4,0c0.25,0 0.375,0.125 0.375,0.375l-0,6.038c-0,0.099 0.05,0.15 0.15,0.15l22.575,-0c0.25,-0 0.375,0.124 0.375,0.374l-0,2.851c-0,0.249 -0.125,0.374 -0.375,0.374l-22.575,0c-0.1,0 -0.15,0.05 -0.15,0.15l-0,5.775c-0,0.25 -0.125,0.376 -0.375,0.376l-2.4,-0c-0.25,-0 -0.375,-0.126 -0.375,-0.376l-0,-15.712Z" style="fill:#fff;fill-rule:nonzero;"/><path d="M8.325,187.65c-0,0.25 -0.125,0.375 -0.375,0.375l-7.2,0.338c-0.25,-0 -0.375,-0.113 -0.375,-0.338l-0,-2.925c-0,-0.225 0.125,-0.337 0.375,-0.337l7.2,0.375c0.25,-0 0.375,0.124 0.375,0.375l-0,2.137Z" style="fill:#fff;fill-rule:nonzero;"/><path d="M26.85,172.463c-0,1.599 -0.294,3.006 -0.881,4.218c-0.588,1.213 -1.407,2.15 -2.457,2.813c-1.05,0.662 -2.275,0.993 -3.675,0.993l-1.012,0c-0.25,0 -0.375,-0.125 -0.375,-0.374l-0,-2.775c-0,-0.251 0.125,-0.375 0.375,-0.375l0.825,-0c1.225,-0 2.212,-0.419 2.962,-1.257c0.75,-0.837 1.125,-1.969 1.125,-3.393c0,-1.276 -0.343,-2.282 -1.031,-3.019c-0.687,-0.738 -1.594,-1.106 -2.719,-1.106c-0.75,-0 -1.4,0.187 -1.95,0.562c-0.55,0.375 -1.062,0.919 -1.537,1.631c-0.475,0.713 -1.075,1.744 -1.8,3.094c-0.8,1.525 -1.513,2.744 -2.138,3.656c-0.625,0.913 -1.412,1.669 -2.362,2.269c-0.95,0.6 -2.1,0.9 -3.45,0.9c-2.1,0 -3.75,-0.688 -4.95,-2.063c-1.2,-1.375 -1.8,-3.2 -1.8,-5.474c-0,-1.576 0.3,-2.963 0.9,-4.163c0.6,-1.2 1.444,-2.131 2.531,-2.794c1.088,-0.662 2.344,-0.993 3.769,-0.993l0.862,-0c0.25,-0 0.375,0.124 0.375,0.375l0,2.812c0,0.25 -0.125,0.375 -0.375,0.375l-0.787,0c-1.225,0 -2.225,0.4 -3,1.2c-0.775,0.8 -1.163,1.887 -1.163,3.263c0,1.224 0.313,2.181 0.938,2.868c0.625,0.688 1.512,1.032 2.662,1.032c0.75,-0 1.388,-0.169 1.913,-0.507c0.525,-0.337 1.019,-0.856 1.481,-1.556c0.463,-0.7 1.044,-1.738 1.744,-3.112c0.975,-1.726 1.775,-3.032 2.4,-3.919c0.625,-0.888 1.387,-1.613 2.287,-2.175c0.9,-0.563 1.988,-0.844 3.263,-0.844c2.15,0 3.862,0.706 5.137,2.119c1.275,1.412 1.913,3.319 1.913,5.719Z" style="fill:#fff;fill-rule:nonzero;"/><path d="M26.85,141.75c-0,1.575 -0.319,2.969 -0.956,4.181c-0.638,1.213 -1.538,2.15 -2.7,2.813c-1.163,0.662 -2.507,0.994 -4.032,0.994l-11.512,-0c-2.325,-0 -4.181,-0.732 -5.569,-2.194c-1.387,-1.463 -2.081,-3.394 -2.081,-5.794c-0,-2.4 0.687,-4.325 2.062,-5.775c1.375,-1.45 3.2,-2.175 5.475,-2.175l0.3,0c0.125,0 0.225,0.038 0.3,0.112c0.075,0.076 0.113,0.163 0.113,0.263l0.15,2.85c-0,0.25 -0.125,0.375 -0.375,0.375l-0.563,0c-1.3,0 -2.35,0.4 -3.15,1.2c-0.8,0.8 -1.2,1.85 -1.2,3.15c0,1.3 0.4,2.356 1.2,3.169c0.8,0.812 1.85,1.219 3.15,1.219l11.925,-0c1.3,-0 2.35,-0.407 3.15,-1.219c0.8,-0.813 1.2,-1.869 1.2,-3.169c0,-1.3 -0.4,-2.35 -1.2,-3.15c-0.8,-0.8 -1.85,-1.2 -3.15,-1.2l-0.525,0c-0.25,0 -0.375,-0.125 -0.375,-0.375l0.15,-2.85c0,-0.25 0.125,-0.375 0.375,-0.375l0.263,0c1.5,0 2.825,0.331 3.975,0.994c1.15,0.662 2.037,1.594 2.662,2.794c0.625,1.2 0.938,2.587 0.938,4.162Z" style="fill:#fff;fill-rule:nonzero;"/><path d="M26.887,119.925c0,1.6 -0.331,3.006 -0.993,4.219c-0.663,1.212 -1.594,2.156 -2.794,2.831c-1.2,0.675 -2.588,1.013 -4.163,1.013l-11.025,-0c-1.55,-0 -2.925,-0.338 -4.125,-1.013c-1.2,-0.675 -2.131,-1.619 -2.793,-2.831c-0.663,-1.213 -0.994,-2.619 -0.994,-4.219c-0,-1.6 0.331,-3.013 0.994,-4.237c0.662,-1.226 1.593,-2.176 2.793,-2.85c1.2,-0.676 2.575,-1.013 4.125,-1.013l11.025,0c1.575,0 2.963,0.337 4.163,1.013c1.2,0.674 2.131,1.624 2.794,2.849c0.662,1.225 0.993,2.638 0.993,4.238Zm-3.15,0c0,-1.35 -0.425,-2.437 -1.275,-3.263c-0.85,-0.824 -1.975,-1.237 -3.375,-1.237l-11.25,-0c-1.4,-0 -2.537,0.413 -3.412,1.237c-0.875,0.826 -1.313,1.913 -1.313,3.263c0,1.325 0.438,2.4 1.313,3.225c0.875,0.825 2.012,1.238 3.412,1.238l11.25,-0c1.375,-0 2.494,-0.413 3.357,-1.238c0.862,-0.825 1.293,-1.9 1.293,-3.225Z" style="fill:#fff;fill-rule:nonzero;"/><path d="M0.675,92.137c-0.25,0 -0.375,-0.125 -0.375,-0.374l-0,-2.851c-0,-0.25 0.125,-0.375 0.375,-0.375l25.5,0c0.25,0 0.375,0.125 0.375,0.375l-0,3.001c-0,0.224 -0.088,0.374 -0.263,0.45l-18.187,9.037c-0.05,0.05 -0.075,0.094 -0.075,0.131c-0,0.038 0.037,0.057 0.112,0.057l18.038,-0.038c0.25,-0 0.375,0.125 0.375,0.375l-0,2.85c-0,0.25 -0.125,0.375 -0.375,0.375l-25.5,0c-0.25,0 -0.375,-0.125 -0.375,-0.375l-0,-3c-0,-0.225 0.087,-0.375 0.262,-0.45l18.188,-9c0.05,-0.05 0.075,-0.094 0.075,-0.131c-0,-0.038 -0.038,-0.057 -0.113,-0.057l-18.037,0Z" style="fill:#fff;fill-rule:nonzero;"/><path d="M0.675,68.475c-0.25,-0 -0.375,-0.125 -0.375,-0.375l-0,-2.85c-0,-0.25 0.125,-0.375 0.375,-0.375l25.5,-0c0.25,-0 0.375,0.125 0.375,0.375l-0,3c-0,0.225 -0.088,0.375 -0.263,0.45l-18.187,9.037c-0.05,0.05 -0.075,0.094 -0.075,0.132c-0,0.037 0.037,0.056 0.112,0.056l18.038,-0.038c0.25,0 0.375,0.125 0.375,0.375l-0,2.851c-0,0.249 -0.125,0.374 -0.375,0.374l-25.5,0c-0.25,0 -0.375,-0.125 -0.375,-0.374l-0,-3.001c-0,-0.225 0.087,-0.375 0.262,-0.449l18.188,-9.001c0.05,-0.05 0.075,-0.093 0.075,-0.131c-0,-0.037 -0.038,-0.056 -0.113,-0.056l-18.037,-0Z" style="fill:#fff;fill-rule:nonzero;"/><path d="M3.037,42.825c0.25,-0 0.375,0.125 0.375,0.375l0,10.875c0,0.1 0.05,0.15 0.15,0.15l8.1,-0c0.1,-0 0.15,-0.05 0.15,-0.15l0,-7.163c0,-0.25 0.125,-0.375 0.375,-0.375l2.363,0c0.25,0 0.375,0.125 0.375,0.375l-0,7.163c-0,0.1 0.05,0.15 0.15,0.15l8.212,-0c0.1,-0 0.15,-0.05 0.15,-0.15l0,-10.875c0,-0.25 0.125,-0.375 0.375,-0.375l2.363,-0c0.25,-0 0.375,0.125 0.375,0.375l-0,14.25c-0,0.25 -0.125,0.375 -0.375,0.375l-25.5,-0c-0.25,-0 -0.375,-0.125 -0.375,-0.375l-0,-14.25c-0,-0.25 0.125,-0.375 0.375,-0.375l2.362,-0Z" style="fill:#fff;fill-rule:nonzero;"/><path d="M26.85,29.287c-0,1.575 -0.319,2.969 -0.956,4.182c-0.638,1.212 -1.538,2.15 -2.7,2.812c-1.163,0.663 -2.507,0.994 -4.032,0.994l-11.512,0c-2.325,0 -4.181,-0.731 -5.569,-2.194c-1.387,-1.462 -2.081,-3.393 -2.081,-5.794c-0,-2.399 0.687,-4.325 2.062,-5.775c1.375,-1.45 3.2,-2.175 5.475,-2.175l0.3,0c0.125,0 0.225,0.038 0.3,0.113c0.075,0.075 0.113,0.162 0.113,0.263l0.15,2.85c-0,0.249 -0.125,0.375 -0.375,0.375l-0.563,-0c-1.3,-0 -2.35,0.399 -3.15,1.199c-0.8,0.8 -1.2,1.85 -1.2,3.15c0,1.3 0.4,2.357 1.2,3.169c0.8,0.813 1.85,1.219 3.15,1.219l11.925,0c1.3,0 2.35,-0.406 3.15,-1.219c0.8,-0.812 1.2,-1.869 1.2,-3.169c0,-1.3 -0.4,-2.35 -1.2,-3.15c-0.8,-0.8 -1.85,-1.199 -3.15,-1.199l-0.525,-0c-0.25,-0 -0.375,-0.126 -0.375,-0.375l0.15,-2.85c0,-0.251 0.125,-0.376 0.375,-0.376l0.263,0c1.5,0 2.825,0.332 3.975,0.994c1.15,0.663 2.037,1.594 2.662,2.794c0.625,1.2 0.938,2.588 0.938,4.162Z" style="fill:#fff;fill-rule:nonzero;"/><path d="M0.3,0.375c-0,-0.25 0.125,-0.375 0.375,-0.375l2.4,0c0.25,0 0.375,0.125 0.375,0.375l-0,6.037c-0,0.1 0.05,0.151 0.15,0.151l22.575,-0c0.25,-0 0.375,0.124 0.375,0.374l-0,2.85c-0,0.25 -0.125,0.375 -0.375,0.375l-22.575,0c-0.1,0 -0.15,0.05 -0.15,0.15l-0,5.775c-0,0.25 -0.125,0.375 -0.375,0.375l-2.4,0c-0.25,0 -0.375,-0.125 -0.375,-0.375l-0,-15.712Z" style="fill:#fff;fill-rule:nonzero;"/></g></svg>