<?xml version="1.0" encoding="UTF-8" standalone="no"?><!DOCTYPE svg PUBLIC "-//W3C//DTD SVG 1.1//EN" "http://www.w3.org/Graphics/SVG/1.1/DTD/svg11.dtd"><svg width="100%" height="100%" viewBox="0 0 25 356" version="1.1" xmlns="http://www.w3.org/2000/svg" xmlns:xlink="http://www.w3.org/1999/xlink" xml:space="preserve" xmlns:serif="http://www.serif.com/" style="fill-rule:evenodd;clip-rule:evenodd;stroke-linejoin:round;stroke-miterlimit:2;"><g><path d="M0.236,347.524c0,-1.913 0.625,-3.448 1.873,-4.607c1.249,-1.159 2.897,-1.738 4.945,-1.738c2.002,-0 3.617,0.579 4.843,1.738c1.226,1.159 1.839,2.694 1.839,4.607l0,4.522c0,0.09 0.045,0.135 0.135,0.135l9.687,0c0.224,0 0.337,0.113 0.337,0.338l0,2.565c0,0.225 -0.113,0.337 -0.337,0.337l-22.984,0c-0.225,0 -0.338,-0.112 -0.338,-0.337l0,-7.56Zm10.902,0.472c-0,-1.08 -0.366,-1.952 -1.097,-2.615c-0.732,-0.664 -1.705,-0.996 -2.92,-0.996c-1.237,0 -2.227,0.332 -2.97,0.996c-0.742,0.663 -1.113,1.535 -1.113,2.615l-0,4.05c-0,0.09 0.044,0.135 0.135,0.135l7.83,0c0.089,0 0.135,-0.045 0.135,-0.135l-0,-4.05Z" style="fill:#fff;fill-rule:nonzero;"/><path d="M23.895,325.283c0,0.202 -0.101,0.326 -0.304,0.371l-3.915,1.012c-0.067,0.023 -0.101,0.079 -0.101,0.169l0,7.459c0,0.112 0.034,0.169 0.101,0.169l3.915,0.978c0.203,0.023 0.304,0.146 0.304,0.372l0,2.632c0,0.112 -0.034,0.197 -0.101,0.253c-0.068,0.056 -0.158,0.073 -0.27,0.051l-22.95,-6.244c-0.203,-0.045 -0.304,-0.169 -0.304,-0.371l0,-3.173c0,-0.202 0.101,-0.326 0.304,-0.371l22.95,-6.277l0.101,-0.034c0.18,-0 0.27,0.112 0.27,0.337l0,2.667Zm-7.02,8.471c0.022,0.022 0.051,0.017 0.084,-0.017c0.034,-0.034 0.051,-0.073 0.051,-0.118l0,-6.109c0,-0.045 -0.017,-0.084 -0.051,-0.118c-0.033,-0.034 -0.062,-0.04 -0.084,-0.017l-12.217,3.139c-0.046,0.022 -0.068,0.045 -0.068,0.067c0,0.023 0.022,0.045 0.068,0.068l12.217,3.105Z" style="fill:#fff;fill-rule:nonzero;"/><path d="M24.165,312.221c-0,1.44 -0.264,2.706 -0.793,3.797c-0.529,1.091 -1.266,1.935 -2.211,2.531c-0.945,0.597 -2.047,0.895 -3.307,0.895l-0.911,-0c-0.226,-0 -0.338,-0.113 -0.338,-0.338l0,-2.497c0,-0.225 0.112,-0.338 0.338,-0.338l0.742,0c1.102,0 1.991,-0.377 2.666,-1.13c0.675,-0.754 1.013,-1.772 1.013,-3.055c-0,-1.147 -0.31,-2.053 -0.928,-2.717c-0.619,-0.663 -1.435,-0.995 -2.447,-0.995c-0.675,-0 -1.26,0.169 -1.755,0.506c-0.495,0.338 -0.957,0.827 -1.384,1.468c-0.428,0.641 -0.968,1.57 -1.62,2.785c-0.72,1.372 -1.361,2.469 -1.924,3.29c-0.562,0.821 -1.271,1.502 -2.126,2.042c-0.855,0.54 -1.89,0.81 -3.105,0.81c-1.89,0 -3.375,-0.619 -4.455,-1.856c-1.08,-1.238 -1.62,-2.88 -1.62,-4.928c0,-1.417 0.27,-2.666 0.81,-3.746c0.54,-1.08 1.299,-1.918 2.278,-2.514c0.979,-0.597 2.11,-0.895 3.392,-0.895l0.776,0c0.225,0 0.338,0.113 0.338,0.338l-0,2.531c-0,0.225 -0.113,0.338 -0.338,0.338l-0.708,-0c-1.103,-0 -2.003,0.359 -2.7,1.08c-0.698,0.719 -1.047,1.698 -1.047,2.936c0,1.102 0.281,1.963 0.844,2.582c0.562,0.618 1.361,0.928 2.396,0.928c0.675,-0 1.249,-0.152 1.722,-0.456c0.472,-0.304 0.916,-0.771 1.333,-1.4c0.416,-0.631 0.939,-1.564 1.569,-2.802c0.878,-1.552 1.597,-2.728 2.16,-3.527c0.562,-0.798 1.249,-1.451 2.059,-1.957c0.81,-0.506 1.789,-0.759 2.936,-0.759c1.935,-0 3.476,0.635 4.624,1.906c1.147,1.272 1.721,2.987 1.721,5.147Z" style="fill:#fff;fill-rule:nonzero;"/><path d="M24.165,293.423c-0,1.439 -0.264,2.705 -0.793,3.796c-0.529,1.092 -1.266,1.935 -2.211,2.532c-0.945,0.596 -2.047,0.894 -3.307,0.894l-0.911,0c-0.226,0 -0.338,-0.113 -0.338,-0.337l0,-2.498c0,-0.225 0.112,-0.337 0.338,-0.337l0.742,-0c1.102,-0 1.991,-0.377 2.666,-1.131c0.675,-0.754 1.013,-1.772 1.013,-3.054c-0,-1.148 -0.31,-2.054 -0.928,-2.717c-0.619,-0.664 -1.435,-0.996 -2.447,-0.996c-0.675,0 -1.26,0.169 -1.755,0.506c-0.495,0.338 -0.957,0.827 -1.384,1.468c-0.428,0.642 -0.968,1.57 -1.62,2.785c-0.72,1.372 -1.361,2.469 -1.924,3.29c-0.562,0.822 -1.271,1.502 -2.126,2.042c-0.855,0.54 -1.89,0.81 -3.105,0.81c-1.89,0 -3.375,-0.619 -4.455,-1.856c-1.08,-1.238 -1.62,-2.88 -1.62,-4.927c0,-1.418 0.27,-2.667 0.81,-3.747c0.54,-1.08 1.299,-1.918 2.278,-2.514c0.979,-0.596 2.11,-0.894 3.392,-0.894l0.776,-0c0.225,-0 0.338,0.112 0.338,0.337l-0,2.531c-0,0.225 -0.113,0.338 -0.338,0.338l-0.708,-0c-1.103,-0 -2.003,0.36 -2.7,1.08c-0.698,0.72 -1.047,1.698 -1.047,2.936c0,1.102 0.281,1.963 0.844,2.582c0.562,0.619 1.361,0.928 2.396,0.928c0.675,0 1.249,-0.152 1.722,-0.456c0.472,-0.303 0.916,-0.77 1.333,-1.4c0.416,-0.63 0.939,-1.564 1.569,-2.801c0.878,-1.553 1.597,-2.729 2.16,-3.527c0.562,-0.799 1.249,-1.452 2.059,-1.958c0.81,-0.506 1.789,-0.759 2.936,-0.759c1.935,-0 3.476,0.635 4.624,1.907c1.147,1.271 1.721,2.987 1.721,5.147Z" style="fill:#fff;fill-rule:nonzero;"/><path d="M23.895,280.496c0,0.225 -0.113,0.338 -0.337,0.338l-22.95,-0c-0.226,-0 -0.338,-0.113 -0.338,-0.338l0,-2.565c0,-0.225 0.112,-0.337 0.338,-0.337l22.95,-0c0.224,-0 0.337,0.112 0.337,0.337l0,2.565Z" style="fill:#fff;fill-rule:nonzero;"/><path d="M24.199,264.364c-0,1.44 -0.298,2.705 -0.895,3.797c-0.596,1.091 -1.434,1.94 -2.514,2.548c-1.08,0.607 -2.329,0.911 -3.746,0.911l-9.923,0c-1.395,0 -2.632,-0.304 -3.712,-0.911c-1.08,-0.608 -1.918,-1.457 -2.515,-2.548c-0.596,-1.092 -0.894,-2.357 -0.894,-3.797c0,-1.44 0.298,-2.712 0.894,-3.814c0.597,-1.103 1.435,-1.957 2.515,-2.565c1.08,-0.607 2.317,-0.911 3.712,-0.911l9.923,-0c1.417,-0 2.666,0.304 3.746,0.911c1.08,0.608 1.918,1.462 2.514,2.565c0.597,1.102 0.895,2.374 0.895,3.814Zm-2.835,-0c-0,-1.215 -0.383,-2.194 -1.148,-2.936c-0.765,-0.743 -1.777,-1.114 -3.037,-1.114l-10.125,-0c-1.26,-0 -2.284,0.371 -3.071,1.114c-0.788,0.742 -1.182,1.721 -1.182,2.936c0,1.192 0.394,2.16 1.182,2.902c0.787,0.743 1.811,1.114 3.071,1.114l10.125,0c1.237,0 2.244,-0.371 3.02,-1.114c0.777,-0.742 1.165,-1.71 1.165,-2.902Z" style="fill:#fff;fill-rule:nonzero;"/><path d="M0.608,239.355c-0.226,0 -0.338,-0.113 -0.338,-0.337l0,-2.565c0,-0.226 0.112,-0.338 0.338,-0.338l22.95,0c0.224,0 0.337,0.112 0.337,0.338l0,2.7c0,0.202 -0.079,0.337 -0.236,0.405l-16.369,8.133c-0.045,0.045 -0.067,0.085 -0.067,0.118c-0,0.034 0.033,0.051 0.101,0.051l16.234,-0.034c0.224,0 0.337,0.113 0.337,0.338l0,2.565c0,0.225 -0.113,0.337 -0.337,0.337l-22.95,0c-0.226,0 -0.338,-0.112 -0.338,-0.337l0,-2.7c0,-0.203 0.079,-0.338 0.236,-0.405l16.369,-8.1c0.045,-0.045 0.068,-0.085 0.068,-0.118c-0,-0.034 -0.034,-0.051 -0.102,-0.051l-16.233,0Z" style="fill:#fff;fill-rule:nonzero;"/><path d="M23.895,217.755c0,0.203 -0.101,0.326 -0.304,0.371l-3.915,1.013c-0.067,0.022 -0.101,0.078 -0.101,0.169l0,7.458c0,0.113 0.034,0.169 0.101,0.169l3.915,0.979c0.203,0.022 0.304,0.146 0.304,0.371l0,2.633c0,0.112 -0.034,0.196 -0.101,0.253c-0.068,0.056 -0.158,0.073 -0.27,0.05l-22.95,-6.243c-0.203,-0.046 -0.304,-0.169 -0.304,-0.372l0,-3.172c0,-0.203 0.101,-0.327 0.304,-0.371l22.95,-6.278l0.101,-0.034c0.18,0 0.27,0.113 0.27,0.338l0,2.666Zm-7.02,8.471c0.022,0.023 0.051,0.017 0.084,-0.017c0.034,-0.033 0.051,-0.073 0.051,-0.118l0,-6.108c0,-0.046 -0.017,-0.085 -0.051,-0.119c-0.033,-0.033 -0.062,-0.039 -0.084,-0.016l-12.217,3.138c-0.046,0.023 -0.068,0.045 -0.068,0.068c0,0.022 0.022,0.045 0.068,0.067l12.217,3.105Z" style="fill:#fff;fill-rule:nonzero;"/><path d="M0.27,198.923c0,-0.226 0.112,-0.338 0.338,-0.338l2.16,0c0.224,0 0.337,0.112 0.337,0.338l0,5.433c0,0.09 0.045,0.135 0.135,0.135l20.318,0c0.224,0 0.337,0.113 0.337,0.338l0,2.565c0,0.225 -0.113,0.337 -0.337,0.337l-20.318,0c-0.09,0 -0.135,0.045 -0.135,0.135l0,5.198c0,0.225 -0.113,0.337 -0.337,0.337l-2.16,0c-0.226,0 -0.338,-0.112 -0.338,-0.337l0,-14.141Z" style="fill:#fff;fill-rule:nonzero;"/><path d="M2.734,179.82c0.225,0 0.337,0.112 0.337,0.338l0,9.787c0,0.09 0.045,0.135 0.135,0.135l7.29,0c0.09,0 0.135,-0.045 0.135,-0.135l0,-6.446c0,-0.225 0.113,-0.338 0.338,-0.338l2.126,0c0.225,0 0.338,0.113 0.338,0.338l-0,6.446c-0,0.09 0.044,0.135 0.135,0.135l7.391,0c0.09,0 0.135,-0.045 0.135,-0.135l-0,-9.787c-0,-0.226 0.112,-0.338 0.337,-0.338l2.127,0c0.224,0 0.337,0.112 0.337,0.338l0,12.825c0,0.224 -0.113,0.337 -0.337,0.337l-22.95,0c-0.226,0 -0.338,-0.113 -0.338,-0.337l0,-12.825c0,-0.226 0.112,-0.338 0.338,-0.338l2.126,0Z" style="fill:#fff;fill-rule:nonzero;"/><path d="M23.895,173.914c0,0.225 -0.113,0.337 -0.337,0.337l-22.95,0c-0.226,0 -0.338,-0.112 -0.338,-0.337l0,-2.565c0,-0.225 0.112,-0.338 0.338,-0.338l20.351,0c0.09,0 0.135,-0.045 0.135,-0.135l-0,-9.585c-0,-0.225 0.112,-0.337 0.337,-0.337l2.127,-0c0.224,-0 0.337,0.112 0.337,0.337l0,12.623Z" style="fill:#fff;fill-rule:nonzero;"/><path d="M23.861,152.179c0,0.225 -0.112,0.337 -0.337,0.337l-9.585,0c-0.09,0 -0.147,0.011 -0.169,0.034l-13.095,5.873l-0.135,0.033c-0.18,0 -0.27,-0.101 -0.27,-0.303l0,-2.734c0,-0.18 0.09,-0.304 0.27,-0.371l9.585,-4.05c0.045,-0.023 0.068,-0.057 0.068,-0.102c-0,-0.045 -0.023,-0.079 -0.068,-0.101l-9.585,-4.016c-0.18,-0.068 -0.27,-0.192 -0.27,-0.371l0,-2.768c0,-0.113 0.039,-0.197 0.118,-0.253c0.079,-0.056 0.174,-0.062 0.287,-0.017l13.095,5.906c0.022,0.023 0.079,0.034 0.169,0.034l9.585,0c0.225,0 0.337,0.112 0.337,0.338l0,2.531Z" style="fill:#fff;fill-rule:nonzero;"/><path d="M24.165,123.053c-0,1.417 -0.287,2.671 -0.861,3.763c-0.573,1.091 -1.383,1.935 -2.43,2.531c-1.046,0.596 -2.255,0.894 -3.628,0.894l-10.361,0c-2.092,0 -3.763,-0.658 -5.012,-1.974c-1.249,-1.316 -1.873,-3.054 -1.873,-5.214c0,-2.16 0.619,-3.893 1.856,-5.198c1.238,-1.305 2.88,-1.957 4.928,-1.957l0.27,-0c0.112,-0 0.202,0.033 0.27,0.101c0.067,0.067 0.101,0.146 0.101,0.236l0.135,2.565c0,0.225 -0.113,0.338 -0.337,0.338l-0.507,-0c-1.17,-0 -2.115,0.359 -2.835,1.08c-0.72,0.719 -1.08,1.664 -1.08,2.835c0,1.169 0.36,2.12 1.08,2.851c0.72,0.732 1.665,1.097 2.835,1.097l10.733,0c1.17,0 2.115,-0.365 2.835,-1.097c0.72,-0.731 1.08,-1.682 1.08,-2.851c-0,-1.171 -0.36,-2.116 -1.08,-2.835c-0.72,-0.721 -1.665,-1.08 -2.835,-1.08l-0.473,-0c-0.225,-0 -0.337,-0.113 -0.337,-0.338l0.135,-2.565c-0,-0.225 0.112,-0.337 0.337,-0.337l0.237,-0c1.35,-0 2.542,0.298 3.577,0.894c1.035,0.596 1.834,1.434 2.396,2.514c0.563,1.08 0.844,2.329 0.844,3.747Z" style="fill:#fff;fill-rule:nonzero;"/><path d="M23.895,98.685c0,0.18 -0.09,0.304 -0.27,0.371l-10.057,3.915c-0.068,0.023 -0.102,0.068 -0.102,0.135l0,3.612c0,0.089 0.045,0.135 0.135,0.135l9.957,-0c0.224,-0 0.337,0.112 0.337,0.337l0,2.565c0,0.225 -0.113,0.338 -0.337,0.338l-22.95,-0c-0.226,-0 -0.338,-0.113 -0.338,-0.338l0,-7.56c0,-1.89 0.619,-3.409 1.856,-4.556c1.238,-1.148 2.858,-1.721 4.86,-1.721c1.508,-0 2.802,0.348 3.882,1.046c1.08,0.697 1.822,1.654 2.227,2.869c0.022,0.067 0.079,0.089 0.169,0.067l10.226,-4.117l0.135,-0.034c0.18,-0 0.27,0.101 0.27,0.304l0,2.632Zm-20.824,8.033c0,0.089 0.045,0.135 0.135,0.135l7.56,-0c0.09,-0 0.135,-0.046 0.135,-0.135l0,-4.084c0,-1.035 -0.354,-1.873 -1.063,-2.515c-0.709,-0.641 -1.648,-0.961 -2.818,-0.961c-1.193,-0 -2.149,0.314 -2.869,0.945c-0.72,0.629 -1.08,1.473 -1.08,2.531l0,4.084Z" style="fill:#fff;fill-rule:nonzero;"/><path d="M23.895,77.929c0,0.202 -0.101,0.326 -0.304,0.371l-3.915,1.013c-0.067,0.022 -0.101,0.078 -0.101,0.168l0,7.459c0,0.112 0.034,0.169 0.101,0.169l3.915,0.979c0.203,0.022 0.304,0.146 0.304,0.371l0,2.632c0,0.113 -0.034,0.197 -0.101,0.253c-0.068,0.057 -0.158,0.073 -0.27,0.051l-22.95,-6.244c-0.203,-0.045 -0.304,-0.168 -0.304,-0.371l0,-3.172c0,-0.203 0.101,-0.327 0.304,-0.372l22.95,-6.277l0.101,-0.034c0.18,0 0.27,0.112 0.27,0.338l0,2.666Zm-7.02,8.471c0.022,0.022 0.051,0.017 0.084,-0.017c0.034,-0.034 0.051,-0.073 0.051,-0.118l0,-6.109c0,-0.045 -0.017,-0.084 -0.051,-0.118c-0.033,-0.034 -0.062,-0.039 -0.084,-0.017l-12.217,3.139c-0.046,0.022 -0.068,0.045 -0.068,0.067c0,0.023 0.022,0.045 0.068,0.068l12.217,3.105Z" style="fill:#fff;fill-rule:nonzero;"/><path d="M2.734,56.599c0.225,-0 0.337,0.112 0.337,0.337l0,9.754c0,0.09 0.045,0.135 0.135,0.135l7.29,0c0.09,0 0.135,-0.045 0.135,-0.135l0,-6.412c0,-0.226 0.113,-0.338 0.338,-0.338l2.126,0c0.225,0 0.338,0.112 0.338,0.338l-0,6.412c-0,0.09 0.044,0.135 0.135,0.135l9.99,0c0.224,0 0.337,0.112 0.337,0.338l0,2.565c0,0.224 -0.113,0.337 -0.337,0.337l-22.95,0c-0.226,0 -0.338,-0.113 -0.338,-0.337l0,-12.792c0,-0.225 0.112,-0.337 0.338,-0.337l2.126,-0Z" style="fill:#fff;fill-rule:nonzero;"/><path d="M0.27,38.745c0,-0.225 0.112,-0.337 0.338,-0.337l2.16,-0c0.224,-0 0.337,0.112 0.337,0.337l0,5.434c0,0.09 0.045,0.135 0.135,0.135l20.318,-0c0.224,-0 0.337,0.112 0.337,0.337l0,2.565c0,0.225 -0.113,0.338 -0.337,0.338l-20.318,-0c-0.09,-0 -0.135,0.045 -0.135,0.135l0,5.197c0,0.225 -0.113,0.338 -0.337,0.338l-2.16,-0c-0.226,-0 -0.338,-0.113 -0.338,-0.338l0,-14.141Z" style="fill:#fff;fill-rule:nonzero;"/><path d="M2.734,19.643c0.225,-0 0.337,0.112 0.337,0.337l0,9.788c0,0.089 0.045,0.135 0.135,0.135l7.29,-0c0.09,-0 0.135,-0.046 0.135,-0.135l0,-6.447c0,-0.225 0.113,-0.337 0.338,-0.337l2.126,-0c0.225,-0 0.338,0.112 0.338,0.337l-0,6.447c-0,0.089 0.044,0.135 0.135,0.135l7.391,-0c0.09,-0 0.135,-0.046 0.135,-0.135l-0,-9.788c-0,-0.225 0.112,-0.337 0.337,-0.337l2.127,-0c0.224,-0 0.337,0.112 0.337,0.337l0,12.825c0,0.225 -0.113,0.338 -0.337,0.338l-22.95,-0c-0.226,-0 -0.338,-0.113 -0.338,-0.338l0,-12.825c0,-0.225 0.112,-0.337 0.338,-0.337l2.126,-0Z" style="fill:#fff;fill-rule:nonzero;"/><path d="M23.895,13.736c0,0.225 -0.113,0.338 -0.337,0.338l-22.95,-0c-0.226,-0 -0.338,-0.113 -0.338,-0.338l0,-6.851c0,-2.092 0.596,-3.763 1.789,-5.012c1.192,-1.249 2.778,-1.873 4.759,-1.873l10.53,0c1.979,0 3.566,0.624 4.758,1.873c1.193,1.249 1.789,2.92 1.789,5.012l0,6.851Zm-2.936,-2.902c0.09,-0 0.135,-0.045 0.135,-0.135l-0.034,-3.881c0,-1.08 -0.366,-1.941 -1.097,-2.582c-0.731,-0.642 -1.716,-0.974 -2.953,-0.996l-9.855,0c-1.26,0 -2.256,0.326 -2.987,0.979c-0.731,0.652 -1.097,1.53 -1.097,2.632l0,3.848c0,0.09 0.045,0.135 0.135,0.135l17.753,-0Z" style="fill:#fff;fill-rule:nonzero;"/></g></svg>